<?xml version="1.0" standalone="no"?>
<!DOCTYPE svg PUBLIC "-//W3C//DTD SVG 1.1//EN" "http://www.w3.org/Graphics/SVG/1.1/DTD/svg11.dtd" >
<svg xmlns="http://www.w3.org/2000/svg" xmlns:xlink="http://www.w3.org/1999/xlink" version="1.1">
<metadata>
Created by FontForge 20161013 at Fri Mar 28 14:37:27 2014
 By ,,,
(c) 2014 Microsoft Corporation. All Rights Reserved.
</metadata>
<defs>
<font id="SegoeUI-BoldItalic" horiz-adv-x="0" >
  <font-face 
    font-family="Segoe UI"
    font-weight="700"
    font-style="italic"
    font-stretch="normal"
    units-per-em="2048"
    panose-1="2 11 8 2 4 2 4 9 2 3"
    ascent="1638"
    descent="-410"
    x-height="1024"
    cap-height="1434"
    bbox="-937 -590 3141 2192"
    underline-thickness="119"
    underline-position="-355"
    slope="-12"
    unicode-range="U+000D-FFFD"
  />
<missing-glyph horiz-adv-x="1322" 
d="M166 0v1398h990v-1398h-990zM314 148h694v1102h-694v-1102z" />
    <glyph glyph-name=".notdef" horiz-adv-x="1322" 
d="M166 0v1398h990v-1398h-990zM314 148h694v1102h-694v-1102z" />
    <glyph glyph-name="glyph1" 
 />
    <glyph glyph-name="uni000D" unicode="&#xd;" horiz-adv-x="100" 
 />
    <glyph glyph-name="space" unicode=" " horiz-adv-x="563" 
 />
    <glyph glyph-name="exclam" unicode="!" horiz-adv-x="709" 
d="M463 446h-256l172 988h332zM465 150q0 -39 -15 -70.5t-40.5 -54.5t-60.5 -35.5t-75 -12.5q-38 0 -70.5 12t-56.5 33t-37.5 49.5t-13.5 61.5q0 39 15 71.5t41 55t61 35t76 12.5q38 0 70 -12t55.5 -33t37 -49.5t13.5 -62.5z" />
    <glyph glyph-name="quotedbl" unicode="&#x22;" horiz-adv-x="1010" 
d="M930 1008h-201l-31 444h263zM535 1008h-203l-29 444h262z" />
    <glyph glyph-name="numbersign" unicode="#" horiz-adv-x="1171" 
d="M1163 889h-184l-55 -248h206l-45 -180h-198l-78 -346h-201l74 346h-229l-74 -346h-201l72 346h-187l37 180h189l53 248h-203l35 180h205l74 356h204l-73 -356h229l76 356h203l-74 -356h184zM545 889l-56 -248h232l55 248h-231z" />
    <glyph glyph-name="dollar" unicode="$" horiz-adv-x="1180" 
d="M1092 1124q-57 29 -127 53.5t-154 36.5l-84 -395q158 -71 240 -170t82 -217q0 -85 -25.5 -163.5t-84 -139t-153.5 -99t-235 -42.5l-43 -197h-143l41 201q-52 4 -102 14.5t-95 23.5t-82.5 26.5t-63.5 25.5l54 252q34 -21 75.5 -39.5t86 -33.5t89.5 -26t87 -16l82 383
q-72 35 -133 75t-104.5 89.5t-68 111t-24.5 138.5q0 87 31 163.5t94 134t158.5 92.5t224.5 38l37 176h145l-39 -182q38 -3 77.5 -10t77.5 -17t71.5 -21t58.5 -22zM584 1196.5q-35 -14.5 -58.5 -38t-35 -53.5t-11.5 -63q0 -58 30.5 -94.5t84.5 -70.5l72 335q-47 -1 -82 -15.5
zM778 395q0 22 -5.5 41t-18 36.5t-33 35t-51.5 35.5l-72 -326q47 2 81 18.5t56 41.5t32.5 56t10.5 62z" />
    <glyph glyph-name="percent" unicode="%" horiz-adv-x="1778" 
d="M1686 420q0 -45 -9.5 -95.5t-30 -99.5t-52 -93.5t-76 -78t-102.5 -53.5t-130 -20q-90 0 -151.5 28.5t-99.5 73t-55 99.5t-17 108q0 43 9 92t29.5 98t52 93.5t77 79t105 55t134.5 20.5t134 -22t99.5 -62t61.5 -96.5t21 -126.5zM428 0h-246l1239 1434h246zM893 1149
q0 -69 -22 -146.5t-70.5 -143.5t-124.5 -109t-184 -43q-90 0 -151.5 29t-99.5 74t-54.5 100t-16.5 108q0 43 9.5 92t29.5 97.5t52 93t77 78.5t105 54.5t135 20.5t133.5 -22t99 -61.5t61.5 -96t21 -125.5zM1470 416q0 24 -5.5 48.5t-18 44t-33 32t-51.5 12.5
q-48 0 -82.5 -26.5t-57 -66t-33.5 -85.5t-11 -86q0 -28 7 -52.5t21 -43t35.5 -29t50.5 -10.5q44 0 77 24t55.5 62t34 84.5t11.5 91.5zM678 1143q0 25 -5.5 50t-18 44.5t-33.5 32t-52 12.5q-48 0 -82.5 -26.5t-57 -66t-33.5 -85.5t-11 -86q0 -28 7 -53t21.5 -44t36 -29.5
t50.5 -10.5q44 0 77 24.5t55.5 62.5t34 84.5t11.5 90.5z" />
    <glyph glyph-name="ampersand" unicode="&#x26;" horiz-adv-x="1641" 
d="M1347 -23q-56 0 -101.5 15t-83.5 41.5t-69.5 62t-60.5 75.5q-38 -30 -91.5 -64t-121.5 -63t-150 -48t-177 -19q-115 0 -206.5 29t-155 82.5t-97.5 128.5t-34 168q0 99 38 174t100.5 131.5t143 96t165.5 68.5q-21 18 -42 43.5t-38 57.5t-27.5 70t-10.5 80q0 84 33 149.5
t94 110.5t147.5 68.5t192.5 23.5q90 0 164 -21t126 -60t80.5 -94t28.5 -123q0 -72 -28 -125.5t-73.5 -92.5t-103.5 -66.5t-119 -49.5q32 -16 68 -48.5t70.5 -74t64.5 -88t51 -91.5q61 56 111 121t85 136.5t54.5 148t19.5 155.5q0 10 -0.5 19t-1.5 17h269q3 -22 3 -45
q0 -74 -19 -147.5t-51 -144.5t-74.5 -137.5t-89.5 -126t-96 -110.5t-95 -91q39 -55 82 -78t95 -23q47 0 88.5 9t85.5 24l-42 -244q-41 -14 -90.5 -22t-110.5 -8zM534 221q101 0 201.5 40.5t187.5 109.5q-54 128 -134.5 216.5t-167.5 132.5q-48 -18 -101 -44.5t-96.5 -63.5
t-72 -86t-28.5 -114q0 -42 15.5 -77t43.5 -60.5t67 -39.5t85 -14zM690 955q33 11 71 25t70 35t53.5 50.5t21.5 71.5q0 49 -35 79.5t-88 30.5q-34 0 -66.5 -9t-57 -28t-39.5 -47t-15 -66q0 -48 25 -83.5t60 -58.5z" />
    <glyph glyph-name="quotesingle" unicode="'" horiz-adv-x="600" 
d="M528 1010h-200l-29 442h262z" />
    <glyph glyph-name="parenleft" unicode="(" horiz-adv-x="758" 
d="M740.5 1181q-97.5 -130 -167 -271.5t-107.5 -297t-38 -329.5q0 -75 8.5 -153t25.5 -155.5t43.5 -151t63.5 -138.5h-245q-42 65 -73.5 143.5t-52.5 161t-31.5 166t-10.5 159.5q0 168 36 322t104 294.5t166 266t222 236.5h272q-118 -123 -215.5 -253z" />
    <glyph glyph-name="parenright" unicode=")" horiz-adv-x="758" 
d="M602 803q0 -168 -36 -322t-104.5 -294t-166.5 -265.5t-221 -236.5h-273q118 122 215.5 251.5t167.5 271t108 297t38 329.5q0 75 -8.5 153t-25.5 155.5t-44 151.5t-64 140h246q42 -65 73.5 -143.5t52.5 -161.5t31.5 -166.5t10.5 -159.5z" />
    <glyph glyph-name="asterisk" unicode="*" horiz-adv-x="932" 
d="M682 1016l199 -211l-185 -125l-137 254l-137 -254l-182 125l198 211l-274 37l72 202l249 -108l-43 287h234l-43 -287l252 108l71 -202z" />
    <glyph glyph-name="plus" unicode="+" horiz-adv-x="1450" 
d="M846 485v-385h-203v385h-385v203h385v385h203v-385h385v-203h-385z" />
    <glyph glyph-name="comma" unicode="," horiz-adv-x="555" 
d="M150 -254h-259l232 506h297z" />
    <glyph glyph-name="hyphen" unicode="-" horiz-adv-x="827" 
d="M666 436h-547l47 221h547z" />
    <glyph glyph-name="hyphen" unicode="&#x2010;" horiz-adv-x="827" 
d="M666 436h-547l47 221h547z" />
    <glyph glyph-name="period" unicode="." horiz-adv-x="555" 
d="M383 145q0 -38 -15 -69.5t-40.5 -54t-60 -34.5t-74.5 -12q-39 0 -71.5 11.5t-56.5 32.5t-37.5 49.5t-13.5 62.5q0 38 15 70t41 54.5t61 35t76 12.5q38 0 70.5 -12t56 -33t36.5 -50t13 -63z" />
    <glyph glyph-name="slash" unicode="/" horiz-adv-x="909" 
d="M92 -238h-317l1052 1672h318z" />
    <glyph glyph-name="zero" unicode="0" horiz-adv-x="1180" 
d="M1178 1004q0 -198 -48.5 -393t-134 -338t-207.5 -220.5t-284 -77.5q-195 0 -309.5 130.5t-114.5 359.5q0 252 86.5 490t235 370.5t362.5 132.5q194 0 304 -123t110 -331zM868 1016q0 103 -34 152t-91 49q-96 0 -170.5 -110.5t-129 -318t-54.5 -356.5q0 -106 38.5 -159.5
t98.5 -53.5q96 0 166 115t123 318.5t53 363.5z" />
    <glyph glyph-name="one" unicode="1" horiz-adv-x="1180" 
d="M367 0l243 1143l-319 -66l55 256l647 125l-309 -1458h-317z" />
    <glyph glyph-name="two" unicode="2" horiz-adv-x="1180" 
d="M406 262h563l-55 -262h-909l22 108q32 156 144 290.5t357 283.5q134 83 191.5 134t85 104t27.5 120q0 77 -53.5 121.5t-149.5 44.5q-177 0 -370 -127l63 289q77 40 183.5 65t209.5 25q205 0 318.5 -96.5t113.5 -265.5q0 -116 -35.5 -200.5t-96 -150t-140.5 -119.5
t-169 -108q-154 -94 -222 -152.5t-78 -103.5z" />
    <glyph glyph-name="three" unicode="3" horiz-adv-x="1180" 
d="M1128 1118q0 -149 -100.5 -253t-271.5 -132v-4q126 -24 194 -105.5t68 -203.5q0 -133 -70 -234t-203 -156t-323 -55q-212 0 -387 82l55 256q72 -45 156.5 -70.5t167.5 -25.5q136 0 212 55t76 156q0 186 -278 186h-123l51 242h152q143 0 225 55t82 154q0 74 -53 113
t-148 39q-150 0 -305 -72l55 256q178 57 353 57q195 0 305 -90.5t110 -249.5z" />
    <glyph glyph-name="four" unicode="4" horiz-adv-x="1180" 
d="M1137 1434l-192 -904h202l-50 -236h-202l-62 -294h-288l62 294h-625l52 247q246 222 461 458t349 435h293zM315 530h342l107 501q-175 -232 -449 -501z" />
    <glyph glyph-name="five" unicode="5" horiz-adv-x="1180" 
d="M1123 1176h-527l-61 -287q36 4 67 4q206 0 321.5 -105.5t115.5 -291.5q0 -147 -82 -271t-219.5 -187t-319.5 -63q-102 0 -208.5 20t-159.5 52l55 256q52 -35 144.5 -60.5t164.5 -25.5q97 0 165.5 32.5t106 88t37.5 121.5q0 101 -64 146.5t-200 45.5q-133 0 -250 -16
l172 799h797z" />
    <glyph glyph-name="six" unicode="6" horiz-adv-x="1180" 
d="M1140 1155q-103 62 -241 62q-98 0 -190 -48.5t-163 -156.5t-104 -244h4q54 70 137.5 112t174.5 42q162 0 255 -106t93 -292q0 -146 -66.5 -273t-186 -200.5t-272.5 -73.5q-221 0 -346 142.5t-125 394.5q0 263 105 485.5t288 340.5t412 118q169 0 281 -45zM803 496
q0 92 -44 142t-126 50q-95 0 -155 -74t-60 -182q0 -100 47.5 -154.5t126.5 -54.5q91 0 151 80.5t60 192.5z" />
    <glyph glyph-name="seven" unicode="7" horiz-adv-x="1180" 
d="M496 0h-330q110 291 285.5 579t433.5 597h-668l55 258h1000l-38 -182q-229 -298 -353.5 -487.5t-218.5 -376t-166 -388.5z" />
    <glyph glyph-name="eight" unicode="8" horiz-adv-x="1180" 
d="M39 368q0 157 93 262t271 146q-156 99 -156 269q0 118 61 212t174.5 147.5t275.5 53.5q207 0 328.5 -95.5t121.5 -261.5q0 -140 -87 -237.5t-242 -135.5q211 -94 211 -307q0 -125 -70.5 -227.5t-199.5 -159.5t-297 -57q-151 0 -260.5 49t-166.5 136.5t-57 205.5zM353 390
q0 -86 51.5 -136t138.5 -50q99 0 162 64t63 170q0 81 -49.5 130.5t-132.5 49.5q-109 0 -171 -62t-62 -166zM548 1022q0 -78 43.5 -118t110.5 -40q85 0 142 59t57 142q0 75 -43 117.5t-118 42.5q-88 0 -140 -55t-52 -148z" />
    <glyph glyph-name="nine" unicode="9" horiz-adv-x="1180" 
d="M1155 922q0 -194 -59 -371.5t-165 -306.5t-246.5 -198t-338.5 -69q-94 0 -166 14.5t-110 31.5l45 256q45 -26 114.5 -43t130.5 -17q175 0 293 114.5t170 332.5h-4q-123 -156 -303 -156q-164 0 -262 111t-98 290q0 152 72 284t190.5 198.5t271.5 66.5q215 0 340 -146
t125 -392zM852 999q0 88 -48 150.5t-124 62.5q-94 0 -154.5 -79t-60.5 -193q0 -92 45 -145.5t121 -53.5q97 0 159 73t62 185z" />
    <glyph glyph-name="colon" unicode=":" horiz-adv-x="555" 
d="M537 879q0 -39 -15 -70.5t-41.5 -54t-61.5 -35t-75 -12.5q-38 0 -70.5 12t-56 32.5t-36.5 49t-13 61.5q0 39 14.5 71.5t40 55t61 35t76.5 12.5q38 0 70.5 -12t56 -33t37 -49.5t13.5 -62.5zM383 145q0 -38 -15 -69.5t-40.5 -54t-60 -34.5t-74.5 -12q-39 0 -71.5 11.5
t-56.5 32.5t-37.5 49.5t-13.5 62.5q0 38 15 70t41 54.5t61 35t76 12.5q38 0 70.5 -12t56 -33t36.5 -50t13 -63z" />
    <glyph glyph-name="semicolon" unicode=";" horiz-adv-x="555" 
d="M537 879q0 -39 -15 -70.5t-41.5 -54t-61.5 -35t-75 -12.5q-38 0 -70.5 12t-56 32.5t-36.5 49t-13 61.5q0 39 14.5 71.5t40 55t61 35t76.5 12.5q38 0 70.5 -12t56 -33t37 -49.5t13.5 -62.5zM119 -254h-256l229 506h299z" />
    <glyph glyph-name="less" unicode="&#x3c;" horiz-adv-x="1450" 
d="M229 504v164l934 445v-238l-665 -287v-4l665 -268v-235z" />
    <glyph glyph-name="equal" unicode="=" horiz-adv-x="1450" 
d="M258 700v205h973v-205h-973zM258 266v203h973v-203h-973z" />
    <glyph glyph-name="greater" unicode="&#x3e;" horiz-adv-x="1450" 
d="M307 81v237l668 267v4l-668 286v238l936 -444v-162z" />
    <glyph glyph-name="question" unicode="?" horiz-adv-x="920" 
d="M995 1133q0 -58 -16 -112t-50.5 -105.5t-89.5 -101t-132 -97.5q-51 -31 -85.5 -61t-57 -63.5t-36 -72t-22.5 -86.5h-260q13 65 29 121t41.5 104.5t62.5 90.5t92 79q54 38 93.5 69.5t65 60t38 57t12.5 59.5q0 29 -11 54t-32.5 44t-54 30t-74.5 11q-82 0 -161 -24.5
t-144 -65.5l57 277q31 14 69.5 26.5t81.5 22t88.5 15t90.5 5.5q113 0 190.5 -29.5t125 -77t68.5 -108t21 -122.5zM516 150q0 -39 -15 -70.5t-40.5 -54.5t-60.5 -35.5t-76 -12.5q-38 0 -70.5 12t-56 33t-37 49.5t-13.5 61.5q0 39 14.5 71.5t40.5 55t61 35t77 12.5
q38 0 70 -12t55.5 -33t37 -49.5t13.5 -62.5z" />
    <glyph glyph-name="at" unicode="@" horiz-adv-x="1954" 
d="M1860 811q0 -79 -15.5 -156t-45.5 -147.5t-75 -130.5t-104 -103.5t-132.5 -68.5t-160.5 -25q-61 0 -104 15t-69 38t-38 50t-12 51q0 11 0.5 16.5t3.5 18.5h-6q-53 -90 -121.5 -139.5t-159.5 -49.5q-62 0 -110 25.5t-80.5 70t-49 104.5t-16.5 130q0 67 15 135t44 130.5
t70.5 116.5t95.5 94.5t118.5 63.5t138.5 23q41 0 72.5 -9.5t53.5 -25t36 -35t20 -38.5h4l24 90h226q-11 -37 -27 -92.5t-33.5 -119t-35 -128.5t-31.5 -122t-22.5 -100t-8.5 -61q0 -42 17 -58t51 -16q48 0 94 35t82 94t58 138.5t22 167.5q0 90 -28.5 176.5t-93 153.5
t-170 108t-259.5 41q-152 0 -283.5 -53t-228 -150t-152 -232.5t-55.5 -299.5q0 -115 32.5 -215t103 -174t182.5 -116t270 -42q84 0 160.5 9t139 22.5t108.5 29t71 27.5l-35 -193q-22 -10 -66.5 -22.5t-106 -24t-137 -19t-159.5 -7.5q-191 0 -338 51.5t-247 146t-151.5 227
t-51.5 295.5q0 129 31 247.5t90 221t143.5 185.5t191.5 142.5t234.5 91.5t271.5 32q191 0 331.5 -50.5t232 -138t136 -204t44.5 -248.5zM1171 784q0 57 -30.5 87t-79.5 30q-58 0 -106 -35t-82.5 -90t-53 -123t-18.5 -135q0 -77 30 -118.5t82 -41.5q42 0 80.5 27.5t70.5 74
t57 109.5t40 133q5 22 7.5 43t2.5 39z" />
    <glyph glyph-name="A" unicode="A" horiz-adv-x="1440" 
d="M985 0l-41 319h-514l-168 -319h-364l827 1434h385l205 -1434h-330zM868 1051q-1 16 -1.5 35.5t0 37.5t1.5 32.5t2 21.5h-6q-2 -9 -7 -23t-11.5 -30.5t-15 -34.5t-17.5 -35l-262 -488h369z" />
    <glyph glyph-name="B" unicode="B" horiz-adv-x="1327" 
d="M1296 1110q0 -67 -22 -125t-65.5 -104.5t-107.5 -79.5t-149 -49v-4q68 -10 119 -36.5t85.5 -65.5t51.5 -88t17 -105q0 -97 -38 -179.5t-114 -143.5t-189.5 -95.5t-265.5 -34.5h-569l305 1434h508q117 0 199.5 -24.5t134.5 -68t76 -103t24 -128.5zM956 1047
q0 35 -10.5 62.5t-33.5 46.5t-60 29.5t-90 10.5h-133l-74 -340h152q58 0 104 13.5t78.5 38.5t49.5 60.5t17 78.5zM883 451q0 75 -52 120t-155 45h-170l-82 -378h180q74 0 127 16.5t86.5 45.5t49.5 67.5t16 83.5z" />
    <glyph glyph-name="C" unicode="C" horiz-adv-x="1300" 
d="M1313 1087q-30 16 -64.5 32t-75.5 28.5t-88.5 20.5t-103.5 8q-130 0 -229.5 -44.5t-167.5 -119.5t-103 -174t-35 -209q0 -91 27 -161t77 -117.5t120 -72t157 -24.5q55 0 103 7.5t91 20t81.5 28.5t73.5 34l-68 -305q-74 -31 -163.5 -47.5t-201.5 -16.5q-150 0 -269 44.5
t-201 126.5t-125.5 196.5t-43.5 255.5q0 113 24 220.5t72.5 203t122 175.5t173 138t226 90.5t279.5 32.5q58 0 112 -6t103 -15.5t90.5 -21t73.5 -22.5z" />
    <glyph glyph-name="D" unicode="D" horiz-adv-x="1542" 
d="M1499 854q0 -113 -23 -220.5t-69.5 -202.5t-117.5 -174t-167.5 -136t-219.5 -89t-273 -32h-580l305 1434h504q158 0 277.5 -43t200.5 -119.5t122 -183t41 -234.5zM1157 829q0 80 -22.5 143.5t-69 107.5t-117.5 67.5t-168 23.5h-157l-193 -909h197q122 0 220 40.5t167 115
t106 179t37 232.5z" />
    <glyph glyph-name="E" unicode="E" horiz-adv-x="1085" 
d="M1124 1171h-501l-68 -323h467l-57 -264h-465l-70 -322h535l-56 -262h-860l305 1434h826z" />
    <glyph glyph-name="F" unicode="F" horiz-adv-x="1067" 
d="M1128 1167h-505l-74 -346h465l-58 -266h-464l-117 -555h-326l305 1434h830z" />
    <glyph glyph-name="G" unicode="G" horiz-adv-x="1452" 
d="M1370 1081q-31 21 -72 40.5t-89.5 34t-103 23.5t-112.5 9q-125 0 -225.5 -40.5t-171 -114t-108 -177t-37.5 -229.5q0 -91 25 -163t71.5 -121t112.5 -75t147 -26q54 0 89.5 6.5t64.5 15.5l61 291h-291l55 258h613l-154 -727q-43 -21 -94 -40.5t-111 -35.5t-129 -25.5
t-149 -9.5q-154 0 -275.5 46t-204.5 130t-127 201.5t-44 259.5q0 112 25 218.5t74.5 200.5t124 172.5t174 135t224.5 88t275 31.5q68 0 129.5 -7.5t115.5 -19.5t99.5 -26.5t81.5 -28.5z" />
    <glyph glyph-name="H" unicode="H" horiz-adv-x="1565" 
d="M1290 0h-325l122 580h-589l-123 -580h-326l305 1434h326l-123 -572h590l123 572h325z" />
    <glyph glyph-name="I" unicode="I" horiz-adv-x="649" 
d="M375 0h-326l303 1434h326z" />
    <glyph glyph-name="J" unicode="J" horiz-adv-x="907" 
d="M762 573q-29 -138 -80 -248.5t-128 -188.5t-181.5 -119.5t-241.5 -41.5q-24 0 -55 4t-61.5 10t-57.5 14t-43 15l59 299q15 -12 36 -23.5t44.5 -20t47.5 -14t46 -5.5q113 0 184.5 79.5t106.5 248.5l183 852h325z" />
    <glyph glyph-name="K" unicode="K" horiz-adv-x="1333" 
d="M1434 1348.5q-51 -55.5 -115.5 -123t-136 -141t-136 -141t-115.5 -123t-75 -85.5q13 -33 43 -91.5t68.5 -129t82 -147t82 -147t68.5 -129t43 -91.5h-393q-9 26 -32 75t-53.5 109t-64.5 125.5t-64.5 125.5t-54 108.5t-32.5 74.5q-8 17 -15 38.5t-10 33.5h-4l-145 -690
h-326l305 1434h326l-141 -666h4q11 15 25.5 33t23.5 30q20 25 61.5 72.5t93 106t108.5 122.5t108.5 122.5t92 106t58.5 73.5h395q-24 -30 -75 -85.5z" />
    <glyph glyph-name="L" unicode="L" horiz-adv-x="1049" 
d="M905 0h-856l305 1434h326l-248 -1168h529z" />
    <glyph glyph-name="M" unicode="M" horiz-adv-x="1781" 
d="M1505 0h-290l182 858q30 137 78 307h-8q-14 -32 -29.5 -64t-30.5 -60.5t-28 -51t-23 -36.5l-384 -523h-226l-149 513q-5 15 -9.5 47.5t-4.5 67.5v107h-9q-14 -94 -27.5 -173t-24.5 -133l-183 -859h-291l305 1434h384l147 -498q7 -24 13 -51.5t10 -55t6 -53t2 -45.5h5
q11 22 23.5 49.5t26 56t28.5 55t30 46.5l366 496h416z" />
    <glyph glyph-name="N" unicode="N" horiz-adv-x="1636" 
d="M1362 0h-295l-449 911q-6 12 -13 28t-14 32.5t-13 31.5t-9 27h-6q-5 -37 -11 -83t-17 -91l-183 -856h-303l303 1434h320l430 -877q5 -11 12.5 -26.5t15 -32t14 -32.5t9.5 -28h4q1 15 3 33.5t5 37.5t6.5 37t6.5 32l182 856h305z" />
    <glyph glyph-name="O" unicode="O" horiz-adv-x="1554" 
d="M1511 842q0 -86 -15 -173t-44.5 -168.5t-74 -156.5t-103.5 -137q-50 -53 -109 -96t-128.5 -73t-150.5 -46.5t-175 -16.5q-142 0 -253.5 47t-188.5 129.5t-117.5 195.5t-40.5 245q0 93 16 183.5t48.5 174t81 159t112.5 138.5q50 48 108 86.5t125 66.5t144 43t165 15
q133 0 243.5 -42t189.5 -121.5t123 -194t44 -258.5zM1169 831q0 81 -20.5 145t-58.5 108.5t-92.5 68t-123.5 23.5q-80 0 -152 -37t-128 -103q-34 -40 -60 -92t-44 -110t-27.5 -118.5t-9.5 -119.5q0 -81 20.5 -145t58.5 -107.5t91.5 -66.5t119.5 -23q82 0 156.5 36t130.5 107
q35 42 61 94.5t43 109.5t26 116t9 114z" />
    <glyph glyph-name="P" unicode="P" horiz-adv-x="1290" 
d="M1317 1026q0 -106 -37 -202.5t-115 -169.5t-198 -116.5t-287 -43.5h-201l-104 -494h-326l305 1434h492q122 0 211 -31.5t146.5 -86t85.5 -129t28 -161.5zM975 1004q0 83 -56 132.5t-165 49.5h-127l-95 -447h148q77 0 132.5 21.5t91.5 58t53.5 84.5t17.5 101z" />
    <glyph glyph-name="Q" unicode="Q" horiz-adv-x="1554" 
d="M1169 829q0 81 -19.5 145t-57 109t-91.5 69t-122 24q-81 0 -154 -35.5t-127 -100.5q-36 -43 -63 -95t-45.5 -109.5t-27.5 -118.5t-9 -121q0 -81 20.5 -145t58.5 -107.5t91.5 -66.5t119.5 -23q85 0 160 37.5t127 103.5q34 42 60 94t43.5 108t26.5 115.5t9 116.5zM989 18
q40 -53 78 -87t80 -54t90 -28t107 -8q32 0 74.5 6.5t74.5 18.5l-58 -272q-34 -9 -92 -18t-139 -9q-98 0 -173.5 32t-138.5 87.5t-119 130t-114 160.5q-133 9 -235 60.5t-171.5 133.5t-105.5 189.5t-36 229.5q0 93 16 183.5t48 174.5t80.5 159.5t113.5 139.5q48 45 104 84
t123 67t145.5 44t171.5 16q134 0 244 -42.5t189 -122.5t122 -195t43 -260q0 -128 -33.5 -256t-99.5 -239t-163.5 -196.5t-225.5 -128.5z" />
    <glyph glyph-name="R" unicode="R" horiz-adv-x="1311" 
d="M1305 1069q0 -91 -33 -164.5t-90 -127.5t-133.5 -88t-163.5 -46v-4q62 -20 106 -76t66 -149l100 -414h-346l-78 369q-18 89 -63 134.5t-123 45.5h-55l-117 -549h-326l305 1434h490q125 0 213 -29.5t143 -80t80 -116.5t25 -139zM961 1016q0 83 -49 129.5t-148 46.5h-135
l-86 -399h131q74 0 128 18.5t89 49t52.5 71t17.5 84.5z" />
    <glyph glyph-name="S" unicode="S" horiz-adv-x="1100" 
d="M1067 1102q-31 19 -68.5 37.5t-80 32.5t-89.5 23t-98 9q-57 0 -96 -15.5t-62 -38.5t-33 -49.5t-10 -49.5q0 -33 10.5 -60.5t33 -53t59 -52t88.5 -58.5q68 -42 120.5 -84.5t89.5 -91t56 -105.5t19 -128q0 -41 -9.5 -90t-32.5 -98.5t-63.5 -95.5t-101.5 -81t-146.5 -56.5
t-199.5 -21.5q-64 0 -124.5 8.5t-115 23t-101.5 32.5t-83 37l55 284q37 -27 80.5 -51t91 -42t98.5 -28t103 -10q57 0 97 12.5t65 34.5t36 51t11 62t-10.5 59.5t-34.5 51t-63.5 51t-96.5 59.5q-61 34 -111 73.5t-86 88t-56 108t-20 132.5q0 83 31 163t97 143t168.5 101.5
t244.5 38.5q59 0 114 -6.5t105 -17.5t94 -25t80 -29z" />
    <glyph glyph-name="T" unicode="T" horiz-adv-x="1202" 
d="M1303 1171h-404l-248 -1171h-325l247 1171h-409l57 263h1139z" />
    <glyph glyph-name="U" unicode="U" horiz-adv-x="1481" 
d="M1343 584q-30 -141 -77 -254t-124.5 -192t-192.5 -121t-281 -42q-120 0 -216 33t-163 95.5t-103 152t-36 203.5q0 52 8 114.5t20 116.5l160 744h326l-162 -746q-11 -53 -20 -106t-9 -90q0 -58 17.5 -102.5t49 -74.5t74 -45.5t91.5 -15.5q57 0 106 17t88 56t69 103.5
t50 159.5l182 844h326z" />
    <glyph glyph-name="V" unicode="V" horiz-adv-x="1366" 
d="M739 0h-356l-184 1434h331l97 -992q3 -35 3.5 -71.5t-5.5 -67.5h8q9 29 23.5 65t35.5 78l498 988h356z" />
    <glyph glyph-name="W" unicode="W" horiz-adv-x="2064" 
d="M1550 0h-344l-61 930q-1 15 0.5 36t4 43t5.5 42.5t6 35.5h-4q-5 -16 -12.5 -37t-15.5 -43t-16 -42t-15 -35l-455 -930h-369l-73 1434h340l10 -951q1 -17 -0.5 -39t-4.5 -44t-6 -41.5l-5 -32.5h6q4 15 11 35.5t15.5 43t18 44t16.5 36.5l461 949h342l47 -961
q1 -14 0.5 -32.5t-1.5 -38.5t-3 -39.5t-4 -34.5h4q4 14 10.5 34t14 41t15 41t13.5 35l397 955h338z" />
    <glyph glyph-name="X" unicode="X" horiz-adv-x="1341" 
d="M928 709l284 -709h-366l-144 455q-4 11 -6.5 26t-4 30.5t-2.5 30t-1 23.5h-4q-8 -17 -20.5 -48t-30.5 -56l-344 -461h-400l615 739l-277 695h377l127 -441q3 -12 5.5 -27.5t4 -31.5t2 -30t0.5 -23h5q3 8 8 20.5t12 27.5t14.5 29.5t16.5 26.5l342 449h377z" />
    <glyph glyph-name="Y" unicode="Y" horiz-adv-x="1245" 
d="M776 520l-108 -520h-326l109 514l-258 920h350l114 -545q8 -34 9.5 -63t3.5 -52h2q11 28 24.5 57t28.5 54l350 549h363z" />
    <glyph glyph-name="Z" unicode="Z" horiz-adv-x="1243" 
d="M1350 1253l-910 -991h701l-56 -262h-1155l39 186l922 985h-660l56 263h1102z" />
    <glyph glyph-name="bracketleft" unicode="[" horiz-adv-x="758" 
d="M858 1233h-219l-289 -1358h219l-43 -201h-473l373 1760h473z" />
    <glyph glyph-name="backslash" unicode="\" horiz-adv-x="895" 
d="M516 -238l-346 1672h274l342 -1672h-270z" />
    <glyph glyph-name="bracketright" unicode="]" horiz-adv-x="758" 
d="M332 -326h-471l43 201h215l289 1358h-218l41 201h474z" />
    <glyph glyph-name="asciicircum" unicode="^" horiz-adv-x="1450" 
d="M1053 610l-287 586h-6l-268 -586h-242l430 848h162l452 -848h-241z" />
    <glyph glyph-name="underscore" unicode="_" horiz-adv-x="850" 
d="M-176 -297l24 119h850l-24 -119h-850z" />
    <glyph glyph-name="grave" unicode="`" horiz-adv-x="899" 
d="M551 1186l-260 325h264l209 -325h-213z" />
    <glyph glyph-name="a" unicode="a" horiz-adv-x="1214" 
d="M1044 338q-7 -31 -13.5 -75t-12 -91.5t-9 -93t-3.5 -78.5h-320q0 15 1.5 38.5t3.5 48t4.5 48t4.5 39.5h-4q-29 -39 -60 -75t-69 -63.5t-84.5 -44t-107.5 -16.5q-75 0 -133.5 27t-98.5 78t-61 124.5t-21 166.5q0 47 10.5 115.5t38 144t76.5 150t125.5 134.5t185 97
t255.5 37q57 0 114.5 -4.5t113 -12t107.5 -17.5t97 -20zM778 824.5q-28 2.5 -53 2.5q-69 0 -121 -23t-90.5 -60t-64.5 -84t-41.5 -95.5t-22 -94.5t-6.5 -81q0 -37 7.5 -68.5t23.5 -54.5t39.5 -36t54.5 -13q57 0 101.5 33t78 84.5t56 116t36.5 127.5l53 239q-23 5 -51 7.5z
" />
    <glyph glyph-name="b" unicode="b" horiz-adv-x="1214" 
d="M1153 666q0 -60 -12 -134.5t-41.5 -151.5t-79.5 -149.5t-125.5 -129.5t-179.5 -91.5t-242 -34.5q-58 0 -117.5 7.5t-116 22t-108.5 35t-94 46.5l303 1430h319l-96 -451q-4 -21 -10.5 -48l-13 -54t-12.5 -51.5t-11 -41.5h8q29 39 62 72t72.5 57t85.5 37t100 13
q68 0 124.5 -24t97.5 -72t64 -120t23 -167zM836 631q0 81 -32 128.5t-104 47.5q-48 0 -89.5 -28t-75 -74.5t-58.5 -106.5t-39 -125l-53 -250q22 -11 57.5 -18.5t75.5 -7.5q51 0 94 18.5t78.5 51t62.5 75t45.5 91t28 99.5t9.5 99z" />
    <glyph glyph-name="c" unicode="c" horiz-adv-x="946" 
d="M901 743q-34 26 -88 45t-117 19q-73 0 -132 -34t-100 -88t-63 -121t-22 -132q0 -103 48 -159t144 -56q30 0 62.5 6t64.5 16.5t61.5 23.5t53.5 28l-49 -242q-68 -35 -145 -54.5t-154 -19.5q-100 0 -175.5 31t-126.5 87t-76.5 133.5t-25.5 170.5q0 86 19.5 167.5
t56.5 153.5t91.5 133t125 105t156 68.5t184.5 24.5q46 0 87 -5.5t75 -14t60 -19t42 -19.5z" />
    <glyph glyph-name="d" unicode="d" horiz-adv-x="1214" 
d="M1044 338q-7 -31 -13.5 -75t-12 -91.5t-9 -93t-3.5 -78.5h-320q0 14 1.5 37.5t4 48.5t5 48.5t3.5 37.5h-4q-31 -44 -64.5 -80t-72 -62t-83.5 -40.5t-99 -14.5q-74 0 -132.5 26t-99.5 75.5t-62.5 123t-21.5 167.5q0 135 45 258.5t130.5 217.5t208.5 150t280 56
q40 0 81.5 -4t67.5 -9l103 480h315zM778.5 824q-27.5 3 -53.5 3q-69 0 -121 -23t-90.5 -60.5t-64.5 -85t-41.5 -96t-22 -94t-6.5 -79.5q0 -37 8 -68.5t23.5 -54.5t40 -36t57.5 -13q55 0 98.5 32.5t77 85t56.5 118t38 131.5l51 231q-23 6 -50.5 9z" />
    <glyph glyph-name="e" unicode="e" horiz-adv-x="1065" 
d="M1051 760q0 -79 -33.5 -145t-112 -114t-208.5 -75.5t-324 -30.5q-2 -6 -2 -10.5v-9.5q0 -31 10 -62t34.5 -56t64.5 -40.5t100 -15.5q36 0 78.5 6.5t86.5 19t87.5 30t80.5 38.5l-49 -236q-31 -16 -71 -31t-86.5 -27t-99 -19t-107.5 -7q-116 0 -199 34t-136.5 91.5
t-78.5 134.5t-25 164q0 131 43.5 249t124 207t194 141.5t253.5 52.5q101 0 172 -24t116 -64.5t66 -92.5t21 -108zM750 756q0 37 -27.5 61.5t-77.5 24.5q-44 0 -84.5 -19t-74 -52.5t-57.5 -80t-36 -100.5q180 -2 268.5 41t88.5 125z" />
    <glyph glyph-name="f" unicode="f" horiz-adv-x="768" 
d="M940 1270q-28 11 -61.5 19.5t-65.5 8.5q-71 0 -109 -39t-57 -122l-24 -113h233l-49 -233h-238l-243 -1131h-316l242 1131h-174l51 233h172l33 147q42 187 156.5 278t310.5 91q51 0 102.5 -8t85.5 -19z" />
    <glyph glyph-name="g" unicode="g" horiz-adv-x="1214" 
d="M999 123q-28 -134 -75 -245t-127 -190.5t-201 -124t-297 -44.5q-97 0 -179 20.5t-153 54.5l56 254q63 -42 138 -69t158 -27q78 0 136.5 21t101 62t70.5 101.5t45 139.5l18 90h-4q-26 -39 -57 -73.5t-68.5 -60.5t-83 -41.5t-102.5 -15.5q-78 0 -136.5 28.5t-98 79.5
t-59.5 122t-20 157t18.5 170.5t55.5 161t93 141.5t130.5 112.5t167.5 74.5t205 27q62 0 123.5 -4.5t120 -12t111.5 -17t98 -18.5zM775.5 824.5q-30.5 2.5 -64.5 2.5q-69 0 -129.5 -34t-105.5 -93t-71 -139t-26 -172q0 -37 7.5 -68.5t23.5 -54.5t39.5 -36t54.5 -13
q40 0 73.5 16t61 43.5t49 63.5t38.5 76t29.5 81t20.5 78l53 242q-23 5 -53.5 7.5z" />
    <glyph glyph-name="h" unicode="h" horiz-adv-x="1225" 
d="M1151 780q0 -15 -3 -40t-7.5 -52t-9.5 -52.5t-9 -43.5l-125 -592h-317l123 584q6 32 12 66t6 52q0 50 -25.5 77.5t-74.5 27.5q-39 0 -82.5 -24.5t-82.5 -65.5t-70 -96t-44 -117l-106 -504h-320l322 1516h319l-147 -689h4q37 48 81.5 88.5t94 70t102 46.5t103.5 17
q125 0 190.5 -69.5t65.5 -199.5z" />
    <glyph glyph-name="i" unicode="i" horiz-adv-x="650" 
d="M639 1354q0 -39 -15 -70t-40.5 -53.5t-60 -34.5t-74.5 -12q-38 0 -70.5 11.5t-56 32t-37 48.5t-13.5 61q0 39 14.5 70t40 53.5t60.5 34.5t76 12q38 0 70 -11.5t55.5 -32t37 -48.5t13.5 -61zM535 9q-18 -5 -41.5 -10t-50 -9.5t-55 -7t-56.5 -2.5q-67 0 -114.5 17.5
t-78.5 49t-45.5 75t-14.5 95.5q0 22 2.5 49t6.5 56.5t9.5 60t11.5 58.5q4 17 13.5 62.5t22 104.5t26.5 124.5t26.5 124.5t22 104.5t13.5 62.5h320l-122 -576q-8 -35 -17 -78.5t-9 -75.5q0 -38 24 -53t55 -15q26 0 52.5 5.5t48.5 14.5q-13 -60 -25 -118.5t-25 -118.5z" />
    <glyph glyph-name="j" unicode="j" horiz-adv-x="538" 
d="M639 1354q0 -39 -15 -70t-40.5 -53.5t-60 -34.5t-74.5 -12q-38 0 -70.5 11.5t-56 32t-37 48.5t-13.5 61q0 39 14.5 70t40 53.5t60.5 34.5t76 12q38 0 70 -11.5t55.5 -32t37 -48.5t13.5 -61zM346 53q-23 -108 -61.5 -205t-101 -170t-152.5 -116t-215 -43q-44 0 -88 9
t-72 23l51 242q9 -6 21.5 -12t27 -10.5t29.5 -7.5t27 -3q75 0 127 61t81 199l213 1004h320z" />
    <glyph glyph-name="k" unicode="k" horiz-adv-x="1151" 
d="M764 541l264 -541h-352l-225 532h-5l-112 -532h-318l322 1516h319l-200 -936h4l407 444h375z" />
    <glyph glyph-name="l" unicode="l" horiz-adv-x="650" 
d="M535 9q-18 -5 -41.5 -10t-50 -9.5t-55 -7t-56.5 -2.5q-67 0 -114.5 17.5t-78.5 49t-45.5 75t-14.5 95.5q0 22 2.5 49t6.5 56.5t9.5 60t11.5 58.5q3 13 13.5 63.5t26.5 124.5t35 164.5t39.5 185t39.5 185t35 164.5t26.5 124.5t13.5 63.5h320l-227 -1068q-8 -35 -17 -78.5
t-9 -75.5q0 -38 24 -53t55 -15q26 0 52.5 5.5t48.5 14.5q-13 -60 -25 -118.5t-25 -118.5z" />
    <glyph glyph-name="m" unicode="m" horiz-adv-x="1866" 
d="M1792 780q0 -15 -3 -40t-7.5 -52t-9.5 -52.5t-9 -43.5l-125 -592h-317l125 584q6 32 12 66t6 52q0 50 -24 77.5t-74 27.5q-38 0 -81 -26t-81.5 -68t-68 -96t-41.5 -111l-105 -506h-319l125 584q6 32 12 66t6 52q0 50 -24.5 77.5t-73.5 27.5q-39 0 -82 -26t-81 -68.5
t-67 -96.5t-41 -110l-108 -506h-320l152 702q9 46 18 92.5t16 89t12.5 79t8.5 61.5h312q-3 -28 -6.5 -58.5t-7 -58.5t-6.5 -49.5t-5 -30.5h4q37 48 80.5 88.5t91.5 70t99 46.5t102 17q120 0 181 -62t71 -172q38 52 83 95t96 74t106 48t112 17q127 0 191.5 -69.5t64.5 -199.5
z" />
    <glyph glyph-name="n" unicode="n" horiz-adv-x="1225" 
d="M1151 780q0 -15 -3 -40t-7.5 -52t-9.5 -52.5t-9 -43.5l-125 -592h-317l123 584q6 32 12 66t6 52q0 48 -24.5 76.5t-73.5 28.5q-41 0 -85.5 -25.5t-83.5 -67.5t-68.5 -96.5t-41.5 -111.5l-106 -506h-322l152 702q9 46 18 92.5t16 89t12.5 79t8.5 61.5h312
q-3 -28 -6.5 -58.5t-7 -58.5t-6.5 -49.5t-5 -30.5h4q35 46 79 86.5t93.5 70.5t102.5 47.5t106 17.5q127 0 191.5 -70.5t64.5 -198.5z" />
    <glyph glyph-name="o" unicode="o" horiz-adv-x="1178" 
d="M1116 618q0 -71 -14 -146t-44 -146.5t-77.5 -135.5t-115 -111.5t-156 -75.5t-201.5 -28q-114 0 -198.5 33t-139.5 91t-82 137.5t-27 171.5q0 74 15 150.5t46.5 147.5t80.5 133.5t117 109t155.5 73.5t196.5 27q107 0 189.5 -30.5t139 -87t86 -136t29.5 -177.5zM797 614
q0 42 -10 77.5t-29.5 61t-47.5 40t-65 14.5q-63 0 -112.5 -36t-83.5 -93t-52 -128t-18 -142q0 -91 42.5 -141t110.5 -50q65 0 114.5 35t83 91.5t50.5 127.5t17 143z" />
    <glyph glyph-name="p" unicode="p" horiz-adv-x="1214" 
d="M1153 670q0 -84 -18 -168.5t-53.5 -162t-89.5 -144t-126 -115.5t-162.5 -77t-199.5 -28q-40 0 -88 6t-82 15l-101 -467h-319l246 1157q6 31 14 76.5t15 93.5t13 93t7 75h311q-1 -15 -3 -38.5t-5 -48.5t-6.5 -48.5t-5.5 -38.5h4q28 42 63 78t77.5 63t93 42.5t108.5 15.5
q68 0 124.5 -25t97 -73.5t63 -119t22.5 -161.5zM836 633q0 35 -6.5 66.5t-22.5 55.5t-41.5 38t-63.5 14q-56 0 -101 -32.5t-79 -84t-57.5 -115t-36.5 -126.5l-53 -234q12 -4 28.5 -7t34 -5.5t34.5 -4t30 -1.5q74 0 135.5 36.5t105.5 97t68.5 139.5t24.5 163z" />
    <glyph glyph-name="q" unicode="q" horiz-adv-x="1214" 
d="M872 -471h-317l90 430q5 21 11.5 48.5t13 55.5t13.5 53t11 42h-4q-28 -39 -61.5 -72.5t-72 -58t-83.5 -38.5t-96 -14q-75 0 -133.5 26.5t-99 77.5t-62 124t-21.5 166q0 63 13.5 138t44.5 150.5t82.5 146t127.5 125t178.5 87.5t235.5 33q74 0 139.5 -6t121.5 -15.5
t101 -20.5t77 -20zM777 823q-27 4 -58 4q-63 0 -113 -21.5t-88 -57.5t-64.5 -82t-43 -94t-24 -94.5t-7.5 -84.5t7 -70.5t22.5 -56t39.5 -36.5t58 -13q40 0 73 15.5t60 42t48.5 61.5t38 73t28.5 77.5t20 74.5l53 252q-23 6 -50 10z" />
    <glyph glyph-name="r" unicode="r" horiz-adv-x="819" 
d="M831 733h-2q-21 11 -53.5 20t-60.5 9q-59 0 -106 -26.5t-83 -71.5t-60.5 -105.5t-39.5 -128.5l-90 -430h-320l140 653q10 47 19.5 97t18 98.5t15 93.5t10.5 82h313q-3 -29 -6.5 -60t-7 -59.5t-7 -51.5t-5.5 -36h4q62 115 130.5 173.5t158.5 58.5q26 0 51 -5t45 -8z" />
    <glyph glyph-name="s" unicode="s" horiz-adv-x="899" 
d="M817 768q-21 11 -49 22t-59.5 20t-64.5 15t-64 6q-73 0 -104.5 -28t-31.5 -68q0 -41 31 -67t82 -52q60 -29 105 -58t75 -64t45 -78.5t15 -100.5q0 -61 -25 -122t-81 -109.5t-147.5 -78.5t-224.5 -30q-38 0 -81 4t-85 11t-80.5 17t-68.5 22l47 241q26 -14 60 -28
t72.5 -25.5t79.5 -19t81 -7.5q75 0 111.5 26t36.5 71q0 38 -28 66.5t-97 60.5q-57 27 -100.5 56t-73.5 64t-45 78t-15 97q0 57 22.5 117.5t74.5 110t137.5 81t210.5 31.5q38 0 78 -3.5t78 -9.5t72 -14t60 -16z" />
    <glyph glyph-name="t" unicode="t" horiz-adv-x="768" 
d="M776 791h-239l-82 -383q-2 -13 -5 -28t-5.5 -30t-4.5 -28.5t-2 -22.5q0 -40 20 -59t66 -19q12 0 30.5 3t38 8t37.5 10.5t29 9.5l-49 -234q-18 -7 -44 -14t-57 -13t-64.5 -10t-65.5 -4q-76 0 -127 19.5t-81.5 54t-43 80.5t-12.5 100q0 16 2 37t5.5 43t8 44.5t8.5 41.5
l82 394h-158l56 233h151l52 240l333 82l-67 -322h243z" />
    <glyph glyph-name="u" unicode="u" horiz-adv-x="1225" 
d="M1051 340q-9 -45 -17 -93.5t-14 -93.5t-10 -84.5t-6 -68.5h-320q3 29 6.5 59t7.5 56.5t7 47.5t4 30h-4q-39 -49 -83.5 -89t-93 -68.5t-100 -44.5t-104.5 -16q-127 0 -192.5 70.5t-65.5 198.5q0 15 3 40t7.5 52t9 52.5t8.5 43.5l125 592h318l-123 -578q-4 -16 -7.5 -34
t-6 -35t-4 -31t-1.5 -22q0 -44 24 -70.5t70 -26.5q50 0 97 28t85 73t65.5 101t39.5 112l103 483h319z" />
    <glyph glyph-name="v" unicode="v" horiz-adv-x="1092" 
d="M602 0h-352l-135 1024h315l41 -567q2 -19 3.5 -46t2.5 -56t1.5 -57.5t-1.5 -49.5h4q8 21 19 46.5t23 53t24.5 55t23.5 52.5l275 569h348z" />
    <glyph glyph-name="w" unicode="w" horiz-adv-x="1628" 
d="M1200 0h-328l-24 606q0 31 2.5 69t5.5 62h-4q-4 -15 -9.5 -32t-12 -35t-13 -34.5t-12.5 -29.5l-285 -606h-334l-69 1024h303v-666q0 -23 -2.5 -58t-7.5 -58h6q4 10 9.5 26t11.5 33.5t12 34.5t12 29l311 659h305l19 -664q0 -11 -0.5 -28t-2 -34.5t-3 -33t-3.5 -24.5h7
q3 10 8 26t11 34t12 34t10 26l268 664h307z" />
    <glyph glyph-name="x" unicode="x" horiz-adv-x="1122" 
d="M780 514l228 -514h-351l-92 268q-8 23 -15 49.5t-13 51.5h-5q-15 -25 -30 -51t-31 -46l-203 -272h-372l456 518l-219 506h352l84 -270q10 -26 17 -56.5t10 -50.5h4q12 22 32 51.5t36 51.5l200 274h359z" />
    <glyph glyph-name="y" unicode="y" horiz-adv-x="1102" 
d="M551 -90q-51 -89 -105.5 -161.5t-118.5 -123.5t-141.5 -78.5t-175.5 -27.5q-34 0 -81.5 6.5t-88.5 21.5l54 244q21 -15 52 -23t62 -8q59 0 110 27.5t89 89.5l82 129l-199 1018h332l72 -623q3 -34 4 -73t-2 -64h4q9 25 23 62t34 75l313 623h332z" />
    <glyph glyph-name="z" unicode="z" horiz-adv-x="995" 
d="M1026 864l-606 -631h475l-49 -233h-930l27 133l645 658h-453l49 233h877z" />
    <glyph glyph-name="braceleft" unicode="{" horiz-adv-x="758" 
d="M821 1245q-43 0 -75 -9.5t-56 -31t-40 -56t-27 -85.5l-54 -248q-24 -112 -76.5 -189t-134.5 -102v-4q41 -23 69 -70.5t28 -121.5q0 -53 -13 -115l-47 -215q-5 -19 -6.5 -36.5t-1.5 -31.5q0 -114 129 -114l-39 -187q-99 0 -165.5 21.5t-106.5 59t-57 87.5t-17 107
q0 26 4 54.5t10 59.5l52 238q5 19 6.5 35.5t1.5 32.5q0 62 -33 92t-90 30l41 187q78 0 123.5 39.5t62.5 126.5l53 252q19 87 47.5 149t65 105t80.5 68t93 39t102.5 18t109.5 4z" />
    <glyph glyph-name="bar" unicode="|" horiz-adv-x="668" 
d="M229 -481v2048h252v-2048h-252z" />
    <glyph glyph-name="braceright" unicode="}" horiz-adv-x="758" 
d="M633 434q-81 0 -125.5 -40.5t-63.5 -125.5l-53 -252q-18 -87 -47 -150t-65.5 -105.5t-80 -68t-93 -39.5t-102.5 -18t-109 -4l40 189q42 0 74.5 10t56.5 31.5t40.5 56.5t27.5 86l51 248q25 111 77.5 188.5t133.5 102.5v4q-40 23 -68 70t-28 122q0 25 3 53t11 62l45 213
q5 19 7 36.5t2 31.5q0 114 -129 114l38 187q99 0 166 -21t107 -57.5t57 -86t17 -106.5q0 -26 -3.5 -57t-11.5 -61l-51 -236q-5 -19 -6.5 -35.5t-1.5 -32.5q0 -63 33 -94t90 -31z" />
    <glyph glyph-name="asciitilde" unicode="~" horiz-adv-x="1450" 
d="M1244 624q-22 -67 -62 -115t-97 -74.5t-129 -26.5q-39 0 -71.5 6.5t-63 18t-60.5 28t-65 35.5q-37 21 -76 42t-79 21q-33 0 -56.5 -13t-39 -35.5t-23 -51t-8.5 -60.5h-207q3 75 23 141t58.5 116t97 79t138.5 29q38 0 70 -6t60.5 -16.5t55 -24.5t52.5 -29q30 -18 54 -32.5
t45 -24.5t40.5 -15.5t40.5 -5.5q28 0 50 12.5t37.5 34t24 51.5t9.5 64h205q-2 -81 -24 -148z" />
    <glyph glyph-name="uni00A0" unicode="&#xa0;" horiz-adv-x="563" 
 />
    <glyph glyph-name="exclamdown" unicode="&#xa1;" horiz-adv-x="709" 
d="M606 895q0 -37 -14.5 -68.5t-40 -54t-60 -35t-75.5 -12.5q-38 0 -70.5 11.5t-56.5 32.5t-37.5 49.5t-13.5 62.5q0 38 15 70t40.5 54.5t61 35t75.5 12.5q38 0 70.5 -11.5t56 -32.5t36.5 -50t13 -64zM324 -403h-330l248 989h256z" />
    <glyph glyph-name="cent" unicode="&#xa2;" horiz-adv-x="1180" 
d="M1065 911q-28 23 -71.5 39.5t-94.5 24.5l-123 -576q54 8 104 25.5t97 46.5l-53 -246q-38 -23 -88 -40t-109 -25l-43 -197h-162l41 189q-95 7 -168 40.5t-122 88.5t-74 129t-25 161q0 174 68.5 307.5t185.5 221.5q74 54 168 85t195 36l43 200h161l-45 -207
q57 -8 101 -20.5t67 -28.5zM580 883q-47 -48 -73 -117t-26 -154q0 -42 10.5 -75t28.5 -58t43 -42t55 -27l119 559q-94 -23 -157 -86z" />
    <glyph glyph-name="sterling" unicode="&#xa3;" horiz-adv-x="1180" 
d="M1135 1143q-16 13 -38 25t-48 21t-54 14t-57 5q-91 0 -149 -57t-82 -178l-29 -144h262l-47 -217h-262l-23 -102q-18 -88 -69.5 -155.5t-128.5 -110.5h626l-51 -244h-973l49 229q110 26 168.5 91t81.5 172l27 120h-174l45 217h174l39 183q21 100 67 182t114.5 140.5
t158.5 91t199 32.5q72 0 133 -15t96 -34z" />
    <glyph glyph-name="currency" unicode="&#xa4;" horiz-adv-x="1139" 
d="M1087 358l-141 -145l-143 141q-107 -65 -234 -65t-233 65l-143 -141l-142 145l142 138q-66 109 -66 229q0 122 66 229l-142 140l142 145l143 -141q106 65 233 65t234 -65l143 141l141 -145l-141 -140q68 -110 68 -229q0 -117 -68 -229zM811 727q0 99 -73.5 168.5
t-168.5 69.5q-99 0 -169 -69.5t-70 -168.5t70 -168.5t169 -69.5q100 0 171 70t71 168z" />
    <glyph glyph-name="yen" unicode="&#xa5;" horiz-adv-x="1180" 
d="M860 793h250l-39 -189h-305l-33 -153h305l-39 -189h-305l-57 -262h-307l55 262h-313l39 189h313l35 153h-316l41 189h256l-207 641h314l106 -490q8 -29 13 -48t8 -38h4q11 20 24.5 41t30.5 49l307 486h310z" />
    <glyph glyph-name="brokenbar" unicode="&#xa6;" horiz-adv-x="668" 
d="M229 684v883h252v-883h-252zM229 -481v895h252v-895h-252z" />
    <glyph glyph-name="section" unicode="&#xa7;" horiz-adv-x="995" 
d="M950 1219q-23 14 -53.5 27t-64.5 23t-68 15.5t-64 5.5q-33 0 -61.5 -6t-49 -18t-32.5 -31.5t-12 -46.5q0 -31 13.5 -54t37 -42t56 -36.5t69.5 -37.5q106 -57 157.5 -122.5t51.5 -156.5q0 -61 -22.5 -111t-55.5 -87.5t-70.5 -63.5t-68.5 -41q26 -35 42.5 -76.5t16.5 -91.5
q0 -64 -25.5 -123.5t-78 -105.5t-133 -74t-189.5 -28q-40 0 -84.5 5t-87.5 14t-80.5 22t-62.5 28l49 221q25 -17 57.5 -33t69.5 -28t76 -19.5t77 -7.5q43 0 74 9.5t51 24.5t29.5 34.5t9.5 40.5q0 31 -16.5 55.5t-42 45.5t-57.5 38.5t-64 34.5q-37 21 -71 48t-59.5 61
t-40.5 74.5t-15 88.5q0 63 20 110t50.5 81t67 57.5t69.5 38.5q-28 37 -49 80t-21 100q0 81 32.5 143t89.5 103.5t133.5 62.5t164.5 21q32 0 68.5 -3.5t73.5 -10t72 -17t64 -24.5zM690 694q0 16 -4 32t-17 33.5t-37.5 37t-66.5 41.5q-17 9 -32.5 18.5t-36.5 22.5
q-42 -19 -72.5 -54t-30.5 -80q0 -24 4.5 -42t17.5 -35t36.5 -34.5t60.5 -39.5q17 -11 36.5 -21t39.5 -24q20 10 38.5 24.5t32.5 33.5t22.5 41t8.5 46z" />
    <glyph glyph-name="dieresis" unicode="&#xa8;" horiz-adv-x="899" 
d="M989 1325q0 -29 -10.5 -54.5t-30.5 -44t-48.5 -29.5t-63.5 -11t-63.5 11t-48.5 30t-31 44.5t-11 53.5q0 30 11.5 55t32.5 42.5t49 27.5t61 10q34 0 62 -10t48.5 -28t31.5 -43t11 -54zM532 1325q0 -29 -11 -54.5t-31 -44t-48 -29.5t-63 -11q-34 0 -63 11t-49.5 30
t-32 44.5t-11.5 53.5q0 30 12 55t33 42.5t49.5 27.5t61.5 10q34 0 62 -10t48.5 -28t31.5 -43t11 -54z" />
    <glyph glyph-name="copyright" unicode="&#xa9;" horiz-adv-x="1792" 
d="M1698 719q0 -106 -27 -202.5t-76 -179t-119 -149.5t-155 -114.5t-184 -73t-207 -25.5q-166 0 -306 54.5t-241 152.5t-158 233.5t-57 297.5q0 104 26 200t75 178.5t117.5 150t154.5 116t186 74.5t211 26q159 0 297.5 -53t241.5 -150t162 -233t59 -303zM1565 715
q0 137 -48 252t-133 198.5t-200.5 130.5t-249.5 47q-141 0 -258 -49t-200 -134t-129 -199.5t-46 -245.5q0 -139 49.5 -254.5t135 -199t201 -129.5t247.5 -46q129 0 243.5 47t201 130.5t136.5 199t50 252.5zM1119 247q-69 -20 -152 -20q-105 0 -194 36t-153.5 99
t-100.5 148.5t-36 185.5q0 119 39.5 213.5t109 160.5t164 101t203.5 35q73 0 134 -16.5t106 -38.5v-236q-42 35 -107 55.5t-137 20.5q-50 0 -98.5 -17t-86.5 -52t-61.5 -88t-23.5 -125q0 -64 22 -115t60 -86t88 -53.5t106 -18.5q32 0 65 5.5t64.5 15.5t60 24t50.5 31v-217
q-53 -28 -122 -48z" />
    <glyph glyph-name="ordfeminine" unicode="&#xaa;" horiz-adv-x="961" 
d="M909 952q-4 -21 -9 -52.5t-9.5 -64.5t-7 -65t-2.5 -55h-238q0 11 1 27t2.5 33.5t3.5 34t3 28.5h-4q-45 -62 -107 -102t-143 -40q-48 0 -88.5 16.5t-69.5 51t-45 87t-16 124.5q0 32 7.5 80t27.5 101.5t55 106.5t90 95.5t133 69t183 26.5q40 0 84.5 -3t89 -8.5t85.5 -12
t73 -13.5zM702.5 1291.5q-21.5 2.5 -38.5 2.5q-46 0 -82 -15.5t-63.5 -40.5t-46 -57.5t-30.5 -65.5t-17 -65t-5 -57q0 -52 21 -87.5t69 -35.5q40 0 72.5 25t57 62.5t41.5 82t26 84.5l34 160q-17 5 -38.5 7.5z" />
    <glyph glyph-name="guillemotleft" unicode="&#xab;" horiz-adv-x="1200" 
d="M821 520l248 -323h-262l-256 340l373 340h284zM326 520l247 -323h-260l-258 340l375 340h283z" />
    <glyph glyph-name="logicalnot" unicode="&#xac;" horiz-adv-x="1450" 
d="M1016 266v389h-772v203h975v-592h-203z" />
    <glyph glyph-name="uni00AD" unicode="&#xad;" horiz-adv-x="827" 
d="M666 436h-547l47 221h547z" />
    <glyph glyph-name="registered" unicode="&#xae;" horiz-adv-x="1790" 
d="M892 255q-266 0 -437.5 172t-171.5 431q0 254 176.5 425t439.5 171q262 0 435 -166.5t167 -429.5q0 -254 -174.5 -428.5t-434.5 -174.5zM893 1344q-214 0 -353.5 -139.5t-139.5 -349.5q0 -212 141.5 -351t351.5 -139q207 0 349 140t142 349q0 212 -140 351t-351 139z
M1208 499h-208l-61 186q-32 97 -88 97h-48v-283h-175v738h256q296 0 296 -210q0 -151 -173 -195v-3q72 -16 113 -117zM803 1093v-178h78q111 0 111 92q0 86 -128 86h-61z" />
    <glyph glyph-name="macron" unicode="&#xaf;" horiz-adv-x="899" 
d="M869 1186h-586l37 172h586z" />
    <glyph glyph-name="degree" unicode="&#xb0;" horiz-adv-x="778" 
d="M811 1178q0 -59 -22.5 -110.5t-61.5 -90t-90.5 -60.5t-110.5 -22t-110.5 22t-90 60.5t-61 90t-22.5 110.5t22.5 110t61 89t90 59.5t110.5 21.5t110.5 -21.5t90.5 -59.5t61.5 -89t22.5 -110zM655 1178q0 27 -10.5 50.5t-28 41t-41 27.5t-49.5 10q-27 0 -50.5 -10
t-41 -27.5t-27.5 -41t-10 -50.5q0 -26 10 -50t27.5 -42t41 -28.5t50.5 -10.5q26 0 49.5 10.5t41 28.5t28 42t10.5 50z" />
    <glyph glyph-name="plusminus" unicode="&#xb1;" horiz-adv-x="1450" 
d="M840 694v-387h-203v387h-383v203h383v391h203v-391h387v-203h-387zM252 0v203h971v-203h-971z" />
    <glyph glyph-name="uni00B2" unicode="&#xb2;" horiz-adv-x="846" 
d="M174 884l33 157l301 236q74 57 115.5 107t41.5 104q0 35 -25.5 55.5t-68.5 20.5q-28 0 -56.5 -6.5t-57 -17.5t-55 -25t-50.5 -29l47 207q40 23 103 42t139 19q65 0 114 -17.5t81.5 -48.5t48.5 -73t16 -90q0 -56 -21.5 -103.5t-60 -91t-90.5 -85t-113 -85.5l-131 -94
l-2 -4h336l-39 -178h-606z" />
    <glyph glyph-name="uni00B3" unicode="&#xb3;" horiz-adv-x="846" 
d="M846 1127q0 -44 -19 -91t-63 -85.5t-116 -63t-179 -24.5q-34 0 -73 3.5t-76 10t-68 15t-50 18.5l39 176q16 -10 42 -19.5t56.5 -17.5t63.5 -13t64 -5q44 0 75 9t50.5 24.5t28.5 35t9 40.5q0 44 -36.5 68t-126.5 24h-105l37 168h107q42 0 75 9t55.5 24t34 34.5t11.5 40.5
q0 35 -28.5 56.5t-90.5 21.5q-51 0 -102.5 -13.5t-92.5 -33.5l39 176q42 16 103.5 27.5t124.5 11.5q60 0 109.5 -14.5t84 -41.5t53.5 -66t19 -87q0 -42 -15 -77.5t-42.5 -64t-65.5 -48.5t-84 -31v-4q74 -17 113 -66t39 -127z" />
    <glyph glyph-name="acute" unicode="&#xb4;" horiz-adv-x="899" 
d="M610 1186h-235l315 325h289z" />
    <glyph glyph-name="mu" unicode="&#xb5;" horiz-adv-x="1262" 
d="M705 193q-31 -46 -66 -85.5t-76 -69t-88.5 -46.5t-104.5 -17q-15 0 -34 1.5t-22 2.5q-12 -56 -26 -120t-26 -120q-14 -65 -28 -129h-308l293 1414h318l-119 -555q-3 -14 -6.5 -32t-6.5 -35.5t-5 -32t-2 -22.5q0 -27 3.5 -49.5t13 -38t27.5 -24t47 -8.5q48 0 94 27t85 72
t68.5 105t43.5 126l99 467h319l-126 -587q-7 -32 -11.5 -69.5t-4.5 -57.5q0 -35 21.5 -53.5t54.5 -18.5q15 0 31.5 2.5t33.5 7.5l-52 -240q-20 -5 -38.5 -9.5t-41.5 -7.5t-54.5 -5t-77.5 -2q-58 0 -100.5 13.5t-70 38.5t-41 59t-13.5 75q0 3 0.5 7t0.5 8v8h-4z" />
    <glyph glyph-name="paragraph" unicode="&#xb6;" horiz-adv-x="1042" 
d="M877 1272v-1272h-177v1272h-116v-1272h-176v836q-57 3 -106 26.5t-85.5 63.5t-57 94.5t-20.5 118.5q0 67 23.5 121.5t64 93t94.5 59.5t115 21h557v-162h-116z" />
    <glyph glyph-name="periodcentered" unicode="&#xb7;" horiz-adv-x="555" 
d="M492 659q0 -38 -15 -70t-41 -54.5t-61 -35t-76 -12.5q-37 0 -69.5 11.5t-56 32.5t-37 49.5t-13.5 62.5q0 38 14.5 70t40 54.5t61 35t76.5 12.5q38 0 70.5 -11.5t56 -32.5t37 -49.5t13.5 -62.5z" />
    <glyph glyph-name="cedilla" unicode="&#xb8;" horiz-adv-x="899" 
d="M528 -229q0 -45 -20 -86t-62 -72.5t-105.5 -50.5t-150.5 -19q-30 0 -57.5 2t-52.5 4l31 138q42 -9 75 -9q66 0 103 21.5t37 56.5q0 64 -111 64h-22t-25 -2l43 182h154l-19 -82q40 -2 73.5 -11.5t57.5 -27.5t37.5 -45t13.5 -63z" />
    <glyph glyph-name="uni00B9" unicode="&#xb9;" horiz-adv-x="774" 
d="M180 884l37 174h174l104 475l-200 -41l39 180l421 82l-149 -696h172l-37 -174h-561z" />
    <glyph glyph-name="ordmasculine" unicode="&#xba;" horiz-adv-x="934" 
d="M977 1135q0 -88 -31 -168t-88.5 -140t-140.5 -95.5t-187 -35.5q-86 0 -153 24.5t-113.5 69t-71 106.5t-24.5 136q0 84 31 160t88.5 134.5t139 93t181.5 34.5q101 0 171 -26t114 -70.5t64 -102t20 -120.5zM737 1122q0 69 -34.5 113.5t-108.5 44.5q-41 0 -75.5 -19.5
t-59.5 -53.5t-39 -81t-14 -102q0 -71 38 -112.5t101 -41.5q48 0 84 23t60 59.5t36 81.5t12 88z" />
    <glyph glyph-name="guillemotright" unicode="&#xbb;" horiz-adv-x="1200" 
d="M770 201h-283l387 356l-247 324h260l258 -340zM276 201h-284l387 356l-248 324h262l256 -340z" />
    <glyph glyph-name="onequarter" unicode="&#xbc;" horiz-adv-x="1946" 
d="M125 584l37 174h174l104 475l-200 -41l39 180l421 82l-149 -696h172l-37 -174h-561zM504 0h-244l1196 1434h244zM1667 177l-39 -176h-213l37 176h-401l30 152l453 522h276l-110 -518h110l-32 -156h-111zM1565 693q-11 -17 -27 -37t-29 -37l-237 -286h215l57 278
q5 19 12 40.5t13 41.5h-4z" />
    <glyph glyph-name="onehalf" unicode="&#xbd;" horiz-adv-x="1974" 
d="M139 584l37 174h174l104 475l-200 -41l39 180l421 82l-149 -696h172l-37 -174h-561zM514 0h-244l1196 1434h244zM1133 1l33 157l301 236q74 57 115.5 107t41.5 104q0 35 -25.5 55.5t-68.5 20.5q-28 0 -56.5 -6.5t-57 -17.5t-55 -25t-50.5 -29l47 207q40 23 103 42t139 19
q65 0 114 -17.5t81.5 -48.5t48.5 -73t16 -90q0 -56 -21.5 -103.5t-60 -91t-90.5 -85t-113 -85.5l-131 -94l-2 -4h336l-39 -178h-606z" />
    <glyph glyph-name="threequarters" unicode="&#xbe;" horiz-adv-x="2005" 
d="M753 827q0 -44 -19 -91t-63 -85.5t-116 -63t-179 -24.5q-34 0 -73 3.5t-76 10t-68 15t-50 18.5l39 176q16 -10 42 -19.5t56.5 -17.5t63.5 -13t64 -5q44 0 75 9t50.5 24.5t28.5 35t9 40.5q0 44 -36.5 68t-126.5 24h-105l37 168h107q42 0 75 9t55.5 24t34 34.5t11.5 40.5
q0 35 -28.5 56.5t-90.5 21.5q-51 0 -102.5 -13.5t-92.5 -33.5l39 176q42 16 103.5 27.5t124.5 11.5q60 0 109.5 -14.5t84 -41.5t53.5 -66t19 -87q0 -42 -15 -77.5t-42.5 -64t-65.5 -48.5t-84 -31v-4q74 -17 113 -66t39 -127zM565 0h-244l1196 1434h244zM1732 177l-39 -176
h-213l37 176h-401l30 152l453 522h276l-110 -518h110l-32 -156h-111zM1630 693q-11 -17 -27 -37t-29 -37l-237 -286h215l57 278q5 19 12 40.5t13 41.5h-4z" />
    <glyph glyph-name="questiondown" unicode="&#xbf;" horiz-adv-x="920" 
d="M770 895q0 -37 -14.5 -68.5t-40 -54t-60 -35t-75.5 -12.5q-39 0 -71.5 11.5t-56.5 32.5t-37.5 49.5t-13.5 62.5q0 38 15 70t41 54.5t61 35t76 12.5q38 0 70.5 -11.5t56 -32.5t36.5 -50t13 -64zM662 -371q-31 -14 -70.5 -26.5t-83 -22t-90 -15t-90.5 -5.5
q-108 0 -184.5 28t-126 74.5t-72.5 108t-23 127.5q0 58 16 112.5t51 105.5t89.5 100t132.5 97q51 32 85 62t56.5 63.5t36.5 71.5t23 86h260q-13 -65 -29 -121t-41.5 -104.5t-62.5 -90t-93 -79.5q-54 -37 -93.5 -68.5t-65 -60.5t-37.5 -57.5t-12 -59.5q0 -68 46.5 -103.5
t121.5 -35.5q80 0 160 26t145 66z" />
    <glyph glyph-name="Agrave" unicode="&#xc0;" horiz-adv-x="1440" 
d="M985 0l-41 319h-514l-168 -319h-364l827 1434h385l205 -1434h-330zM868 1051q-1 16 -1.5 35.5t0 37.5t1.5 32.5t2 21.5h-6q-2 -9 -7 -23t-11.5 -30.5t-15 -34.5t-17.5 -35l-262 -488h369zM923 1566l-260 325h264l209 -325h-213z" />
    <glyph glyph-name="Aacute" unicode="&#xc1;" horiz-adv-x="1440" 
d="M985 0l-41 319h-514l-168 -319h-364l827 1434h385l205 -1434h-330zM868 1051q-1 16 -1.5 35.5t0 37.5t1.5 32.5t2 21.5h-6q-2 -9 -7 -23t-11.5 -30.5t-15 -34.5t-17.5 -35l-262 -488h369zM944 1566h-235l315 325h289z" />
    <glyph glyph-name="Acircumflex" unicode="&#xc2;" horiz-adv-x="1440" 
d="M985 0l-41 319h-514l-168 -319h-364l827 1434h385l205 -1434h-330zM868 1051q-1 16 -1.5 35.5t0 37.5t1.5 32.5t2 21.5h-6q-2 -9 -7 -23t-11.5 -30.5t-15 -34.5t-17.5 -35l-262 -488h369zM1084 1564l-116 190l-197 -190h-211l303 327h250l168 -327h-197z" />
    <glyph glyph-name="Atilde" unicode="&#xc3;" horiz-adv-x="1440" 
d="M985 0l-41 319h-514l-168 -319h-364l827 1434h385l205 -1434h-330zM868 1051q-1 16 -1.5 35.5t0 37.5t1.5 32.5t2 21.5h-6q-2 -9 -7 -23t-11.5 -30.5t-15 -34.5t-17.5 -35l-262 -488h369zM1289 1743q-24 -53 -58.5 -88t-77 -52.5t-90.5 -17.5q-51 0 -86.5 13t-63 28
t-52 28t-54.5 13q-25 0 -44 -8.5t-32 -22.5t-21 -32t-11 -37h-154q7 61 28.5 112.5t55 89t79 59t101.5 21.5q50 0 83 -13t60 -28t53 -28t60 -13q41 0 68.5 26.5t34.5 74.5h155q-10 -72 -34 -125z" />
    <glyph glyph-name="Adieresis" unicode="&#xc4;" horiz-adv-x="1440" 
d="M985 0l-41 319h-514l-168 -319h-364l827 1434h385l205 -1434h-330zM868 1051q-1 16 -1.5 35.5t0 37.5t1.5 32.5t2 21.5h-6q-2 -9 -7 -23t-11.5 -30.5t-15 -34.5t-17.5 -35l-262 -488h369zM1323 1703q0 -29 -10.5 -54.5t-30.5 -44t-48.5 -29.5t-63.5 -11t-63.5 11
t-48.5 30t-31 44.5t-11 53.5q0 30 11.5 55t32.5 42.5t49 27.5t61 10q34 0 62 -10t48.5 -28t31.5 -43t11 -54zM866 1703q0 -29 -11 -54.5t-31 -44t-48 -29.5t-63 -11q-34 0 -63 11t-49.5 30t-32 44.5t-11.5 53.5q0 30 12 55t33 42.5t49.5 27.5t61.5 10q34 0 62 -10t48.5 -28
t31.5 -43t11 -54z" />
    <glyph glyph-name="Aring" unicode="&#xc5;" horiz-adv-x="1440" 
d="M985 0l-41 319h-512l-170 -319h-364l815 1411q-23 25 -35 59t-12 72q0 60 22.5 104t58.5 72.5t81.5 42t91.5 13.5q57 0 103.5 -17t79.5 -47t50.5 -72t17.5 -92q0 -43 -15.5 -79.5t-41.5 -61.5l201 -1405h-330zM1024 1546q0 40 -29 68t-80 28q-24 0 -43 -8.5t-32 -22
t-20 -30.5t-7 -35q0 -42 27 -71t75 -29q23 0 42.5 7.5t34.5 21t23.5 32t8.5 39.5zM866 1049q-2 16 -2.5 34.5t0.5 35t2 30t2 20.5h-8q-3 -15 -15.5 -48.5t-31.5 -67.5l-263 -486h370z" />
    <glyph glyph-name="AE" unicode="&#xc6;" horiz-adv-x="1933" 
d="M1950 1171h-504l-68 -323h467l-55 -264h-467l-70 -322h535l-55 -262h-859l68 319h-477l-229 -319h-379l1083 1434h1065zM1071 1174l-418 -588h344l125 588h-51z" />
    <glyph glyph-name="Ccedilla" unicode="&#xc7;" horiz-adv-x="1300" 
d="M1313 1087q-30 16 -64.5 32t-75.5 28.5t-88.5 20.5t-103.5 8q-130 0 -229.5 -44.5t-167.5 -119.5t-103 -174t-35 -209q0 -91 27 -161t77 -117.5t120 -72t157 -24.5q55 0 103 7.5t91 20t81.5 28.5t73.5 34l-68 -305q-74 -31 -163.5 -47.5t-201.5 -16.5q-150 0 -269 44.5
t-201 126.5t-125.5 196.5t-43.5 255.5q0 113 24 220.5t72.5 203t122 175.5t173 138t226 90.5t279.5 32.5q58 0 112 -6t103 -15.5t90.5 -21t73.5 -22.5zM929 -229q0 -45 -20 -86t-62 -72.5t-105.5 -50.5t-150.5 -19q-30 0 -57.5 2t-52.5 4l31 138q42 -9 75 -9q66 0 103 21.5
t37 56.5q0 64 -111 64h-22t-25 -2l43 182h154l-19 -82q40 -2 73.5 -11.5t57.5 -27.5t37.5 -45t13.5 -63z" />
    <glyph glyph-name="Egrave" unicode="&#xc8;" horiz-adv-x="1085" 
d="M1124 1171h-501l-68 -323h467l-57 -264h-465l-70 -322h535l-56 -262h-860l305 1434h826zM796 1565l-260 325h264l209 -325h-213z" />
    <glyph glyph-name="Eacute" unicode="&#xc9;" horiz-adv-x="1085" 
d="M1124 1171h-501l-68 -323h467l-57 -264h-465l-70 -322h535l-56 -262h-860l305 1434h826zM842 1565h-235l315 325h289z" />
    <glyph glyph-name="Ecircumflex" unicode="&#xca;" horiz-adv-x="1085" 
d="M1124 1171h-501l-68 -323h467l-57 -264h-465l-70 -322h535l-56 -262h-860l305 1434h826zM947 1565l-116 190l-197 -190h-211l303 327h250l168 -327h-197z" />
    <glyph glyph-name="Edieresis" unicode="&#xcb;" horiz-adv-x="1085" 
d="M1124 1171h-501l-68 -323h467l-57 -264h-465l-70 -322h535l-56 -262h-860l305 1434h826zM1176 1706q0 -29 -10.5 -54.5t-30.5 -44t-48.5 -29.5t-63.5 -11t-63.5 11t-48.5 30t-31 44.5t-11 53.5q0 30 11.5 55t32.5 42.5t49 27.5t61 10q34 0 62 -10t48.5 -28t31.5 -43
t11 -54zM719 1706q0 -29 -11 -54.5t-31 -44t-48 -29.5t-63 -11q-34 0 -63 11t-49.5 30t-32 44.5t-11.5 53.5q0 30 12 55t33 42.5t49.5 27.5t61.5 10q34 0 62 -10t48.5 -28t31.5 -43t11 -54z" />
    <glyph glyph-name="Igrave" unicode="&#xcc;" horiz-adv-x="649" 
d="M375 0h-326l303 1434h326zM554 1566l-260 325h264l209 -325h-213z" />
    <glyph glyph-name="Iacute" unicode="&#xcd;" horiz-adv-x="649" 
d="M375 0h-326l303 1434h326zM543 1565h-235l315 325h289z" />
    <glyph glyph-name="Icircumflex" unicode="&#xce;" horiz-adv-x="649" 
d="M375 0h-326l303 1434h326zM689 1565l-116 190l-197 -190h-211l303 327h250l168 -327h-197z" />
    <glyph glyph-name="Idieresis" unicode="&#xcf;" horiz-adv-x="649" 
d="M375 0h-326l303 1434h326zM922 1706q0 -29 -10.5 -54.5t-30.5 -44t-48.5 -29.5t-63.5 -11t-63.5 11t-48.5 30t-31 44.5t-11 53.5q0 30 11.5 55t32.5 42.5t49 27.5t61 10q34 0 62 -10t48.5 -28t31.5 -43t11 -54zM465 1706q0 -29 -11 -54.5t-31 -44t-48 -29.5t-63 -11
q-34 0 -63 11t-49.5 30t-32 44.5t-11.5 53.5q0 30 12 55t33 42.5t49.5 27.5t61.5 10q34 0 62 -10t48.5 -28t31.5 -43t11 -54z" />
    <glyph glyph-name="Eth" unicode="&#xd0;" horiz-adv-x="1542" 
d="M1499 848q0 -172 -52 -326t-159.5 -270t-272 -184t-388.5 -68h-578l127 592h-168l53 262h170l123 580h500q159 0 279.5 -44t202 -122t122.5 -185.5t41 -234.5zM1157 823q0 79 -22.5 143.5t-69 110t-117.5 70t-168 24.5h-157l-68 -317h274l-55 -262h-274l-70 -330h186
q128 0 228.5 38.5t170 111.5t106 177t36.5 234z" />
    <glyph glyph-name="Ntilde" unicode="&#xd1;" horiz-adv-x="1636" 
d="M1362 0h-295l-449 911q-6 12 -13 28t-14 32.5t-13 31.5t-9 27h-6q-5 -37 -11 -83t-17 -91l-183 -856h-303l303 1434h320l430 -877q5 -11 12.5 -26.5t15 -32t14 -32.5t9.5 -28h4q1 15 3 33.5t5 37.5t6.5 37t6.5 32l182 856h305zM1393 1742q-24 -53 -58.5 -88t-77 -52.5
t-90.5 -17.5q-51 0 -86.5 13t-63 28t-52 28t-54.5 13q-25 0 -44 -8.5t-32 -22.5t-21 -32t-11 -37h-154q7 61 28.5 112.5t55 89t79 59t101.5 21.5q50 0 83 -13t60 -28t53 -28t60 -13q41 0 68.5 26.5t34.5 74.5h155q-10 -72 -34 -125z" />
    <glyph glyph-name="Ograve" unicode="&#xd2;" horiz-adv-x="1554" 
d="M1511 842q0 -86 -15 -173t-44.5 -168.5t-74 -156.5t-103.5 -137q-50 -53 -109 -96t-128.5 -73t-150.5 -46.5t-175 -16.5q-142 0 -253.5 47t-188.5 129.5t-117.5 195.5t-40.5 245q0 93 16 183.5t48.5 174t81 159t112.5 138.5q50 48 108 86.5t125 66.5t144 43t165 15
q133 0 243.5 -42t189.5 -121.5t123 -194t44 -258.5zM1169 831q0 81 -20.5 145t-58.5 108.5t-92.5 68t-123.5 23.5q-80 0 -152 -37t-128 -103q-34 -40 -60 -92t-44 -110t-27.5 -118.5t-9.5 -119.5q0 -81 20.5 -145t58.5 -107.5t91.5 -66.5t119.5 -23q82 0 156.5 36t130.5 107
q35 42 61 94.5t43 109.5t26 116t9 114zM907 1565l-260 325h264l209 -325h-213z" />
    <glyph glyph-name="Oacute" unicode="&#xd3;" horiz-adv-x="1554" 
d="M1511 842q0 -86 -15 -173t-44.5 -168.5t-74 -156.5t-103.5 -137q-50 -53 -109 -96t-128.5 -73t-150.5 -46.5t-175 -16.5q-142 0 -253.5 47t-188.5 129.5t-117.5 195.5t-40.5 245q0 93 16 183.5t48.5 174t81 159t112.5 138.5q50 48 108 86.5t125 66.5t144 43t165 15
q133 0 243.5 -42t189.5 -121.5t123 -194t44 -258.5zM1169 831q0 81 -20.5 145t-58.5 108.5t-92.5 68t-123.5 23.5q-80 0 -152 -37t-128 -103q-34 -40 -60 -92t-44 -110t-27.5 -118.5t-9.5 -119.5q0 -81 20.5 -145t58.5 -107.5t91.5 -66.5t119.5 -23q82 0 156.5 36t130.5 107
q35 42 61 94.5t43 109.5t26 116t9 114zM925 1566h-235l315 325h289z" />
    <glyph glyph-name="Ocircumflex" unicode="&#xd4;" horiz-adv-x="1554" 
d="M1511 842q0 -86 -15 -173t-44.5 -168.5t-74 -156.5t-103.5 -137q-50 -53 -109 -96t-128.5 -73t-150.5 -46.5t-175 -16.5q-142 0 -253.5 47t-188.5 129.5t-117.5 195.5t-40.5 245q0 93 16 183.5t48.5 174t81 159t112.5 138.5q50 48 108 86.5t125 66.5t144 43t165 15
q133 0 243.5 -42t189.5 -121.5t123 -194t44 -258.5zM1169 831q0 81 -20.5 145t-58.5 108.5t-92.5 68t-123.5 23.5q-80 0 -152 -37t-128 -103q-34 -40 -60 -92t-44 -110t-27.5 -118.5t-9.5 -119.5q0 -81 20.5 -145t58.5 -107.5t91.5 -66.5t119.5 -23q82 0 156.5 36t130.5 107
q35 42 61 94.5t43 109.5t26 116t9 114zM1064 1567l-116 190l-197 -190h-211l303 327h250l168 -327h-197z" />
    <glyph glyph-name="Otilde" unicode="&#xd5;" horiz-adv-x="1554" 
d="M1511 842q0 -86 -15 -173t-44.5 -168.5t-74 -156.5t-103.5 -137q-50 -53 -109 -96t-128.5 -73t-150.5 -46.5t-175 -16.5q-142 0 -253.5 47t-188.5 129.5t-117.5 195.5t-40.5 245q0 93 16 183.5t48.5 174t81 159t112.5 138.5q50 48 108 86.5t125 66.5t144 43t165 15
q133 0 243.5 -42t189.5 -121.5t123 -194t44 -258.5zM1169 831q0 81 -20.5 145t-58.5 108.5t-92.5 68t-123.5 23.5q-80 0 -152 -37t-128 -103q-34 -40 -60 -92t-44 -110t-27.5 -118.5t-9.5 -119.5q0 -81 20.5 -145t58.5 -107.5t91.5 -66.5t119.5 -23q82 0 156.5 36t130.5 107
q35 42 61 94.5t43 109.5t26 116t9 114zM1305 1741q-24 -53 -58.5 -88t-77 -52.5t-90.5 -17.5q-51 0 -86.5 13t-63 28t-52 28t-54.5 13q-25 0 -44 -8.5t-32 -22.5t-21 -32t-11 -37h-154q7 61 28.5 112.5t55 89t79 59t101.5 21.5q50 0 83 -13t60 -28t53 -28t60 -13
q41 0 68.5 26.5t34.5 74.5h155q-10 -72 -34 -125z" />
    <glyph glyph-name="Odieresis" unicode="&#xd6;" horiz-adv-x="1554" 
d="M1511 842q0 -86 -15 -173t-44.5 -168.5t-74 -156.5t-103.5 -137q-50 -53 -109 -96t-128.5 -73t-150.5 -46.5t-175 -16.5q-142 0 -253.5 47t-188.5 129.5t-117.5 195.5t-40.5 245q0 93 16 183.5t48.5 174t81 159t112.5 138.5q50 48 108 86.5t125 66.5t144 43t165 15
q133 0 243.5 -42t189.5 -121.5t123 -194t44 -258.5zM1169 831q0 81 -20.5 145t-58.5 108.5t-92.5 68t-123.5 23.5q-80 0 -152 -37t-128 -103q-34 -40 -60 -92t-44 -110t-27.5 -118.5t-9.5 -119.5q0 -81 20.5 -145t58.5 -107.5t91.5 -66.5t119.5 -23q82 0 156.5 36t130.5 107
q35 42 61 94.5t43 109.5t26 116t9 114zM1325 1706q0 -29 -10.5 -54.5t-30.5 -44t-48.5 -29.5t-63.5 -11t-63.5 11t-48.5 30t-31 44.5t-11 53.5q0 30 11.5 55t32.5 42.5t49 27.5t61 10q34 0 62 -10t48.5 -28t31.5 -43t11 -54zM868 1706q0 -29 -11 -54.5t-31 -44t-48 -29.5
t-63 -11q-34 0 -63 11t-49.5 30t-32 44.5t-11.5 53.5q0 30 12 55t33 42.5t49.5 27.5t61.5 10q34 0 62 -10t48.5 -28t31.5 -43t11 -54z" />
    <glyph glyph-name="multiply" unicode="&#xd7;" horiz-adv-x="1450" 
d="M1077 104l-338 340l-340 -340l-145 144l340 338l-340 340l141 145l344 -340l342 340l140 -149l-338 -336l340 -338z" />
    <glyph glyph-name="Oslash" unicode="&#xd8;" horiz-adv-x="1554" 
d="M1405 1221q51 -78 78.5 -173t27.5 -210q0 -86 -16 -174.5t-48 -172.5t-80.5 -162t-113.5 -143q-97 -98 -231 -154.5t-315 -56.5q-118 0 -214 35t-165 90l-166 -176l-121 119l172 178q-50 78 -76 170.5t-26 200.5q0 187 64.5 356.5t195.5 296.5q49 48 106.5 86.5t124 66.5
t143.5 43t166 15q115 0 209 -32t166 -85l148 154l118 -117zM1000 1185.5q-54 20.5 -117 20.5q-48 0 -91 -10.5t-80.5 -29.5t-69.5 -44.5t-56 -54.5q-34 -40 -63 -93t-50 -114.5t-33 -128.5t-12 -135q0 -37 4 -68.5t12 -62.5l646 668q-36 32 -90 52.5zM1194 834q0 80 -23 143
l-649 -674q40 -40 93.5 -61t119.5 -21q88 0 160 34.5t131 96.5q41 43 72.5 100.5t52.5 121.5t32 131t11 129z" />
    <glyph glyph-name="Ugrave" unicode="&#xd9;" horiz-adv-x="1481" 
d="M1343 584q-30 -141 -77 -254t-124.5 -192t-192.5 -121t-281 -42q-120 0 -216 33t-163 95.5t-103 152t-36 203.5q0 52 8 114.5t20 116.5l160 744h326l-162 -746q-11 -53 -20 -106t-9 -90q0 -58 17.5 -102.5t49 -74.5t74 -45.5t91.5 -15.5q57 0 106 17t88 56t69 103.5
t50 159.5l182 844h326zM937 1565l-260 325h264l209 -325h-213z" />
    <glyph glyph-name="Uacute" unicode="&#xda;" horiz-adv-x="1481" 
d="M1343 584q-30 -141 -77 -254t-124.5 -192t-192.5 -121t-281 -42q-120 0 -216 33t-163 95.5t-103 152t-36 203.5q0 52 8 114.5t20 116.5l160 744h326l-162 -746q-11 -53 -20 -106t-9 -90q0 -58 17.5 -102.5t49 -74.5t74 -45.5t91.5 -15.5q57 0 106 17t88 56t69 103.5
t50 159.5l182 844h326zM985 1567h-235l315 325h289z" />
    <glyph glyph-name="Ucircumflex" unicode="&#xdb;" horiz-adv-x="1481" 
d="M1343 584q-30 -141 -77 -254t-124.5 -192t-192.5 -121t-281 -42q-120 0 -216 33t-163 95.5t-103 152t-36 203.5q0 52 8 114.5t20 116.5l160 744h326l-162 -746q-11 -53 -20 -106t-9 -90q0 -58 17.5 -102.5t49 -74.5t74 -45.5t91.5 -15.5q57 0 106 17t88 56t69 103.5
t50 159.5l182 844h326zM1108 1565l-116 190l-197 -190h-211l303 327h250l168 -327h-197z" />
    <glyph glyph-name="Udieresis" unicode="&#xdc;" horiz-adv-x="1481" 
d="M1343 584q-30 -141 -77 -254t-124.5 -192t-192.5 -121t-281 -42q-120 0 -216 33t-163 95.5t-103 152t-36 203.5q0 52 8 114.5t20 116.5l160 744h326l-162 -746q-11 -53 -20 -106t-9 -90q0 -58 17.5 -102.5t49 -74.5t74 -45.5t91.5 -15.5q57 0 106 17t88 56t69 103.5
t50 159.5l182 844h326zM1339 1705q0 -29 -10.5 -54.5t-30.5 -44t-48.5 -29.5t-63.5 -11t-63.5 11t-48.5 30t-31 44.5t-11 53.5q0 30 11.5 55t32.5 42.5t49 27.5t61 10q34 0 62 -10t48.5 -28t31.5 -43t11 -54zM882 1705q0 -29 -11 -54.5t-31 -44t-48 -29.5t-63 -11
q-34 0 -63 11t-49.5 30t-32 44.5t-11.5 53.5q0 30 12 55t33 42.5t49.5 27.5t61.5 10q34 0 62 -10t48.5 -28t31.5 -43t11 -54z" />
    <glyph glyph-name="Yacute" unicode="&#xdd;" horiz-adv-x="1245" 
d="M776 520l-108 -520h-326l109 514l-258 920h350l114 -545q8 -34 9.5 -63t3.5 -52h2q11 28 24.5 57t28.5 54l350 549h363zM868 1567h-235l315 325h289z" />
    <glyph glyph-name="Thorn" unicode="&#xde;" horiz-adv-x="1290" 
d="M1272 817q0 -106 -37 -202.5t-115 -170t-198 -117.5t-287 -44h-199l-61 -283h-326l305 1434h326l-45 -211h168q122 0 210.5 -31t146 -85t85 -128.5t27.5 -161.5zM930 793q0 38 -13 71.5t-41 58t-71 38.5t-103 14h-120l-95 -445h150q77 0 132.5 21.5t91 57.5t52.5 84
t17 100z" />
    <glyph glyph-name="germandbls" unicode="&#xdf;" horiz-adv-x="1235" 
d="M1219 1190q0 -63 -16.5 -114t-43.5 -91.5t-62.5 -71.5t-73.5 -53.5t-76 -38t-70 -24.5v-4q74 -15 130.5 -47.5t94.5 -78.5t57 -103.5t19 -123.5q0 -87 -31 -171t-96.5 -149t-166 -105t-239.5 -40q-33 0 -66.5 2.5t-63.5 7.5t-55.5 11.5t-43.5 13.5l55 252
q29 -20 70.5 -32.5t89.5 -12.5q54 0 95.5 19t70 51t43 74.5t14.5 89.5q0 44 -15 83.5t-48 69t-86.5 47t-131.5 17.5l48 225q60 5 110.5 24.5t87 52t56.5 78t20 103.5q0 30 -9.5 56.5t-28 47t-45.5 32t-62 11.5q-79 0 -132.5 -58t-80.5 -189l-224 -1051h-319l227 1065
q23 105 65 192.5t108.5 150.5t160.5 97.5t221 34.5q120 0 204 -30.5t137.5 -80t77.5 -112t24 -127.5z" />
    <glyph glyph-name="agrave" unicode="&#xe0;" horiz-adv-x="1214" 
d="M1044 338q-7 -31 -13.5 -75t-12 -91.5t-9 -93t-3.5 -78.5h-320q0 15 1.5 38.5t3.5 48t4.5 48t4.5 39.5h-4q-29 -39 -60 -75t-69 -63.5t-84.5 -44t-107.5 -16.5q-75 0 -133.5 27t-98.5 78t-61 124.5t-21 166.5q0 47 10.5 115.5t38 144t76.5 150t125.5 134.5t185 97
t255.5 37q57 0 114.5 -4.5t113 -12t107.5 -17.5t97 -20zM778 824.5q-28 2.5 -53 2.5q-69 0 -121 -23t-90.5 -60t-64.5 -84t-41.5 -95.5t-22 -94.5t-6.5 -81q0 -37 7.5 -68.5t23.5 -54.5t39.5 -36t54.5 -13q57 0 101.5 33t78 84.5t56 116t36.5 127.5l53 239q-23 5 -51 7.5z
M768 1186l-260 325h264l209 -325h-213z" />
    <glyph glyph-name="aacute" unicode="&#xe1;" horiz-adv-x="1214" 
d="M1044 338q-7 -31 -13.5 -75t-12 -91.5t-9 -93t-3.5 -78.5h-320q0 15 1.5 38.5t3.5 48t4.5 48t4.5 39.5h-4q-29 -39 -60 -75t-69 -63.5t-84.5 -44t-107.5 -16.5q-75 0 -133.5 27t-98.5 78t-61 124.5t-21 166.5q0 47 10.5 115.5t38 144t76.5 150t125.5 134.5t185 97
t255.5 37q57 0 114.5 -4.5t113 -12t107.5 -17.5t97 -20zM778 824.5q-28 2.5 -53 2.5q-69 0 -121 -23t-90.5 -60t-64.5 -84t-41.5 -95.5t-22 -94.5t-6.5 -81q0 -37 7.5 -68.5t23.5 -54.5t39.5 -36t54.5 -13q57 0 101.5 33t78 84.5t56 116t36.5 127.5l53 239q-23 5 -51 7.5z
M763 1186h-235l315 325h289z" />
    <glyph glyph-name="acircumflex" unicode="&#xe2;" horiz-adv-x="1214" 
d="M1044 338q-7 -31 -13.5 -75t-12 -91.5t-9 -93t-3.5 -78.5h-320q0 15 1.5 38.5t3.5 48t4.5 48t4.5 39.5h-4q-29 -39 -60 -75t-69 -63.5t-84.5 -44t-107.5 -16.5q-75 0 -133.5 27t-98.5 78t-61 124.5t-21 166.5q0 47 10.5 115.5t38 144t76.5 150t125.5 134.5t185 97
t255.5 37q57 0 114.5 -4.5t113 -12t107.5 -17.5t97 -20zM778 824.5q-28 2.5 -53 2.5q-69 0 -121 -23t-90.5 -60t-64.5 -84t-41.5 -95.5t-22 -94.5t-6.5 -81q0 -37 7.5 -68.5t23.5 -54.5t39.5 -36t54.5 -13q57 0 101.5 33t78 84.5t56 116t36.5 127.5l53 239q-23 5 -51 7.5z
M895 1186l-116 190l-197 -190h-211l303 327h250l168 -327h-197z" />
    <glyph glyph-name="atilde" unicode="&#xe3;" horiz-adv-x="1214" 
d="M1044 338q-7 -31 -13.5 -75t-12 -91.5t-9 -93t-3.5 -78.5h-320q0 15 1.5 38.5t3.5 48t4.5 48t4.5 39.5h-4q-29 -39 -60 -75t-69 -63.5t-84.5 -44t-107.5 -16.5q-75 0 -133.5 27t-98.5 78t-61 124.5t-21 166.5q0 47 10.5 115.5t38 144t76.5 150t125.5 134.5t185 97
t255.5 37q57 0 114.5 -4.5t113 -12t107.5 -17.5t97 -20zM778 824.5q-28 2.5 -53 2.5q-69 0 -121 -23t-90.5 -60t-64.5 -84t-41.5 -95.5t-22 -94.5t-6.5 -81q0 -37 7.5 -68.5t23.5 -54.5t39.5 -36t54.5 -13q57 0 101.5 33t78 84.5t56 116t36.5 127.5l53 239q-23 5 -51 7.5z
M1115 1362q-24 -53 -58.5 -88t-77 -52.5t-90.5 -17.5q-51 0 -86.5 13t-63 28t-52 28t-54.5 13q-25 0 -44 -8.5t-32 -22.5t-21 -32t-11 -37h-154q7 61 28.5 112.5t55 89t79 59t101.5 21.5q50 0 83 -13t60 -28t53 -28t60 -13q41 0 68.5 26.5t34.5 74.5h155q-10 -72 -34 -125z
" />
    <glyph glyph-name="adieresis" unicode="&#xe4;" horiz-adv-x="1214" 
d="M1044 338q-7 -31 -13.5 -75t-12 -91.5t-9 -93t-3.5 -78.5h-320q0 15 1.5 38.5t3.5 48t4.5 48t4.5 39.5h-4q-29 -39 -60 -75t-69 -63.5t-84.5 -44t-107.5 -16.5q-75 0 -133.5 27t-98.5 78t-61 124.5t-21 166.5q0 47 10.5 115.5t38 144t76.5 150t125.5 134.5t185 97
t255.5 37q57 0 114.5 -4.5t113 -12t107.5 -17.5t97 -20zM778 824.5q-28 2.5 -53 2.5q-69 0 -121 -23t-90.5 -60t-64.5 -84t-41.5 -95.5t-22 -94.5t-6.5 -81q0 -37 7.5 -68.5t23.5 -54.5t39.5 -36t54.5 -13q57 0 101.5 33t78 84.5t56 116t36.5 127.5l53 239q-23 5 -51 7.5z
M1134 1325q0 -29 -10.5 -54.5t-30.5 -44t-48.5 -29.5t-63.5 -11t-63.5 11t-48.5 30t-31 44.5t-11 53.5q0 30 11.5 55t32.5 42.5t49 27.5t61 10q34 0 62 -10t48.5 -28t31.5 -43t11 -54zM677 1325q0 -29 -11 -54.5t-31 -44t-48 -29.5t-63 -11q-34 0 -63 11t-49.5 30t-32 44.5
t-11.5 53.5q0 30 12 55t33 42.5t49.5 27.5t61.5 10q34 0 62 -10t48.5 -28t31.5 -43t11 -54z" />
    <glyph glyph-name="aring" unicode="&#xe5;" horiz-adv-x="1214" 
d="M1044 338q-7 -31 -13.5 -75t-12 -91.5t-9 -93t-3.5 -78.5h-320q0 15 1.5 38.5t3.5 48t4.5 48t4.5 39.5h-4q-29 -39 -60 -75t-69 -63.5t-84.5 -44t-107.5 -16.5q-75 0 -133.5 27t-98.5 78t-61 124.5t-21 166.5q0 47 10.5 115.5t38 144t76.5 150t125.5 134.5t185 97
t255.5 37q57 0 114.5 -4.5t113 -12t107.5 -17.5t97 -20zM778 824.5q-28 2.5 -53 2.5q-69 0 -121 -23t-90.5 -60t-64.5 -84t-41.5 -95.5t-22 -94.5t-6.5 -81q0 -37 7.5 -68.5t23.5 -54.5t39.5 -36t54.5 -13q57 0 101.5 33t78 84.5t56 116t36.5 127.5l53 239q-23 5 -51 7.5z
M1021 1378q0 -54 -21 -95t-55 -69t-78 -42.5t-90 -14.5q-49 0 -92 15t-74.5 43t-50 68t-18.5 89q0 56 21 97.5t55 69t77 41t87 13.5q54 0 98.5 -16t75.5 -44.5t48 -68t17 -86.5zM880 1376q0 38 -27.5 66t-75.5 28q-23 0 -41 -8.5t-30 -22t-18.5 -30t-6.5 -33.5q0 -40 25 -67
t71 -27q44 0 73.5 26t29.5 68z" />
    <glyph glyph-name="ae" unicode="&#xe6;" horiz-adv-x="1761" 
d="M1747 760q0 -79 -33.5 -145t-112.5 -114t-209.5 -75.5t-324.5 -30.5v-18q0 -31 10 -62.5t34 -57t64 -41t101 -15.5q36 0 78.5 6.5t86.5 19t87.5 30t81.5 38.5l-49 -236q-31 -16 -71.5 -31t-87.5 -27t-99 -19t-107 -7q-145 0 -247 60.5t-144 179.5h-4q-33 -45 -74 -88.5
t-91 -77t-111 -54t-134 -20.5q-74 0 -135 26.5t-104.5 76t-67 121t-23.5 161.5q0 52 12.5 123.5t43.5 148t82 151.5t128.5 134t183 95.5t245.5 36.5q108 0 196.5 -21t147.5 -43q60 32 130.5 48t147.5 16q91 0 160 -22t115.5 -61t70 -91.5t23.5 -114.5zM1444 756
q0 37 -27.5 61.5t-75.5 24.5q-43 0 -82.5 -18t-73 -51t-58 -79.5t-37.5 -103.5q180 -2 267 41.5t87 124.5zM870 807q-20 8 -51.5 14t-60.5 6q-72 0 -128.5 -23t-98.5 -61t-71 -86t-47 -97.5t-26 -96.5t-8 -82q0 -75 28 -119.5t80 -44.5q40 0 77.5 24t72 67t66.5 102t61 129
q4 11 15.5 46t26.5 77t32 82.5t32 62.5z" />
    <glyph glyph-name="ccedilla" unicode="&#xe7;" horiz-adv-x="946" 
d="M901 743q-34 26 -88 45t-117 19q-73 0 -132 -34t-100 -88t-63 -121t-22 -132q0 -103 48 -159t144 -56q30 0 62.5 6t64.5 16.5t61.5 23.5t53.5 28l-49 -242q-68 -35 -145 -54.5t-154 -19.5q-100 0 -175.5 31t-126.5 87t-76.5 133.5t-25.5 170.5q0 86 19.5 167.5
t56.5 153.5t91.5 133t125 105t156 68.5t184.5 24.5q46 0 87 -5.5t75 -14t60 -19t42 -19.5zM657 -229q0 -45 -20 -86t-62 -72.5t-105.5 -50.5t-150.5 -19q-30 0 -57.5 2t-52.5 4l31 138q42 -9 75 -9q66 0 103 21.5t37 56.5q0 64 -111 64h-22t-25 -2l43 182h154l-19 -82
q40 -2 73.5 -11.5t57.5 -27.5t37.5 -45t13.5 -63z" />
    <glyph glyph-name="egrave" unicode="&#xe8;" horiz-adv-x="1065" 
d="M1051 760q0 -79 -33.5 -145t-112 -114t-208.5 -75.5t-324 -30.5q-2 -6 -2 -10.5v-9.5q0 -31 10 -62t34.5 -56t64.5 -40.5t100 -15.5q36 0 78.5 6.5t86.5 19t87.5 30t80.5 38.5l-49 -236q-31 -16 -71 -31t-86.5 -27t-99 -19t-107.5 -7q-116 0 -199 34t-136.5 91.5
t-78.5 134.5t-25 164q0 131 43.5 249t124 207t194 141.5t253.5 52.5q101 0 172 -24t116 -64.5t66 -92.5t21 -108zM750 756q0 37 -27.5 61.5t-77.5 24.5q-44 0 -84.5 -19t-74 -52.5t-57.5 -80t-36 -100.5q180 -2 268.5 41t88.5 125zM661 1186l-260 325h264l209 -325h-213z
" />
    <glyph glyph-name="eacute" unicode="&#xe9;" horiz-adv-x="1065" 
d="M1051 760q0 -79 -33.5 -145t-112 -114t-208.5 -75.5t-324 -30.5q-2 -6 -2 -10.5v-9.5q0 -31 10 -62t34.5 -56t64.5 -40.5t100 -15.5q36 0 78.5 6.5t86.5 19t87.5 30t80.5 38.5l-49 -236q-31 -16 -71 -31t-86.5 -27t-99 -19t-107.5 -7q-116 0 -199 34t-136.5 91.5
t-78.5 134.5t-25 164q0 131 43.5 249t124 207t194 141.5t253.5 52.5q101 0 172 -24t116 -64.5t66 -92.5t21 -108zM750 756q0 37 -27.5 61.5t-77.5 24.5q-44 0 -84.5 -19t-74 -52.5t-57.5 -80t-36 -100.5q180 -2 268.5 41t88.5 125zM705 1186h-235l315 325h289z" />
    <glyph glyph-name="ecircumflex" unicode="&#xea;" horiz-adv-x="1065" 
d="M1051 760q0 -79 -33.5 -145t-112 -114t-208.5 -75.5t-324 -30.5q-2 -6 -2 -10.5v-9.5q0 -31 10 -62t34.5 -56t64.5 -40.5t100 -15.5q36 0 78.5 6.5t86.5 19t87.5 30t80.5 38.5l-49 -236q-31 -16 -71 -31t-86.5 -27t-99 -19t-107.5 -7q-116 0 -199 34t-136.5 91.5
t-78.5 134.5t-25 164q0 131 43.5 249t124 207t194 141.5t253.5 52.5q101 0 172 -24t116 -64.5t66 -92.5t21 -108zM750 756q0 37 -27.5 61.5t-77.5 24.5q-44 0 -84.5 -19t-74 -52.5t-57.5 -80t-36 -100.5q180 -2 268.5 41t88.5 125zM843 1186l-116 190l-197 -190h-211
l303 327h250l168 -327h-197z" />
    <glyph glyph-name="edieresis" unicode="&#xeb;" horiz-adv-x="1065" 
d="M1051 760q0 -79 -33.5 -145t-112 -114t-208.5 -75.5t-324 -30.5q-2 -6 -2 -10.5v-9.5q0 -31 10 -62t34.5 -56t64.5 -40.5t100 -15.5q36 0 78.5 6.5t86.5 19t87.5 30t80.5 38.5l-49 -236q-31 -16 -71 -31t-86.5 -27t-99 -19t-107.5 -7q-116 0 -199 34t-136.5 91.5
t-78.5 134.5t-25 164q0 131 43.5 249t124 207t194 141.5t253.5 52.5q101 0 172 -24t116 -64.5t66 -92.5t21 -108zM750 756q0 37 -27.5 61.5t-77.5 24.5q-44 0 -84.5 -19t-74 -52.5t-57.5 -80t-36 -100.5q180 -2 268.5 41t88.5 125zM1063 1325q0 -29 -10.5 -54.5t-30.5 -44
t-48.5 -29.5t-63.5 -11t-63.5 11t-48.5 30t-31 44.5t-11 53.5q0 30 11.5 55t32.5 42.5t49 27.5t61 10q34 0 62 -10t48.5 -28t31.5 -43t11 -54zM606 1325q0 -29 -11 -54.5t-31 -44t-48 -29.5t-63 -11q-34 0 -63 11t-49.5 30t-32 44.5t-11.5 53.5q0 30 12 55t33 42.5
t49.5 27.5t61.5 10q34 0 62 -10t48.5 -28t31.5 -43t11 -54z" />
    <glyph glyph-name="igrave" unicode="&#xec;" horiz-adv-x="650" 
d="M535 9q-18 -5 -41.5 -10t-50 -9.5t-55 -7t-56.5 -2.5q-67 0 -114.5 17.5t-78.5 49t-45.5 75t-14.5 95.5q0 22 2.5 49t6.5 56.5t9.5 60t11.5 58.5q4 17 13.5 62.5t22 104.5t26.5 124.5t26.5 124.5t22 104.5t13.5 62.5h320l-122 -576q-8 -35 -17 -78.5t-9 -75.5
q0 -38 24 -53t55 -15q26 0 52.5 5.5t48.5 14.5q-13 -60 -25 -118.5t-25 -118.5zM440 1186l-260 325h264l209 -325h-213z" />
    <glyph glyph-name="iacute" unicode="&#xed;" horiz-adv-x="650" 
d="M535 9q-18 -5 -41.5 -10t-50 -9.5t-55 -7t-56.5 -2.5q-67 0 -114.5 17.5t-78.5 49t-45.5 75t-14.5 95.5q0 22 2.5 49t6.5 56.5t9.5 60t11.5 58.5q4 17 13.5 62.5t22 104.5t26.5 124.5t26.5 124.5t22 104.5t13.5 62.5h320l-122 -576q-8 -35 -17 -78.5t-9 -75.5
q0 -38 24 -53t55 -15q26 0 52.5 5.5t48.5 14.5q-13 -60 -25 -118.5t-25 -118.5zM430 1186h-235l315 325h289z" />
    <glyph glyph-name="icircumflex" unicode="&#xee;" horiz-adv-x="650" 
d="M535 9q-18 -5 -41.5 -10t-50 -9.5t-55 -7t-56.5 -2.5q-67 0 -114.5 17.5t-78.5 49t-45.5 75t-14.5 95.5q0 22 2.5 49t6.5 56.5t9.5 60t11.5 58.5q4 17 13.5 62.5t22 104.5t26.5 124.5t26.5 124.5t22 104.5t13.5 62.5h320l-122 -576q-8 -35 -17 -78.5t-9 -75.5
q0 -38 24 -53t55 -15q26 0 52.5 5.5t48.5 14.5q-13 -60 -25 -118.5t-25 -118.5zM575 1186l-116 190l-197 -190h-211l303 327h250l168 -327h-197z" />
    <glyph glyph-name="idieresis" unicode="&#xef;" horiz-adv-x="650" 
d="M535 9q-18 -5 -41.5 -10t-50 -9.5t-55 -7t-56.5 -2.5q-67 0 -114.5 17.5t-78.5 49t-45.5 75t-14.5 95.5q0 22 2.5 49t6.5 56.5t9.5 60t11.5 58.5q4 17 13.5 62.5t22 104.5t26.5 124.5t26.5 124.5t22 104.5t13.5 62.5h320l-122 -576q-8 -35 -17 -78.5t-9 -75.5
q0 -38 24 -53t55 -15q26 0 52.5 5.5t48.5 14.5q-13 -60 -25 -118.5t-25 -118.5zM802 1325q0 -29 -10.5 -54.5t-30.5 -44t-48.5 -29.5t-63.5 -11t-63.5 11t-48.5 30t-31 44.5t-11 53.5q0 30 11.5 55t32.5 42.5t49 27.5t61 10q34 0 62 -10t48.5 -28t31.5 -43t11 -54zM345 1325
q0 -29 -11 -54.5t-31 -44t-48 -29.5t-63 -11q-34 0 -63 11t-49.5 30t-32 44.5t-11.5 53.5q0 30 12 55t33 42.5t49.5 27.5t61.5 10q34 0 62 -10t48.5 -28t31.5 -43t11 -54z" />
    <glyph glyph-name="eth" unicode="&#xf0;" horiz-adv-x="1165" 
d="M860 1311q49 -51 93.5 -116.5t78 -143.5t53 -167.5t19.5 -187.5q0 -94 -17 -184t-51.5 -170.5t-85 -147.5t-118 -116t-151 -76t-183.5 -27q-110 0 -192 33t-136.5 91.5t-81.5 139t-27 175.5q0 127 39.5 242t109.5 202.5t167 139t211 51.5q65 0 109 -22t75 -56h4
q-10 33 -27.5 68.5t-38.5 69t-43.5 62.5t-41.5 48l-287 -113l-68 125l248 96q-21 22 -48.5 47t-56.5 50t-59 49t-57 43h342q11 -8 25.5 -19t30.5 -24t31.5 -26.5t27.5 -25.5l272 111l64 -127zM786 623q0 35 -7.5 68.5t-24.5 59t-46 41t-71 15.5q-61 0 -109 -37t-81 -94.5
t-50.5 -129t-17.5 -140.5q0 -91 38.5 -140t104.5 -49q68 0 117.5 40t82 100.5t48.5 132t16 133.5z" />
    <glyph glyph-name="ntilde" unicode="&#xf1;" horiz-adv-x="1225" 
d="M1151 780q0 -15 -3 -40t-7.5 -52t-9.5 -52.5t-9 -43.5l-125 -592h-317l123 584q6 32 12 66t6 52q0 48 -24.5 76.5t-73.5 28.5q-41 0 -85.5 -25.5t-83.5 -67.5t-68.5 -96.5t-41.5 -111.5l-106 -506h-322l152 702q9 46 18 92.5t16 89t12.5 79t8.5 61.5h312
q-3 -28 -6.5 -58.5t-7 -58.5t-6.5 -49.5t-5 -30.5h4q35 46 79 86.5t93.5 70.5t102.5 47.5t106 17.5q127 0 191.5 -70.5t64.5 -198.5zM1098 1362q-24 -53 -58.5 -88t-77 -52.5t-90.5 -17.5q-51 0 -86.5 13t-63 28t-52 28t-54.5 13q-25 0 -44 -8.5t-32 -22.5t-21 -32t-11 -37
h-154q7 61 28.5 112.5t55 89t79 59t101.5 21.5q50 0 83 -13t60 -28t53 -28t60 -13q41 0 68.5 26.5t34.5 74.5h155q-10 -72 -34 -125z" />
    <glyph glyph-name="ograve" unicode="&#xf2;" horiz-adv-x="1178" 
d="M1116 618q0 -71 -14 -146t-44 -146.5t-77.5 -135.5t-115 -111.5t-156 -75.5t-201.5 -28q-114 0 -198.5 33t-139.5 91t-82 137.5t-27 171.5q0 74 15 150.5t46.5 147.5t80.5 133.5t117 109t155.5 73.5t196.5 27q107 0 189.5 -30.5t139 -87t86 -136t29.5 -177.5zM797 614
q0 42 -10 77.5t-29.5 61t-47.5 40t-65 14.5q-63 0 -112.5 -36t-83.5 -93t-52 -128t-18 -142q0 -91 42.5 -141t110.5 -50q65 0 114.5 35t83 91.5t50.5 127.5t17 143zM684 1186l-260 325h264l209 -325h-213z" />
    <glyph glyph-name="oacute" unicode="&#xf3;" horiz-adv-x="1178" 
d="M1116 618q0 -71 -14 -146t-44 -146.5t-77.5 -135.5t-115 -111.5t-156 -75.5t-201.5 -28q-114 0 -198.5 33t-139.5 91t-82 137.5t-27 171.5q0 74 15 150.5t46.5 147.5t80.5 133.5t117 109t155.5 73.5t196.5 27q107 0 189.5 -30.5t139 -87t86 -136t29.5 -177.5zM797 614
q0 42 -10 77.5t-29.5 61t-47.5 40t-65 14.5q-63 0 -112.5 -36t-83.5 -93t-52 -128t-18 -142q0 -91 42.5 -141t110.5 -50q65 0 114.5 35t83 91.5t50.5 127.5t17 143zM714 1186h-235l315 325h289z" />
    <glyph glyph-name="ocircumflex" unicode="&#xf4;" horiz-adv-x="1178" 
d="M1116 618q0 -71 -14 -146t-44 -146.5t-77.5 -135.5t-115 -111.5t-156 -75.5t-201.5 -28q-114 0 -198.5 33t-139.5 91t-82 137.5t-27 171.5q0 74 15 150.5t46.5 147.5t80.5 133.5t117 109t155.5 73.5t196.5 27q107 0 189.5 -30.5t139 -87t86 -136t29.5 -177.5zM797 614
q0 42 -10 77.5t-29.5 61t-47.5 40t-65 14.5q-63 0 -112.5 -36t-83.5 -93t-52 -128t-18 -142q0 -91 42.5 -141t110.5 -50q65 0 114.5 35t83 91.5t50.5 127.5t17 143zM844 1186l-116 190l-197 -190h-211l303 327h250l168 -327h-197z" />
    <glyph glyph-name="otilde" unicode="&#xf5;" horiz-adv-x="1178" 
d="M1116 618q0 -71 -14 -146t-44 -146.5t-77.5 -135.5t-115 -111.5t-156 -75.5t-201.5 -28q-114 0 -198.5 33t-139.5 91t-82 137.5t-27 171.5q0 74 15 150.5t46.5 147.5t80.5 133.5t117 109t155.5 73.5t196.5 27q107 0 189.5 -30.5t139 -87t86 -136t29.5 -177.5zM797 614
q0 42 -10 77.5t-29.5 61t-47.5 40t-65 14.5q-63 0 -112.5 -36t-83.5 -93t-52 -128t-18 -142q0 -91 42.5 -141t110.5 -50q65 0 114.5 35t83 91.5t50.5 127.5t17 143zM1061 1362q-24 -53 -58.5 -88t-77 -52.5t-90.5 -17.5q-51 0 -86.5 13t-63 28t-52 28t-54.5 13
q-25 0 -44 -8.5t-32 -22.5t-21 -32t-11 -37h-154q7 61 28.5 112.5t55 89t79 59t101.5 21.5q50 0 83 -13t60 -28t53 -28t60 -13q41 0 68.5 26.5t34.5 74.5h155q-10 -72 -34 -125z" />
    <glyph glyph-name="odieresis" unicode="&#xf6;" horiz-adv-x="1178" 
d="M1116 618q0 -71 -14 -146t-44 -146.5t-77.5 -135.5t-115 -111.5t-156 -75.5t-201.5 -28q-114 0 -198.5 33t-139.5 91t-82 137.5t-27 171.5q0 74 15 150.5t46.5 147.5t80.5 133.5t117 109t155.5 73.5t196.5 27q107 0 189.5 -30.5t139 -87t86 -136t29.5 -177.5zM797 614
q0 42 -10 77.5t-29.5 61t-47.5 40t-65 14.5q-63 0 -112.5 -36t-83.5 -93t-52 -128t-18 -142q0 -91 42.5 -141t110.5 -50q65 0 114.5 35t83 91.5t50.5 127.5t17 143zM1086 1325q0 -29 -10.5 -54.5t-30.5 -44t-48.5 -29.5t-63.5 -11t-63.5 11t-48.5 30t-31 44.5t-11 53.5
q0 30 11.5 55t32.5 42.5t49 27.5t61 10q34 0 62 -10t48.5 -28t31.5 -43t11 -54zM629 1325q0 -29 -11 -54.5t-31 -44t-48 -29.5t-63 -11q-34 0 -63 11t-49.5 30t-32 44.5t-11.5 53.5q0 30 12 55t33 42.5t49.5 27.5t61.5 10q34 0 62 -10t48.5 -28t31.5 -43t11 -54z" />
    <glyph glyph-name="divide" unicode="&#xf7;" horiz-adv-x="1450" 
d="M885 985q0 -33 -12 -59t-31.5 -43.5t-44 -27t-49.5 -9.5q-29 0 -55 10.5t-45.5 29.5t-30.5 44t-11 53q0 29 10 55.5t28.5 46.5t45 31.5t58.5 11.5q31 0 56.5 -10.5t43.5 -29.5t27.5 -45t9.5 -58zM254 485v203h975v-203h-975zM881 184q0 -33 -12 -58.5t-31.5 -43
t-44 -26.5t-50.5 -9q-29 0 -54.5 10.5t-45 28.5t-30.5 43t-11 53q0 29 10 55.5t28.5 46.5t44.5 32t58 12t57.5 -11t43.5 -30.5t27.5 -45.5t9.5 -57z" />
    <glyph glyph-name="oslash" unicode="&#xf8;" horiz-adv-x="1178" 
d="M1061 848q55 -95 55 -230q0 -73 -14.5 -149t-45 -147.5t-78.5 -134.5t-115.5 -110t-155.5 -74.5t-199 -27.5q-91 0 -163.5 22t-125.5 64l-137 -127l-102 119l135 127q-28 50 -41 107.5t-13 120.5q0 74 14.5 150t46 147t80 133.5t116 109.5t156 74t198.5 27q88 0 157 -22
t123 -62l158 147l102 -121zM651 825q-73 0 -130 -32.5t-96.5 -87t-60 -126.5t-20.5 -151q0 -8 1 -15.5t1 -15.5l412 385q-40 43 -107 43zM831 600v18.5t-2 18.5l-413 -389q20 -22 49 -35.5t63 -13.5q75 0 131.5 32t94.5 87t57.5 128t19.5 154z" />
    <glyph glyph-name="ugrave" unicode="&#xf9;" horiz-adv-x="1225" 
d="M1051 340q-9 -45 -17 -93.5t-14 -93.5t-10 -84.5t-6 -68.5h-320q3 29 6.5 59t7.5 56.5t7 47.5t4 30h-4q-39 -49 -83.5 -89t-93 -68.5t-100 -44.5t-104.5 -16q-127 0 -192.5 70.5t-65.5 198.5q0 15 3 40t7.5 52t9 52.5t8.5 43.5l125 592h318l-123 -578q-4 -16 -7.5 -34
t-6 -35t-4 -31t-1.5 -22q0 -44 24 -70.5t70 -26.5q50 0 97 28t85 73t65.5 101t39.5 112l103 483h319zM718 1186l-260 325h264l209 -325h-213z" />
    <glyph glyph-name="uacute" unicode="&#xfa;" horiz-adv-x="1225" 
d="M1051 340q-9 -45 -17 -93.5t-14 -93.5t-10 -84.5t-6 -68.5h-320q3 29 6.5 59t7.5 56.5t7 47.5t4 30h-4q-39 -49 -83.5 -89t-93 -68.5t-100 -44.5t-104.5 -16q-127 0 -192.5 70.5t-65.5 198.5q0 15 3 40t7.5 52t9 52.5t8.5 43.5l125 592h318l-123 -578q-4 -16 -7.5 -34
t-6 -35t-4 -31t-1.5 -22q0 -44 24 -70.5t70 -26.5q50 0 97 28t85 73t65.5 101t39.5 112l103 483h319zM758 1186h-235l315 325h289z" />
    <glyph glyph-name="ucircumflex" unicode="&#xfb;" horiz-adv-x="1225" 
d="M1051 340q-9 -45 -17 -93.5t-14 -93.5t-10 -84.5t-6 -68.5h-320q3 29 6.5 59t7.5 56.5t7 47.5t4 30h-4q-39 -49 -83.5 -89t-93 -68.5t-100 -44.5t-104.5 -16q-127 0 -192.5 70.5t-65.5 198.5q0 15 3 40t7.5 52t9 52.5t8.5 43.5l125 592h318l-123 -578q-4 -16 -7.5 -34
t-6 -35t-4 -31t-1.5 -22q0 -44 24 -70.5t70 -26.5q50 0 97 28t85 73t65.5 101t39.5 112l103 483h319zM884 1186l-116 190l-197 -190h-211l303 327h250l168 -327h-197z" />
    <glyph glyph-name="udieresis" unicode="&#xfc;" horiz-adv-x="1225" 
d="M1051 340q-9 -45 -17 -93.5t-14 -93.5t-10 -84.5t-6 -68.5h-320q3 29 6.5 59t7.5 56.5t7 47.5t4 30h-4q-39 -49 -83.5 -89t-93 -68.5t-100 -44.5t-104.5 -16q-127 0 -192.5 70.5t-65.5 198.5q0 15 3 40t7.5 52t9 52.5t8.5 43.5l125 592h318l-123 -578q-4 -16 -7.5 -34
t-6 -35t-4 -31t-1.5 -22q0 -44 24 -70.5t70 -26.5q50 0 97 28t85 73t65.5 101t39.5 112l103 483h319zM1127 1325q0 -29 -10.5 -54.5t-30.5 -44t-48.5 -29.5t-63.5 -11t-63.5 11t-48.5 30t-31 44.5t-11 53.5q0 30 11.5 55t32.5 42.5t49 27.5t61 10q34 0 62 -10t48.5 -28
t31.5 -43t11 -54zM670 1325q0 -29 -11 -54.5t-31 -44t-48 -29.5t-63 -11q-34 0 -63 11t-49.5 30t-32 44.5t-11.5 53.5q0 30 12 55t33 42.5t49.5 27.5t61.5 10q34 0 62 -10t48.5 -28t31.5 -43t11 -54z" />
    <glyph glyph-name="yacute" unicode="&#xfd;" horiz-adv-x="1102" 
d="M551 -90q-51 -89 -105.5 -161.5t-118.5 -123.5t-141.5 -78.5t-175.5 -27.5q-34 0 -81.5 6.5t-88.5 21.5l54 244q21 -15 52 -23t62 -8q59 0 110 27.5t89 89.5l82 129l-199 1018h332l72 -623q3 -34 4 -73t-2 -64h4q9 25 23 62t34 75l313 623h332zM702 1186h-235l315 325
h289z" />
    <glyph glyph-name="thorn" unicode="&#xfe;" horiz-adv-x="1214" 
d="M1153 670q0 -84 -18 -168.5t-53.5 -162t-89.5 -144t-126 -115.5t-162.5 -77t-199.5 -28q-40 0 -88 6t-82 15l-101 -467h-319l420 1987h319l-98 -461q-12 -57 -26.5 -110t-28.5 -95h4q28 42 63 78t77.5 63t93 42.5t108.5 15.5q68 0 124.5 -25t97 -73.5t63 -119
t22.5 -161.5zM836 633q0 35 -6.5 66.5t-22.5 55.5t-41.5 38t-63.5 14q-56 0 -101 -32.5t-79 -84t-57.5 -115t-36.5 -126.5l-53 -234q12 -4 28.5 -7t34 -5.5t34.5 -4t30 -1.5q74 0 135.5 36.5t105.5 97t68.5 139.5t24.5 163z" />
    <glyph glyph-name="ydieresis" unicode="&#xff;" horiz-adv-x="1102" 
d="M551 -90q-51 -89 -105.5 -161.5t-118.5 -123.5t-141.5 -78.5t-175.5 -27.5q-34 0 -81.5 6.5t-88.5 21.5l54 244q21 -15 52 -23t62 -8q59 0 110 27.5t89 89.5l82 129l-199 1018h332l72 -623q3 -34 4 -73t-2 -64h4q9 25 23 62t34 75l313 623h332zM1051 1325
q0 -29 -10.5 -54.5t-30.5 -44t-48.5 -29.5t-63.5 -11t-63.5 11t-48.5 30t-31 44.5t-11 53.5q0 30 11.5 55t32.5 42.5t49 27.5t61 10q34 0 62 -10t48.5 -28t31.5 -43t11 -54zM594 1325q0 -29 -11 -54.5t-31 -44t-48 -29.5t-63 -11q-34 0 -63 11t-49.5 30t-32 44.5t-11.5 53.5
q0 30 12 55t33 42.5t49.5 27.5t61.5 10q34 0 62 -10t48.5 -28t31.5 -43t11 -54z" />
    <glyph glyph-name="Amacron" unicode="&#x100;" horiz-adv-x="1440" 
d="M985 0l-41 319h-514l-168 -319h-364l827 1434h385l205 -1434h-330zM868 1051q-1 16 -1.5 35.5t0 37.5t1.5 32.5t2 21.5h-6q-2 -9 -7 -23t-11.5 -30.5t-15 -34.5t-17.5 -35l-262 -488h369zM1221 1567h-586l37 172h586z" />
    <glyph glyph-name="amacron" unicode="&#x101;" horiz-adv-x="1214" 
d="M1044 338q-7 -31 -13.5 -75t-12 -91.5t-9 -93t-3.5 -78.5h-320q0 15 1.5 38.5t3.5 48t4.5 48t4.5 39.5h-4q-29 -39 -60 -75t-69 -63.5t-84.5 -44t-107.5 -16.5q-75 0 -133.5 27t-98.5 78t-61 124.5t-21 166.5q0 47 10.5 115.5t38 144t76.5 150t125.5 134.5t185 97
t255.5 37q57 0 114.5 -4.5t113 -12t107.5 -17.5t97 -20zM778 824.5q-28 2.5 -53 2.5q-69 0 -121 -23t-90.5 -60t-64.5 -84t-41.5 -95.5t-22 -94.5t-6.5 -81q0 -37 7.5 -68.5t23.5 -54.5t39.5 -36t54.5 -13q57 0 101.5 33t78 84.5t56 116t36.5 127.5l53 239q-23 5 -51 7.5z
M1096 1186h-586l37 172h586z" />
    <glyph glyph-name="Abreve" unicode="&#x102;" horiz-adv-x="1440" 
d="M985 0l-41 319h-514l-168 -319h-364l827 1434h385l205 -1434h-330zM868 1051q-1 16 -1.5 35.5t0 37.5t1.5 32.5t2 21.5h-6q-2 -9 -7 -23t-11.5 -30.5t-15 -34.5t-17.5 -35l-262 -488h369zM1268 1749.5q-33 -56.5 -79.5 -97t-106 -63t-131.5 -22.5q-53 0 -100 15.5
t-81.5 45.5t-54.5 74.5t-20 103.5q0 17 2.5 33t7.5 35h162q-2 -8 -3 -17.5t-1 -17.5q0 -51 32 -77.5t78 -26.5q130 0 178 139h170q-20 -68 -53 -124.5z" />
    <glyph glyph-name="abreve" unicode="&#x103;" horiz-adv-x="1214" 
d="M1044 338q-7 -31 -13.5 -75t-12 -91.5t-9 -93t-3.5 -78.5h-320q0 15 1.5 38.5t3.5 48t4.5 48t4.5 39.5h-4q-29 -39 -60 -75t-69 -63.5t-84.5 -44t-107.5 -16.5q-75 0 -133.5 27t-98.5 78t-61 124.5t-21 166.5q0 47 10.5 115.5t38 144t76.5 150t125.5 134.5t185 97
t255.5 37q57 0 114.5 -4.5t113 -12t107.5 -17.5t97 -20zM778 824.5q-28 2.5 -53 2.5q-69 0 -121 -23t-90.5 -60t-64.5 -84t-41.5 -95.5t-22 -94.5t-6.5 -81q0 -37 7.5 -68.5t23.5 -54.5t39.5 -36t54.5 -13q57 0 101.5 33t78 84.5t56 116t36.5 127.5l53 239q-23 5 -51 7.5z
M1119 1368.5q-33 -56.5 -79.5 -97t-106 -63t-131.5 -22.5q-53 0 -100 15.5t-81.5 45.5t-54.5 74.5t-20 103.5q0 17 2.5 33t7.5 35h162q-2 -8 -3 -17.5t-1 -17.5q0 -51 32 -77.5t78 -26.5q130 0 178 139h170q-20 -68 -53 -124.5z" />
    <glyph glyph-name="Aogonek" unicode="&#x104;" horiz-adv-x="1440" 
d="M1138 0q-45 -43 -75 -75.5t-48 -58t-25.5 -45.5t-7.5 -38q0 -72 76 -72q23 0 51 8t45 17l-29 -142q-20 -11 -55.5 -19.5t-79.5 -8.5q-52 0 -89 12.5t-61 35t-35 53.5t-11 67q0 65 46.5 128t145.5 138h-1l-41 319h-514l-168 -319h-364l827 1434h385l205 -1434h-177z
M868 1051q-1 16 -1.5 35.5t0 37.5t1.5 32.5t2 21.5h-6q-2 -9 -7 -23t-11.5 -30.5t-15 -34.5t-17.5 -35l-262 -488h369z" />
    <glyph glyph-name="aogonek" unicode="&#x105;" horiz-adv-x="1214" 
d="M1044 338q-7 -31 -13.5 -75t-12 -91.5t-9 -93t-3.5 -78.5h-64q-45 -43 -75 -75.5t-48 -58t-25.5 -45.5t-7.5 -38q0 -72 76 -72q23 0 51 8t45 17l-29 -142q-20 -11 -55.5 -19.5t-79.5 -8.5q-52 0 -89 12.5t-61 35t-35 53.5t-11 67q0 65 46.5 128t145.5 138h-104
q0 15 1.5 38.5t3.5 48t4.5 48t4.5 39.5h-4q-29 -39 -60 -75t-69 -63.5t-84.5 -44t-107.5 -16.5q-75 0 -133.5 27t-98.5 78t-61 124.5t-21 166.5q0 47 10.5 115.5t38 144t76.5 150t125.5 134.5t185 97t255.5 37q57 0 114.5 -4.5t113 -12t107.5 -17.5t97 -20zM778 824.5
q-28 2.5 -53 2.5q-69 0 -121 -23t-90.5 -60t-64.5 -84t-41.5 -95.5t-22 -94.5t-6.5 -81q0 -37 7.5 -68.5t23.5 -54.5t39.5 -36t54.5 -13q57 0 101.5 33t78 84.5t56 116t36.5 127.5l53 239q-23 5 -51 7.5z" />
    <glyph glyph-name="Cacute" unicode="&#x106;" horiz-adv-x="1300" 
d="M1313 1087q-30 16 -64.5 32t-75.5 28.5t-88.5 20.5t-103.5 8q-130 0 -229.5 -44.5t-167.5 -119.5t-103 -174t-35 -209q0 -91 27 -161t77 -117.5t120 -72t157 -24.5q55 0 103 7.5t91 20t81.5 28.5t73.5 34l-68 -305q-74 -31 -163.5 -47.5t-201.5 -16.5q-150 0 -269 44.5
t-201 126.5t-125.5 196.5t-43.5 255.5q0 113 24 220.5t72.5 203t122 175.5t173 138t226 90.5t279.5 32.5q58 0 112 -6t103 -15.5t90.5 -21t73.5 -22.5zM1035 1567h-235l315 325h289z" />
    <glyph glyph-name="cacute" unicode="&#x107;" horiz-adv-x="946" 
d="M901 743q-34 26 -88 45t-117 19q-73 0 -132 -34t-100 -88t-63 -121t-22 -132q0 -103 48 -159t144 -56q30 0 62.5 6t64.5 16.5t61.5 23.5t53.5 28l-49 -242q-68 -35 -145 -54.5t-154 -19.5q-100 0 -175.5 31t-126.5 87t-76.5 133.5t-25.5 170.5q0 86 19.5 167.5
t56.5 153.5t91.5 133t125 105t156 68.5t184.5 24.5q46 0 87 -5.5t75 -14t60 -19t42 -19.5zM747 1186h-235l315 325h289z" />
    <glyph glyph-name="Ccircumflex" unicode="&#x108;" horiz-adv-x="1300" 
d="M1313 1087q-30 16 -64.5 32t-75.5 28.5t-88.5 20.5t-103.5 8q-130 0 -229.5 -44.5t-167.5 -119.5t-103 -174t-35 -209q0 -91 27 -161t77 -117.5t120 -72t157 -24.5q55 0 103 7.5t91 20t81.5 28.5t73.5 34l-68 -305q-74 -31 -163.5 -47.5t-201.5 -16.5q-150 0 -269 44.5
t-201 126.5t-125.5 196.5t-43.5 255.5q0 113 24 220.5t72.5 203t122 175.5t173 138t226 90.5t279.5 32.5q58 0 112 -6t103 -15.5t90.5 -21t73.5 -22.5zM1166 1567l-116 190l-197 -190h-211l303 327h250l168 -327h-197z" />
    <glyph glyph-name="ccircumflex" unicode="&#x109;" horiz-adv-x="946" 
d="M901 743q-34 26 -88 45t-117 19q-73 0 -132 -34t-100 -88t-63 -121t-22 -132q0 -103 48 -159t144 -56q30 0 62.5 6t64.5 16.5t61.5 23.5t53.5 28l-49 -242q-68 -35 -145 -54.5t-154 -19.5q-100 0 -175.5 31t-126.5 87t-76.5 133.5t-25.5 170.5q0 86 19.5 167.5
t56.5 153.5t91.5 133t125 105t156 68.5t184.5 24.5q46 0 87 -5.5t75 -14t60 -19t42 -19.5zM847 1186l-116 190l-197 -190h-211l303 327h250l168 -327h-197z" />
    <glyph glyph-name="Cdotaccent" unicode="&#x10a;" horiz-adv-x="1300" 
d="M1313 1087q-30 16 -64.5 32t-75.5 28.5t-88.5 20.5t-103.5 8q-130 0 -229.5 -44.5t-167.5 -119.5t-103 -174t-35 -209q0 -91 27 -161t77 -117.5t120 -72t157 -24.5q55 0 103 7.5t91 20t81.5 28.5t73.5 34l-68 -305q-74 -31 -163.5 -47.5t-201.5 -16.5q-150 0 -269 44.5
t-201 126.5t-125.5 196.5t-43.5 255.5q0 113 24 220.5t72.5 203t122 175.5t173 138t226 90.5t279.5 32.5q58 0 112 -6t103 -15.5t90.5 -21t73.5 -22.5zM1192 1706q0 -28 -11 -53.5t-30.5 -44.5t-47.5 -30t-63 -11q-34 0 -62.5 11t-48.5 30t-31 44.5t-11 53.5q0 30 11.5 54.5
t32 42t48.5 27t61 9.5q68 0 110 -37t42 -96z" />
    <glyph glyph-name="cdotaccent" unicode="&#x10b;" horiz-adv-x="946" 
d="M901 743q-34 26 -88 45t-117 19q-73 0 -132 -34t-100 -88t-63 -121t-22 -132q0 -103 48 -159t144 -56q30 0 62.5 6t64.5 16.5t61.5 23.5t53.5 28l-49 -242q-68 -35 -145 -54.5t-154 -19.5q-100 0 -175.5 31t-126.5 87t-76.5 133.5t-25.5 170.5q0 86 19.5 167.5
t56.5 153.5t91.5 133t125 105t156 68.5t184.5 24.5q46 0 87 -5.5t75 -14t60 -19t42 -19.5zM881 1325q0 -28 -11 -53.5t-30.5 -44.5t-47.5 -30t-63 -11q-34 0 -62.5 11t-48.5 30t-31 44.5t-11 53.5q0 30 11.5 54.5t32 42t48.5 27t61 9.5q68 0 110 -37t42 -96z" />
    <glyph glyph-name="Ccaron" unicode="&#x10c;" horiz-adv-x="1300" 
d="M1313 1087q-30 16 -64.5 32t-75.5 28.5t-88.5 20.5t-103.5 8q-130 0 -229.5 -44.5t-167.5 -119.5t-103 -174t-35 -209q0 -91 27 -161t77 -117.5t120 -72t157 -24.5q55 0 103 7.5t91 20t81.5 28.5t73.5 34l-68 -305q-74 -31 -163.5 -47.5t-201.5 -16.5q-150 0 -269 44.5
t-201 126.5t-125.5 196.5t-43.5 255.5q0 113 24 220.5t72.5 203t122 175.5t173 138t226 90.5t279.5 32.5q58 0 112 -6t103 -15.5t90.5 -21t73.5 -22.5zM1120 1567h-250l-168 327h196l117 -190l197 190h211z" />
    <glyph glyph-name="ccaron" unicode="&#x10d;" horiz-adv-x="946" 
d="M901 743q-34 26 -88 45t-117 19q-73 0 -132 -34t-100 -88t-63 -121t-22 -132q0 -103 48 -159t144 -56q30 0 62.5 6t64.5 16.5t61.5 23.5t53.5 28l-49 -242q-68 -35 -145 -54.5t-154 -19.5q-100 0 -175.5 31t-126.5 87t-76.5 133.5t-25.5 170.5q0 86 19.5 167.5
t56.5 153.5t91.5 133t125 105t156 68.5t184.5 24.5q46 0 87 -5.5t75 -14t60 -19t42 -19.5zM841 1186h-250l-168 327h196l117 -190l197 190h211z" />
    <glyph glyph-name="Dcaron" unicode="&#x10e;" horiz-adv-x="1542" 
d="M1499 854q0 -113 -23 -220.5t-69.5 -202.5t-117.5 -174t-167.5 -136t-219.5 -89t-273 -32h-580l305 1434h504q158 0 277.5 -43t200.5 -119.5t122 -183t41 -234.5zM1157 829q0 80 -22.5 143.5t-69 107.5t-117.5 67.5t-168 23.5h-157l-193 -909h197q122 0 220 40.5t167 115
t106 179t37 232.5zM1034 1567h-250l-168 327h196l117 -190l197 190h211z" />
    <glyph glyph-name="dcaron" unicode="&#x10f;" horiz-adv-x="1520" 
d="M1044 338q-7 -31 -13.5 -75t-12 -91.5t-9 -93t-3.5 -78.5h-320q0 14 1.5 37.5t4 48.5t5 48.5t3.5 37.5h-4q-31 -44 -64.5 -80t-72 -62t-83.5 -40.5t-99 -14.5q-74 0 -132.5 26t-99.5 75.5t-62.5 123t-21.5 167.5q0 135 45 258.5t130.5 217.5t208.5 150t280 56
q40 0 81.5 -4t67.5 -9l103 480h315zM778.5 824q-27.5 3 -53.5 3q-69 0 -121 -23t-90.5 -60.5t-64.5 -85t-41.5 -96t-22 -94t-6.5 -79.5q0 -37 8 -68.5t23.5 -54.5t40 -36t57.5 -13q55 0 98.5 32.5t77 85t56.5 118t38 131.5l51 231q-23 6 -50.5 9zM1767 1517l-243 -352h-194
l165 352h272z" />
    <glyph glyph-name="Dcroat" unicode="&#x110;" horiz-adv-x="1542" 
d="M1499 848q0 -172 -52 -326t-159.5 -270t-272 -184t-388.5 -68h-578l127 592h-168l53 262h170l123 580h500q159 0 279.5 -44t202 -122t122.5 -185.5t41 -234.5zM1157 823q0 79 -22.5 143.5t-69 110t-117.5 70t-168 24.5h-157l-68 -317h274l-55 -262h-274l-70 -330h186
q128 0 228.5 38.5t170 111.5t106 177t36.5 234z" />
    <glyph glyph-name="dcroat" unicode="&#x111;" horiz-adv-x="1214" 
d="M1255 1338h143l-35 -159h-143l-176 -841q-7 -31 -13.5 -75t-12 -91.5t-9 -93t-3.5 -78.5h-320q0 14 1.5 37.5t4 48.5t5 48.5t3.5 37.5h-4q-31 -44 -64.5 -80t-72 -62t-83.5 -40.5t-99 -14.5q-74 0 -132.5 26t-99.5 75.5t-62.5 123t-21.5 167.5q0 135 45 258.5
t130.5 217.5t208.5 150t280 56q40 0 81.5 -4t67.5 -9l30 143h-330l35 159h331l37 178h315zM778.5 824q-27.5 3 -53.5 3q-69 0 -121 -23t-90.5 -60.5t-64.5 -85t-41.5 -96t-22 -94t-6.5 -79.5q0 -37 8 -68.5t23.5 -54.5t40 -36t57.5 -13q55 0 98.5 32.5t77 85t56.5 118
t38 131.5l51 231q-23 6 -50.5 9z" />
    <glyph glyph-name="Emacron" unicode="&#x112;" horiz-adv-x="1085" 
d="M1124 1171h-501l-68 -323h467l-57 -264h-465l-70 -322h535l-56 -262h-860l305 1434h826zM1084 1567h-586l37 172h586z" />
    <glyph glyph-name="emacron" unicode="&#x113;" horiz-adv-x="1065" 
d="M1051 760q0 -79 -33.5 -145t-112 -114t-208.5 -75.5t-324 -30.5q-2 -6 -2 -10.5v-9.5q0 -31 10 -62t34.5 -56t64.5 -40.5t100 -15.5q36 0 78.5 6.5t86.5 19t87.5 30t80.5 38.5l-49 -236q-31 -16 -71 -31t-86.5 -27t-99 -19t-107.5 -7q-116 0 -199 34t-136.5 91.5
t-78.5 134.5t-25 164q0 131 43.5 249t124 207t194 141.5t253.5 52.5q101 0 172 -24t116 -64.5t66 -92.5t21 -108zM750 756q0 37 -27.5 61.5t-77.5 24.5q-44 0 -84.5 -19t-74 -52.5t-57.5 -80t-36 -100.5q180 -2 268.5 41t88.5 125zM935 1186h-586l37 172h586z" />
    <glyph glyph-name="Ebreve" unicode="&#x114;" horiz-adv-x="1085" 
d="M1124 1171h-501l-68 -323h467l-57 -264h-465l-70 -322h535l-56 -262h-860l305 1434h826zM1137 1749.5q-33 -56.5 -79.5 -97t-106 -63t-131.5 -22.5q-53 0 -100 15.5t-81.5 45.5t-54.5 74.5t-20 103.5q0 17 2.5 33t7.5 35h162q-2 -8 -3 -17.5t-1 -17.5q0 -51 32 -77.5
t78 -26.5q130 0 178 139h170q-20 -68 -53 -124.5z" />
    <glyph glyph-name="ebreve" unicode="&#x115;" horiz-adv-x="1065" 
d="M1051 760q0 -79 -33.5 -145t-112 -114t-208.5 -75.5t-324 -30.5q-2 -6 -2 -10.5v-9.5q0 -31 10 -62t34.5 -56t64.5 -40.5t100 -15.5q36 0 78.5 6.5t86.5 19t87.5 30t80.5 38.5l-49 -236q-31 -16 -71 -31t-86.5 -27t-99 -19t-107.5 -7q-116 0 -199 34t-136.5 91.5
t-78.5 134.5t-25 164q0 131 43.5 249t124 207t194 141.5t253.5 52.5q101 0 172 -24t116 -64.5t66 -92.5t21 -108zM750 756q0 37 -27.5 61.5t-77.5 24.5q-44 0 -84.5 -19t-74 -52.5t-57.5 -80t-36 -100.5q180 -2 268.5 41t88.5 125zM991 1368.5q-33 -56.5 -79.5 -97t-106 -63
t-131.5 -22.5q-53 0 -100 15.5t-81.5 45.5t-54.5 74.5t-20 103.5q0 17 2.5 33t7.5 35h162q-2 -8 -3 -17.5t-1 -17.5q0 -51 32 -77.5t78 -26.5q130 0 178 139h170q-20 -68 -53 -124.5z" />
    <glyph glyph-name="Edotaccent" unicode="&#x116;" horiz-adv-x="1085" 
d="M1124 1171h-501l-68 -323h467l-57 -264h-465l-70 -322h535l-56 -262h-860l305 1434h826zM980 1706q0 -28 -11 -53.5t-30.5 -44.5t-47.5 -30t-63 -11q-34 0 -62.5 11t-48.5 30t-31 44.5t-11 53.5q0 30 11.5 54.5t32 42t48.5 27t61 9.5q68 0 110 -37t42 -96z" />
    <glyph glyph-name="edotaccent" unicode="&#x117;" horiz-adv-x="1065" 
d="M1051 760q0 -79 -33.5 -145t-112 -114t-208.5 -75.5t-324 -30.5q-2 -6 -2 -10.5v-9.5q0 -31 10 -62t34.5 -56t64.5 -40.5t100 -15.5q36 0 78.5 6.5t86.5 19t87.5 30t80.5 38.5l-49 -236q-31 -16 -71 -31t-86.5 -27t-99 -19t-107.5 -7q-116 0 -199 34t-136.5 91.5
t-78.5 134.5t-25 164q0 131 43.5 249t124 207t194 141.5t253.5 52.5q101 0 172 -24t116 -64.5t66 -92.5t21 -108zM750 756q0 37 -27.5 61.5t-77.5 24.5q-44 0 -84.5 -19t-74 -52.5t-57.5 -80t-36 -100.5q180 -2 268.5 41t88.5 125zM855 1325q0 -28 -11 -53.5t-30.5 -44.5
t-47.5 -30t-63 -11q-34 0 -62.5 11t-48.5 30t-31 44.5t-11 53.5q0 30 11.5 54.5t32 42t48.5 27t61 9.5q68 0 110 -37t42 -96z" />
    <glyph glyph-name="Eogonek" unicode="&#x118;" horiz-adv-x="1085" 
d="M1124 1171h-501l-68 -323h467l-57 -264h-465l-70 -322h535l-56 -262h-114q-45 -43 -75 -75.5t-48 -58t-25.5 -45.5t-7.5 -38q0 -72 76 -72q23 0 51 8t45 17l-29 -142q-20 -11 -55.5 -19.5t-79.5 -8.5q-52 0 -89 12.5t-61 35t-35 53.5t-11 67q0 65 46.5 128t145.5 138
h-594l305 1434h826z" />
    <glyph glyph-name="eogonek" unicode="&#x119;" horiz-adv-x="1065" 
d="M1051 760q0 -79 -33.5 -145t-112 -114t-208.5 -75.5t-324 -30.5q-2 -6 -2 -10.5v-9.5q0 -31 10 -62t34.5 -56t64.5 -40.5t100 -15.5q36 0 78.5 6.5t86.5 19t87.5 30t80.5 38.5l-49 -236q-47 -25 -113.5 -46t-145.5 -31q-39 -38 -65.5 -67.5t-42 -52.5t-22.5 -42t-7 -37
q0 -72 76 -72q23 0 51 8t45 17l-29 -142q-20 -11 -55.5 -19.5t-79.5 -8.5q-52 0 -89 12.5t-61 35t-35 53.5t-11 67q0 60 39 118t123 126q-100 8 -172.5 44.5t-118.5 93t-68 129.5t-22 154q0 131 43.5 249t124 207t194 141.5t253.5 52.5q101 0 172 -24t116 -64.5t66 -92.5
t21 -108zM750 756q0 37 -27.5 61.5t-77.5 24.5q-44 0 -84.5 -19t-74 -52.5t-57.5 -80t-36 -100.5q180 -2 268.5 41t88.5 125z" />
    <glyph glyph-name="Ecaron" unicode="&#x11a;" horiz-adv-x="1085" 
d="M1124 1171h-501l-68 -323h467l-57 -264h-465l-70 -322h535l-56 -262h-860l305 1434h826zM911 1567h-250l-168 327h196l117 -190l197 190h211z" />
    <glyph glyph-name="ecaron" unicode="&#x11b;" horiz-adv-x="1065" 
d="M1051 760q0 -79 -33.5 -145t-112 -114t-208.5 -75.5t-324 -30.5q-2 -6 -2 -10.5v-9.5q0 -31 10 -62t34.5 -56t64.5 -40.5t100 -15.5q36 0 78.5 6.5t86.5 19t87.5 30t80.5 38.5l-49 -236q-31 -16 -71 -31t-86.5 -27t-99 -19t-107.5 -7q-116 0 -199 34t-136.5 91.5
t-78.5 134.5t-25 164q0 131 43.5 249t124 207t194 141.5t253.5 52.5q101 0 172 -24t116 -64.5t66 -92.5t21 -108zM750 756q0 37 -27.5 61.5t-77.5 24.5q-44 0 -84.5 -19t-74 -52.5t-57.5 -80t-36 -100.5q180 -2 268.5 41t88.5 125zM775 1186h-250l-168 327h196l117 -190
l197 190h211z" />
    <glyph glyph-name="Gcircumflex" unicode="&#x11c;" horiz-adv-x="1452" 
d="M1370 1081q-31 21 -72 40.5t-89.5 34t-103 23.5t-112.5 9q-125 0 -225.5 -40.5t-171 -114t-108 -177t-37.5 -229.5q0 -91 25 -163t71.5 -121t112.5 -75t147 -26q54 0 89.5 6.5t64.5 15.5l61 291h-291l55 258h613l-154 -727q-43 -21 -94 -40.5t-111 -35.5t-129 -25.5
t-149 -9.5q-154 0 -275.5 46t-204.5 130t-127 201.5t-44 259.5q0 112 25 218.5t74.5 200.5t124 172.5t174 135t224.5 88t275 31.5q68 0 129.5 -7.5t115.5 -19.5t99.5 -26.5t81.5 -28.5zM1165 1567l-116 190l-197 -190h-211l303 327h250l168 -327h-197z" />
    <glyph glyph-name="gcircumflex" unicode="&#x11d;" horiz-adv-x="1214" 
d="M999 123q-28 -134 -75 -245t-127 -190.5t-201 -124t-297 -44.5q-97 0 -179 20.5t-153 54.5l56 254q63 -42 138 -69t158 -27q78 0 136.5 21t101 62t70.5 101.5t45 139.5l18 90h-4q-26 -39 -57 -73.5t-68.5 -60.5t-83 -41.5t-102.5 -15.5q-78 0 -136.5 28.5t-98 79.5
t-59.5 122t-20 157t18.5 170.5t55.5 161t93 141.5t130.5 112.5t167.5 74.5t205 27q62 0 123.5 -4.5t120 -12t111.5 -17t98 -18.5zM775.5 824.5q-30.5 2.5 -64.5 2.5q-69 0 -129.5 -34t-105.5 -93t-71 -139t-26 -172q0 -37 7.5 -68.5t23.5 -54.5t39.5 -36t54.5 -13
q40 0 73.5 16t61 43.5t49 63.5t38.5 76t29.5 81t20.5 78l53 242q-23 5 -53.5 7.5zM952 1186l-116 190l-197 -190h-211l303 327h250l168 -327h-197z" />
    <glyph glyph-name="Gbreve" unicode="&#x11e;" horiz-adv-x="1452" 
d="M1370 1081q-31 21 -72 40.5t-89.5 34t-103 23.5t-112.5 9q-125 0 -225.5 -40.5t-171 -114t-108 -177t-37.5 -229.5q0 -91 25 -163t71.5 -121t112.5 -75t147 -26q54 0 89.5 6.5t64.5 15.5l61 291h-291l55 258h613l-154 -727q-43 -21 -94 -40.5t-111 -35.5t-129 -25.5
t-149 -9.5q-154 0 -275.5 46t-204.5 130t-127 201.5t-44 259.5q0 112 25 218.5t74.5 200.5t124 172.5t174 135t224.5 88t275 31.5q68 0 129.5 -7.5t115.5 -19.5t99.5 -26.5t81.5 -28.5zM1316 1749.5q-33 -56.5 -79.5 -97t-106 -63t-131.5 -22.5q-53 0 -100 15.5t-81.5 45.5
t-54.5 74.5t-20 103.5q0 17 2.5 33t7.5 35h162q-2 -8 -3 -17.5t-1 -17.5q0 -51 32 -77.5t78 -26.5q130 0 178 139h170q-20 -68 -53 -124.5z" />
    <glyph glyph-name="gbreve" unicode="&#x11f;" horiz-adv-x="1214" 
d="M999 123q-28 -134 -75 -245t-127 -190.5t-201 -124t-297 -44.5q-97 0 -179 20.5t-153 54.5l56 254q63 -42 138 -69t158 -27q78 0 136.5 21t101 62t70.5 101.5t45 139.5l18 90h-4q-26 -39 -57 -73.5t-68.5 -60.5t-83 -41.5t-102.5 -15.5q-78 0 -136.5 28.5t-98 79.5
t-59.5 122t-20 157t18.5 170.5t55.5 161t93 141.5t130.5 112.5t167.5 74.5t205 27q62 0 123.5 -4.5t120 -12t111.5 -17t98 -18.5zM775.5 824.5q-30.5 2.5 -64.5 2.5q-69 0 -129.5 -34t-105.5 -93t-71 -139t-26 -172q0 -37 7.5 -68.5t23.5 -54.5t39.5 -36t54.5 -13
q40 0 73.5 16t61 43.5t49 63.5t38.5 76t29.5 81t20.5 78l53 242q-23 5 -53.5 7.5zM1099 1368.5q-33 -56.5 -79.5 -97t-106 -63t-131.5 -22.5q-53 0 -100 15.5t-81.5 45.5t-54.5 74.5t-20 103.5q0 17 2.5 33t7.5 35h162q-2 -8 -3 -17.5t-1 -17.5q0 -51 32 -77.5t78 -26.5
q130 0 178 139h170q-20 -68 -53 -124.5z" />
    <glyph glyph-name="Gdotaccent" unicode="&#x120;" horiz-adv-x="1452" 
d="M1370 1081q-31 21 -72 40.5t-89.5 34t-103 23.5t-112.5 9q-125 0 -225.5 -40.5t-171 -114t-108 -177t-37.5 -229.5q0 -91 25 -163t71.5 -121t112.5 -75t147 -26q54 0 89.5 6.5t64.5 15.5l61 291h-291l55 258h613l-154 -727q-43 -21 -94 -40.5t-111 -35.5t-129 -25.5
t-149 -9.5q-154 0 -275.5 46t-204.5 130t-127 201.5t-44 259.5q0 112 25 218.5t74.5 200.5t124 172.5t174 135t224.5 88t275 31.5q68 0 129.5 -7.5t115.5 -19.5t99.5 -26.5t81.5 -28.5zM1207 1706q0 -28 -11 -53.5t-30.5 -44.5t-47.5 -30t-63 -11q-34 0 -62.5 11t-48.5 30
t-31 44.5t-11 53.5q0 30 11.5 54.5t32 42t48.5 27t61 9.5q68 0 110 -37t42 -96z" />
    <glyph glyph-name="gdotaccent" unicode="&#x121;" horiz-adv-x="1214" 
d="M999 123q-28 -134 -75 -245t-127 -190.5t-201 -124t-297 -44.5q-97 0 -179 20.5t-153 54.5l56 254q63 -42 138 -69t158 -27q78 0 136.5 21t101 62t70.5 101.5t45 139.5l18 90h-4q-26 -39 -57 -73.5t-68.5 -60.5t-83 -41.5t-102.5 -15.5q-78 0 -136.5 28.5t-98 79.5
t-59.5 122t-20 157t18.5 170.5t55.5 161t93 141.5t130.5 112.5t167.5 74.5t205 27q62 0 123.5 -4.5t120 -12t111.5 -17t98 -18.5zM775.5 824.5q-30.5 2.5 -64.5 2.5q-69 0 -129.5 -34t-105.5 -93t-71 -139t-26 -172q0 -37 7.5 -68.5t23.5 -54.5t39.5 -36t54.5 -13
q40 0 73.5 16t61 43.5t49 63.5t38.5 76t29.5 81t20.5 78l53 242q-23 5 -53.5 7.5zM947 1325q0 -28 -11 -53.5t-30.5 -44.5t-47.5 -30t-63 -11q-34 0 -62.5 11t-48.5 30t-31 44.5t-11 53.5q0 30 11.5 54.5t32 42t48.5 27t61 9.5q68 0 110 -37t42 -96z" />
    <glyph glyph-name="uni0122" unicode="&#x122;" horiz-adv-x="1452" 
d="M1370 1081q-31 21 -72 40.5t-89.5 34t-103 23.5t-112.5 9q-125 0 -225.5 -40.5t-171 -114t-108 -177t-37.5 -229.5q0 -91 25 -163t71.5 -121t112.5 -75t147 -26q54 0 89.5 6.5t64.5 15.5l61 291h-291l55 258h613l-154 -727q-43 -21 -94 -40.5t-111 -35.5t-129 -25.5
t-149 -9.5q-154 0 -275.5 46t-204.5 130t-127 201.5t-44 259.5q0 112 25 218.5t74.5 200.5t124 172.5t174 135t224.5 88t275 31.5q68 0 129.5 -7.5t115.5 -19.5t99.5 -26.5t81.5 -28.5zM845 -111l-168 -352h-194l90 352h272z" />
    <glyph glyph-name="uni0123" unicode="&#x123;" horiz-adv-x="1214" 
d="M999 123q-28 -134 -75 -245t-127 -190.5t-201 -124t-297 -44.5q-97 0 -179 20.5t-153 54.5l56 254q63 -42 138 -69t158 -27q78 0 136.5 21t101 62t70.5 101.5t45 139.5l18 90h-4q-26 -39 -57 -73.5t-68.5 -60.5t-83 -41.5t-102.5 -15.5q-78 0 -136.5 28.5t-98 79.5
t-59.5 122t-20 157t18.5 170.5t55.5 161t93 141.5t130.5 112.5t167.5 74.5t205 27q62 0 123.5 -4.5t120 -12t111.5 -17t98 -18.5zM775.5 824.5q-30.5 2.5 -64.5 2.5q-69 0 -129.5 -34t-105.5 -93t-71 -139t-26 -172q0 -37 7.5 -68.5t23.5 -54.5t39.5 -36t54.5 -13
q40 0 73.5 16t61 43.5t49 63.5t38.5 76t29.5 81t20.5 78l53 242q-23 5 -53.5 7.5zM598 1186l243 352h194l-165 -352h-272z" />
    <glyph glyph-name="Hcircumflex" unicode="&#x124;" horiz-adv-x="1565" 
d="M1290 0h-325l122 580h-589l-123 -580h-326l305 1434h326l-123 -572h590l123 572h325zM1145 1567l-116 190l-197 -190h-211l303 327h250l168 -327h-197z" />
    <glyph glyph-name="hcircumflex" unicode="&#x125;" horiz-adv-x="1225" 
d="M1151 780q0 -15 -3 -40t-7.5 -52t-9.5 -52.5t-9 -43.5l-125 -592h-317l123 584q6 32 12 66t6 52q0 50 -25.5 77.5t-74.5 27.5q-39 0 -82.5 -24.5t-82.5 -65.5t-70 -96t-44 -117l-106 -504h-320l322 1516h319l-147 -689h4q37 48 81.5 88.5t94 70t102 46.5t103.5 17
q125 0 190.5 -69.5t65.5 -199.5zM1018 1649l-116 190l-197 -190h-211l303 327h250l168 -327h-197z" />
    <glyph glyph-name="Hbar" unicode="&#x126;" horiz-adv-x="1565" 
d="M1290 0h-325l122 580h-589l-123 -580h-326l216 1018h-163l44 205h163l45 211h326l-46 -211h590l46 211h325l-45 -211h165l-44 -205h-165zM1147 862l33 156h-590l-33 -156h590z" />
    <glyph glyph-name="hbar" unicode="&#x127;" horiz-adv-x="1225" 
d="M1151 780q0 -15 -3 -40t-7.5 -52t-9.5 -52.5t-9 -43.5l-125 -592h-317l123 584q6 32 12 66t6 52q0 50 -25.5 77.5t-74.5 27.5q-39 0 -82.5 -24.5t-82.5 -65.5t-70 -96t-44 -117l-106 -504h-320l251 1179h-112l33 159h112l38 178h319l-38 -178h328l-33 -159h-328l-76 -352
h4q37 48 81.5 88.5t94 70t102 46.5t103.5 17q125 0 190.5 -69.5t65.5 -199.5z" />
    <glyph glyph-name="Itilde" unicode="&#x128;" horiz-adv-x="649" 
d="M375 0h-326l303 1434h326zM900 1725q-24 -53 -58.5 -88t-77 -52.5t-90.5 -17.5q-51 0 -86.5 13t-63 28t-52 28t-54.5 13q-25 0 -44 -8.5t-32 -22.5t-21 -32t-11 -37h-154q7 61 28.5 112.5t55 89t79 59t101.5 21.5q50 0 83 -13t60 -28t53 -28t60 -13q41 0 68.5 26.5
t34.5 74.5h155q-10 -72 -34 -125z" />
    <glyph glyph-name="itilde" unicode="&#x129;" horiz-adv-x="650" 
d="M535 9q-18 -5 -41.5 -10t-50 -9.5t-55 -7t-56.5 -2.5q-67 0 -114.5 17.5t-78.5 49t-45.5 75t-14.5 95.5q0 22 2.5 49t6.5 56.5t9.5 60t11.5 58.5q4 17 13.5 62.5t22 104.5t26.5 124.5t26.5 124.5t22 104.5t13.5 62.5h320l-122 -576q-8 -35 -17 -78.5t-9 -75.5
q0 -38 24 -53t55 -15q26 0 52.5 5.5t48.5 14.5q-13 -60 -25 -118.5t-25 -118.5zM795 1362q-24 -53 -58.5 -88t-77 -52.5t-90.5 -17.5q-51 0 -86.5 13t-63 28t-52 28t-54.5 13q-25 0 -44 -8.5t-32 -22.5t-21 -32t-11 -37h-154q7 61 28.5 112.5t55 89t79 59t101.5 21.5
q50 0 83 -13t60 -28t53 -28t60 -13q41 0 68.5 26.5t34.5 74.5h155q-10 -72 -34 -125z" />
    <glyph glyph-name="Imacron" unicode="&#x12a;" horiz-adv-x="649" 
d="M375 0h-326l303 1434h326zM819 1567h-586l37 172h586z" />
    <glyph glyph-name="imacron" unicode="&#x12b;" horiz-adv-x="650" 
d="M535 9q-18 -5 -41.5 -10t-50 -9.5t-55 -7t-56.5 -2.5q-67 0 -114.5 17.5t-78.5 49t-45.5 75t-14.5 95.5q0 22 2.5 49t6.5 56.5t9.5 60t11.5 58.5q4 17 13.5 62.5t22 104.5t26.5 124.5t26.5 124.5t22 104.5t13.5 62.5h320l-122 -576q-8 -35 -17 -78.5t-9 -75.5
q0 -38 24 -53t55 -15q26 0 52.5 5.5t48.5 14.5q-13 -60 -25 -118.5t-25 -118.5zM695 1186h-586l37 172h586z" />
    <glyph glyph-name="Ibreve" unicode="&#x12c;" horiz-adv-x="649" 
d="M375 0h-326l303 1434h326zM882 1749.5q-33 -56.5 -79.5 -97t-106 -63t-131.5 -22.5q-53 0 -100 15.5t-81.5 45.5t-54.5 74.5t-20 103.5q0 17 2.5 33t7.5 35h162q-2 -8 -3 -17.5t-1 -17.5q0 -51 32 -77.5t78 -26.5q130 0 178 139h170q-20 -68 -53 -124.5z" />
    <glyph glyph-name="ibreve" unicode="&#x12d;" horiz-adv-x="650" 
d="M535 9q-18 -5 -41.5 -10t-50 -9.5t-55 -7t-56.5 -2.5q-67 0 -114.5 17.5t-78.5 49t-45.5 75t-14.5 95.5q0 22 2.5 49t6.5 56.5t9.5 60t11.5 58.5q4 17 13.5 62.5t22 104.5t26.5 124.5t26.5 124.5t22 104.5t13.5 62.5h320l-122 -576q-8 -35 -17 -78.5t-9 -75.5
q0 -38 24 -53t55 -15q26 0 52.5 5.5t48.5 14.5q-13 -60 -25 -118.5t-25 -118.5zM697 1368.5q-33 -56.5 -79.5 -97t-106 -63t-131.5 -22.5q-53 0 -100 15.5t-81.5 45.5t-54.5 74.5t-20 103.5q0 17 2.5 33t7.5 35h162q-2 -8 -3 -17.5t-1 -17.5q0 -51 32 -77.5t78 -26.5
q130 0 178 139h170q-20 -68 -53 -124.5z" />
    <glyph glyph-name="Iogonek" unicode="&#x12e;" horiz-adv-x="649" 
d="M375 0h-33q-45 -43 -75 -75.5t-48 -58t-25.5 -45.5t-7.5 -38q0 -72 76 -72q23 0 51 8t45 17l-29 -142q-20 -11 -55.5 -19.5t-79.5 -8.5q-52 0 -89 12.5t-61 35t-35 53.5t-11 67q0 65 46.5 128t145.5 138h-141l303 1434h326z" />
    <glyph glyph-name="iogonek" unicode="&#x12f;" horiz-adv-x="650" 
d="M535 9q-32 -8 -79.5 -17t-98.5 -11q-39 -38 -64.5 -67.5t-41.5 -52.5t-22.5 -42t-6.5 -36q0 -72 76 -72q23 0 51 8t45 17l-29 -142q-20 -11 -55.5 -19.5t-79.5 -8.5q-52 0 -89 12.5t-61 35t-35 53.5t-11 67q0 60 45 127.5t135 137.5q-71 26 -103 83.5t-32 134.5
q0 22 2.5 49t6.5 56.5t9.5 60t11.5 58.5q4 17 13.5 62.5t22 104.5t26.5 124.5t26.5 124.5t22 104.5t13.5 62.5h320l-122 -576q-8 -35 -17 -78.5t-9 -75.5q0 -38 24 -53t55 -15q26 0 52.5 5.5t48.5 14.5q-13 -60 -25 -118.5t-25 -118.5zM639 1354q0 -39 -15 -70t-40.5 -53.5
t-60 -34.5t-74.5 -12q-38 0 -70.5 11.5t-56 32t-37 48.5t-13.5 61q0 39 14.5 70t40 53.5t60.5 34.5t76 12q38 0 70 -11.5t55.5 -32t37 -48.5t13.5 -61z" />
    <glyph glyph-name="Idotaccent" unicode="&#x130;" horiz-adv-x="649" 
d="M375 0h-326l303 1434h326zM706 1706q0 -28 -11 -53.5t-30.5 -44.5t-47.5 -30t-63 -11q-34 0 -62.5 11t-48.5 30t-31 44.5t-11 53.5q0 30 11.5 54.5t32 42t48.5 27t61 9.5q68 0 110 -37t42 -96z" />
    <glyph glyph-name="dotlessi" unicode="&#x131;" horiz-adv-x="650" 
d="M535 9q-18 -5 -41.5 -10t-50 -9.5t-55 -7t-56.5 -2.5q-67 0 -114.5 17.5t-78.5 49t-45.5 75t-14.5 95.5q0 22 2.5 49t6.5 56.5t9.5 60t11.5 58.5q4 17 13.5 62.5t22 104.5t26.5 124.5t26.5 124.5t22 104.5t13.5 62.5h320l-122 -576q-8 -35 -17 -78.5t-9 -75.5
q0 -38 24 -53t55 -15q26 0 52.5 5.5t48.5 14.5q-13 -60 -25 -118.5t-25 -118.5z" />
    <glyph glyph-name="IJ" unicode="&#x132;" horiz-adv-x="1561" 
d="M375 0h-326l303 1434h326zM1416 573q-29 -138 -80 -248.5t-128 -188.5t-181.5 -119.5t-241.5 -41.5q-24 0 -55 4t-61.5 10t-57.5 14t-43 15l59 299q15 -12 36 -23.5t44.5 -20t47.5 -14t46 -5.5q113 0 184.5 79.5t106.5 248.5l183 852h325z" />
    <glyph glyph-name="ij" unicode="&#x133;" horiz-adv-x="1188" 
d="M639 1354q0 -39 -15 -70t-40.5 -53.5t-60 -34.5t-74.5 -12q-38 0 -70.5 11.5t-56 32t-37 48.5t-13.5 61q0 39 14.5 70t40 53.5t60.5 34.5t76 12q38 0 70 -11.5t55.5 -32t37 -48.5t13.5 -61zM535 9q-18 -5 -41.5 -10t-50 -9.5t-55 -7t-56.5 -2.5q-67 0 -114.5 17.5
t-78.5 49t-45.5 75t-14.5 95.5q0 22 2.5 49t6.5 56.5t9.5 60t11.5 58.5q4 17 13.5 62.5t22 104.5t26.5 124.5t26.5 124.5t22 104.5t13.5 62.5h320l-122 -576q-8 -35 -17 -78.5t-9 -75.5q0 -38 24 -53t55 -15q26 0 52.5 5.5t48.5 14.5q-13 -60 -25 -118.5t-25 -118.5z
M1289 1354q0 -39 -15 -70t-40.5 -53.5t-60 -34.5t-74.5 -12q-38 0 -70.5 11.5t-56 32t-37 48.5t-13.5 61q0 39 14.5 70t40 53.5t60.5 34.5t76 12q38 0 70 -11.5t55.5 -32t37 -48.5t13.5 -61zM996 53q-23 -108 -61.5 -205t-101 -170t-152.5 -116t-215 -43q-44 0 -88 9t-72 23
l51 242q9 -6 21.5 -12t27 -10.5t29.5 -7.5t27 -3q75 0 127 61t81 199l213 1004h320z" />
    <glyph glyph-name="Jcircumflex" unicode="&#x134;" horiz-adv-x="907" 
d="M762 573q-29 -138 -80 -248.5t-128 -188.5t-181.5 -119.5t-241.5 -41.5q-24 0 -55 4t-61.5 10t-57.5 14t-43 15l59 299q15 -12 36 -23.5t44.5 -20t47.5 -14t46 -5.5q113 0 184.5 79.5t106.5 248.5l183 852h325zM948 1567l-116 190l-197 -190h-211l303 327h250l168 -327
h-197z" />
    <glyph glyph-name="jcircumflex" unicode="&#x135;" horiz-adv-x="578" 
d="M346 53q-23 -108 -61.5 -205t-101 -170t-152.5 -116t-215 -43q-44 0 -88 9t-72 23l51 242q9 -6 21.5 -12t27 -10.5t29.5 -7.5t27 -3q75 0 127 61t81 199l213 1004h320zM577 1186l-116 190l-197 -190h-211l303 327h250l168 -327h-197z" />
    <glyph glyph-name="uni0136" unicode="&#x136;" horiz-adv-x="1333" 
d="M1434 1348.5q-51 -55.5 -115.5 -123t-136 -141t-136 -141t-115.5 -123t-75 -85.5q13 -33 43 -91.5t68.5 -129t82 -147t82 -147t68.5 -129t43 -91.5h-393q-9 26 -32 75t-53.5 109t-64.5 125.5t-64.5 125.5t-54 108.5t-32.5 74.5q-8 17 -15 38.5t-10 33.5h-4l-145 -690
h-326l305 1434h326l-141 -666h4q11 15 25.5 33t23.5 30q20 25 61.5 72.5t93 106t108.5 122.5t108.5 122.5t92 106t58.5 73.5h395q-24 -30 -75 -85.5zM752 -111l-168 -352h-194l90 352h272z" />
    <glyph glyph-name="uni0137" unicode="&#x137;" horiz-adv-x="1151" 
d="M764 541l264 -541h-352l-225 532h-5l-112 -532h-318l322 1516h319l-200 -936h4l407 444h375zM636 -111l-168 -352h-194l90 352h272z" />
    <glyph glyph-name="kgreenlandic" unicode="&#x138;" horiz-adv-x="1151" 
d="M764 541l264 -541h-352l-225 532h-5l-112 -532h-318l217 1024h319l-95 -444h4l407 444h375z" />
    <glyph glyph-name="Lacute" unicode="&#x139;" horiz-adv-x="1049" 
d="M905 0h-856l305 1434h326l-248 -1168h529zM875 1567h-235l315 325h289z" />
    <glyph glyph-name="lacute" unicode="&#x13a;" horiz-adv-x="650" 
d="M535 9q-18 -5 -41.5 -10t-50 -9.5t-55 -7t-56.5 -2.5q-67 0 -114.5 17.5t-78.5 49t-45.5 75t-14.5 95.5q0 22 2.5 49t6.5 56.5t9.5 60t11.5 58.5q3 13 13.5 63.5t26.5 124.5t35 164.5t39.5 185t39.5 185t35 164.5t26.5 124.5t13.5 63.5h320l-227 -1068q-8 -35 -17 -78.5
t-9 -75.5q0 -38 24 -53t55 -15q26 0 52.5 5.5t48.5 14.5q-13 -60 -25 -118.5t-25 -118.5zM568 1649h-235l315 325h289z" />
    <glyph glyph-name="uni013B" unicode="&#x13b;" horiz-adv-x="1049" 
d="M690 -229q0 -45 -20 -86t-62 -72.5t-105.5 -50.5t-150.5 -19q-30 0 -57.5 2t-52.5 4l31 138q42 -9 75 -9q66 0 103 21.5t37 56.5q0 64 -111 64h-22t-25 -2l43 182h-324l305 1434h326l-248 -1168h529l-56 -266h-378l-19 -82q40 -2 73.5 -11.5t57.5 -27.5t37.5 -45
t13.5 -63z" />
    <glyph glyph-name="uni013C" unicode="&#x13c;" horiz-adv-x="650" 
d="M535 9q-18 -5 -41.5 -10t-50 -9.5t-55 -7t-56.5 -2.5h-11l-14 -62q40 -2 73.5 -11.5t57.5 -27.5t37.5 -45t13.5 -63q0 -45 -20 -86t-62 -72.5t-105.5 -50.5t-150.5 -19q-30 0 -57.5 2t-52.5 4l31 138q42 -9 75 -9q66 0 103 21.5t37 56.5q0 64 -111 64h-22t-25 -2l47 199
q-51 31 -74 82.5t-23 117.5q0 22 2.5 49t6.5 56.5t9.5 60t11.5 58.5q3 13 13.5 63.5t26.5 124.5t35 164.5t39.5 185t39.5 185t35 164.5t26.5 124.5t13.5 63.5h320l-227 -1068q-8 -35 -17 -78.5t-9 -75.5q0 -38 24 -53t55 -15q26 0 52.5 5.5t48.5 14.5q-13 -60 -25 -118.5
t-25 -118.5z" />
    <glyph glyph-name="Lcaron" unicode="&#x13d;" horiz-adv-x="1049" 
d="M905 0h-856l305 1434h326l-248 -1168h529zM1224 1434l-243 -352h-194l165 352h272z" />
    <glyph glyph-name="lcaron" unicode="&#x13e;" horiz-adv-x="885" 
d="M535 9q-18 -5 -41.5 -10t-50 -9.5t-55 -7t-56.5 -2.5q-67 0 -114.5 17.5t-78.5 49t-45.5 75t-14.5 95.5q0 22 2.5 49t6.5 56.5t9.5 60t11.5 58.5q3 13 13.5 63.5t26.5 124.5t35 164.5t39.5 185t39.5 185t35 164.5t26.5 124.5t13.5 63.5h320l-227 -1068q-8 -35 -17 -78.5
t-9 -75.5q0 -38 24 -53t55 -15q26 0 52.5 5.5t48.5 14.5q-13 -60 -25 -118.5t-25 -118.5zM1132 1516l-243 -352h-194l165 352h272z" />
    <glyph glyph-name="Ldot" unicode="&#x13f;" horiz-adv-x="1049" 
d="M905 0h-856l305 1434h326l-248 -1168h529zM1028 788q0 -28 -11 -53.5t-30.5 -44.5t-47.5 -30t-63 -11q-34 0 -62.5 11t-48.5 30t-31 44.5t-11 53.5q0 30 11.5 54.5t32 42t48.5 27t61 9.5q68 0 110 -37t42 -96z" />
    <glyph glyph-name="ldot" unicode="&#x140;" horiz-adv-x="887" 
d="M535 9q-18 -5 -41.5 -10t-50 -9.5t-55 -7t-56.5 -2.5q-67 0 -114.5 17.5t-78.5 49t-45.5 75t-14.5 95.5q0 22 2.5 49t6.5 56.5t9.5 60t11.5 58.5q3 13 13.5 63.5t26.5 124.5t35 164.5t39.5 185t39.5 185t35 164.5t26.5 124.5t13.5 63.5h320l-227 -1068q-8 -35 -17 -78.5
t-9 -75.5q0 -38 24 -53t55 -15q26 0 52.5 5.5t48.5 14.5q-13 -60 -25 -118.5t-25 -118.5zM926 728q0 -28 -11 -53.5t-30.5 -44.5t-47.5 -30t-63 -11q-34 0 -62.5 11t-48.5 30t-31 44.5t-11 53.5q0 30 11.5 54.5t32 42t48.5 27t61 9.5q68 0 110 -37t42 -96z" />
    <glyph glyph-name="Lslash" unicode="&#x141;" horiz-adv-x="1049" 
d="M905 0h-856l107 500l-179 -70l56 262l180 70l141 672h326l-113 -533l293 115l-55 -262l-295 -115l-78 -373h529z" />
    <glyph glyph-name="lslash" unicode="&#x142;" horiz-adv-x="680" 
d="M569 9q-18 -5 -41.5 -10t-50 -9.5t-55 -7t-56.5 -2.5q-67 0 -114.5 17.5t-78.5 49t-45.5 75t-14.5 95.5q0 22 2.5 49t6.5 56.5t9.5 60t11.5 58.5q2 7 6 26t10 48l-130 -71l51 252l133 72q16 75 33.5 156.5t34 161t32 152.5t28 131t21 97t10.5 50h320l-118 -557l143 77
l-53 -252l-144 -75l-55 -261q-8 -35 -17 -78.5t-9 -75.5q0 -38 24 -53t55 -15q26 0 52.5 5.5t48.5 14.5q-13 -60 -25 -118.5t-25 -118.5z" />
    <glyph glyph-name="Nacute" unicode="&#x143;" horiz-adv-x="1636" 
d="M1362 0h-295l-449 911q-6 12 -13 28t-14 32.5t-13 31.5t-9 27h-6q-5 -37 -11 -83t-17 -91l-183 -856h-303l303 1434h320l430 -877q5 -11 12.5 -26.5t15 -32t14 -32.5t9.5 -28h4q1 15 3 33.5t5 37.5t6.5 37t6.5 32l182 856h305zM1066 1567h-235l315 325h289z" />
    <glyph glyph-name="nacute" unicode="&#x144;" horiz-adv-x="1225" 
d="M1151 780q0 -15 -3 -40t-7.5 -52t-9.5 -52.5t-9 -43.5l-125 -592h-317l123 584q6 32 12 66t6 52q0 48 -24.5 76.5t-73.5 28.5q-41 0 -85.5 -25.5t-83.5 -67.5t-68.5 -96.5t-41.5 -111.5l-106 -506h-322l152 702q9 46 18 92.5t16 89t12.5 79t8.5 61.5h312
q-3 -28 -6.5 -58.5t-7 -58.5t-6.5 -49.5t-5 -30.5h4q35 46 79 86.5t93.5 70.5t102.5 47.5t106 17.5q127 0 191.5 -70.5t64.5 -198.5zM818 1186h-235l315 325h289z" />
    <glyph glyph-name="uni0145" unicode="&#x145;" horiz-adv-x="1636" 
d="M1362 0h-295l-449 911q-6 12 -13 28t-14 32.5t-13 31.5t-9 27h-6q-5 -37 -11 -83t-17 -91l-183 -856h-303l303 1434h320l430 -877q5 -11 12.5 -26.5t15 -32t14 -32.5t9.5 -28h4q1 15 3 33.5t5 37.5t6.5 37t6.5 32l182 856h305zM852 -111l-168 -352h-194l90 352h272z" />
    <glyph glyph-name="uni0146" unicode="&#x146;" horiz-adv-x="1225" 
d="M1151 780q0 -15 -3 -40t-7.5 -52t-9.5 -52.5t-9 -43.5l-125 -592h-317l123 584q6 32 12 66t6 52q0 48 -24.5 76.5t-73.5 28.5q-41 0 -85.5 -25.5t-83.5 -67.5t-68.5 -96.5t-41.5 -111.5l-106 -506h-322l152 702q9 46 18 92.5t16 89t12.5 79t8.5 61.5h312
q-3 -28 -6.5 -58.5t-7 -58.5t-6.5 -49.5t-5 -30.5h4q35 46 79 86.5t93.5 70.5t102.5 47.5t106 17.5q127 0 191.5 -70.5t64.5 -198.5zM631 -111l-168 -352h-194l90 352h272z" />
    <glyph glyph-name="Ncaron" unicode="&#x147;" horiz-adv-x="1636" 
d="M1362 0h-295l-449 911q-6 12 -13 28t-14 32.5t-13 31.5t-9 27h-6q-5 -37 -11 -83t-17 -91l-183 -856h-303l303 1434h320l430 -877q5 -11 12.5 -26.5t15 -32t14 -32.5t9.5 -28h4q1 15 3 33.5t5 37.5t6.5 37t6.5 32l182 856h305zM1127 1567h-250l-168 327h196l117 -190
l197 190h211z" />
    <glyph glyph-name="ncaron" unicode="&#x148;" horiz-adv-x="1225" 
d="M1151 780q0 -15 -3 -40t-7.5 -52t-9.5 -52.5t-9 -43.5l-125 -592h-317l123 584q6 32 12 66t6 52q0 48 -24.5 76.5t-73.5 28.5q-41 0 -85.5 -25.5t-83.5 -67.5t-68.5 -96.5t-41.5 -111.5l-106 -506h-322l152 702q9 46 18 92.5t16 89t12.5 79t8.5 61.5h312
q-3 -28 -6.5 -58.5t-7 -58.5t-6.5 -49.5t-5 -30.5h4q35 46 79 86.5t93.5 70.5t102.5 47.5t106 17.5q127 0 191.5 -70.5t64.5 -198.5zM877 1186h-250l-168 327h196l117 -190l197 190h211z" />
    <glyph glyph-name="napostrophe" unicode="&#x149;" horiz-adv-x="1466" 
d="M1392 780q0 -15 -3 -40t-7.5 -52t-9.5 -52.5t-9 -43.5l-125 -592h-317l123 584q6 32 12 66t6 52q0 48 -24.5 76.5t-73.5 28.5q-41 0 -85.5 -25.5t-83.5 -67.5t-68.5 -96.5t-41.5 -111.5l-106 -506h-322l152 702q9 46 18 92.5t16 89t12.5 79t8.5 61.5h312
q-3 -28 -6.5 -58.5t-7 -58.5t-6.5 -49.5t-5 -30.5h4q35 46 79 86.5t93.5 70.5t102.5 47.5t106 17.5q127 0 191.5 -70.5t64.5 -198.5zM309 1008h-194l158 444h251z" />
    <glyph glyph-name="Eng" unicode="&#x14a;" horiz-adv-x="1636" 
d="M618 911q-6 12 -13 28t-14 32.5t-13 31.5t-9 27h-6q-5 -37 -11 -83t-17 -91l-183 -856h-303l303 1434h349l400 -892q5 -11 12.5 -26.5t15 -32t14 -32.5t9.5 -28h4q1 15 3 33.5t5 37.5t6.5 37t6.5 32l183 871h305l-299 -1414q-18 -86 -58 -165.5t-110 -140.5t-174 -97.5
t-250 -36.5q-30 0 -62.5 4t-62.5 10t-56 13.5t-42 15.5l59 299q15 -12 38.5 -23.5t49.5 -20t52.5 -14t48.5 -5.5q95 0 151 42.5t74 108.5z" />
    <glyph glyph-name="eng" unicode="&#x14b;" horiz-adv-x="1225" 
d="M1005 36q-18 -88 -53.5 -171t-96 -147.5t-149.5 -104t-214 -39.5q-44 0 -88 9t-72 23l51 242q9 -6 21.5 -12t27 -10.5t29.5 -7.5t27 -3q75 0 127 61t81 199l107 509q7 32 12.5 66t5.5 52q0 48 -24.5 76.5t-73.5 28.5q-41 0 -85.5 -25.5t-83.5 -67.5t-68.5 -96.5
t-41.5 -111.5l-106 -506h-322l152 702q9 46 18 92.5t16 89t12.5 79t8.5 61.5h312q-3 -28 -6.5 -58.5t-7 -58.5t-6.5 -49.5t-5 -30.5h4q35 46 79 86.5t93.5 70.5t102.5 47.5t106 17.5q127 0 191.5 -70.5t64.5 -198.5q0 -15 -3 -40t-7.5 -52t-9.5 -52.5t-9 -43.5z" />
    <glyph glyph-name="Omacron" unicode="&#x14c;" horiz-adv-x="1554" 
d="M1511 842q0 -86 -15 -173t-44.5 -168.5t-74 -156.5t-103.5 -137q-50 -53 -109 -96t-128.5 -73t-150.5 -46.5t-175 -16.5q-142 0 -253.5 47t-188.5 129.5t-117.5 195.5t-40.5 245q0 93 16 183.5t48.5 174t81 159t112.5 138.5q50 48 108 86.5t125 66.5t144 43t165 15
q133 0 243.5 -42t189.5 -121.5t123 -194t44 -258.5zM1169 831q0 81 -20.5 145t-58.5 108.5t-92.5 68t-123.5 23.5q-80 0 -152 -37t-128 -103q-34 -40 -60 -92t-44 -110t-27.5 -118.5t-9.5 -119.5q0 -81 20.5 -145t58.5 -107.5t91.5 -66.5t119.5 -23q82 0 156.5 36t130.5 107
q35 42 61 94.5t43 109.5t26 116t9 114zM1250 1567h-586l37 172h586z" />
    <glyph glyph-name="omacron" unicode="&#x14d;" horiz-adv-x="1178" 
d="M1116 618q0 -71 -14 -146t-44 -146.5t-77.5 -135.5t-115 -111.5t-156 -75.5t-201.5 -28q-114 0 -198.5 33t-139.5 91t-82 137.5t-27 171.5q0 74 15 150.5t46.5 147.5t80.5 133.5t117 109t155.5 73.5t196.5 27q107 0 189.5 -30.5t139 -87t86 -136t29.5 -177.5zM797 614
q0 42 -10 77.5t-29.5 61t-47.5 40t-65 14.5q-63 0 -112.5 -36t-83.5 -93t-52 -128t-18 -142q0 -91 42.5 -141t110.5 -50q65 0 114.5 35t83 91.5t50.5 127.5t17 143zM982 1186h-586l37 172h586z" />
    <glyph glyph-name="Obreve" unicode="&#x14e;" horiz-adv-x="1554" 
d="M1511 842q0 -86 -15 -173t-44.5 -168.5t-74 -156.5t-103.5 -137q-50 -53 -109 -96t-128.5 -73t-150.5 -46.5t-175 -16.5q-142 0 -253.5 47t-188.5 129.5t-117.5 195.5t-40.5 245q0 93 16 183.5t48.5 174t81 159t112.5 138.5q50 48 108 86.5t125 66.5t144 43t165 15
q133 0 243.5 -42t189.5 -121.5t123 -194t44 -258.5zM1169 831q0 81 -20.5 145t-58.5 108.5t-92.5 68t-123.5 23.5q-80 0 -152 -37t-128 -103q-34 -40 -60 -92t-44 -110t-27.5 -118.5t-9.5 -119.5q0 -81 20.5 -145t58.5 -107.5t91.5 -66.5t119.5 -23q82 0 156.5 36t130.5 107
q35 42 61 94.5t43 109.5t26 116t9 114zM1248 1749.5q-33 -56.5 -79.5 -97t-106 -63t-131.5 -22.5q-53 0 -100 15.5t-81.5 45.5t-54.5 74.5t-20 103.5q0 17 2.5 33t7.5 35h162q-2 -8 -3 -17.5t-1 -17.5q0 -51 32 -77.5t78 -26.5q130 0 178 139h170q-20 -68 -53 -124.5z" />
    <glyph glyph-name="obreve" unicode="&#x14f;" horiz-adv-x="1178" 
d="M1116 618q0 -71 -14 -146t-44 -146.5t-77.5 -135.5t-115 -111.5t-156 -75.5t-201.5 -28q-114 0 -198.5 33t-139.5 91t-82 137.5t-27 171.5q0 74 15 150.5t46.5 147.5t80.5 133.5t117 109t155.5 73.5t196.5 27q107 0 189.5 -30.5t139 -87t86 -136t29.5 -177.5zM797 614
q0 42 -10 77.5t-29.5 61t-47.5 40t-65 14.5q-63 0 -112.5 -36t-83.5 -93t-52 -128t-18 -142q0 -91 42.5 -141t110.5 -50q65 0 114.5 35t83 91.5t50.5 127.5t17 143zM1003 1368.5q-33 -56.5 -79.5 -97t-106 -63t-131.5 -22.5q-53 0 -100 15.5t-81.5 45.5t-54.5 74.5
t-20 103.5q0 17 2.5 33t7.5 35h162q-2 -8 -3 -17.5t-1 -17.5q0 -51 32 -77.5t78 -26.5q130 0 178 139h170q-20 -68 -53 -124.5z" />
    <glyph glyph-name="Ohungarumlaut" unicode="&#x150;" horiz-adv-x="1554" 
d="M1511 842q0 -86 -15 -173t-44.5 -168.5t-74 -156.5t-103.5 -137q-50 -53 -109 -96t-128.5 -73t-150.5 -46.5t-175 -16.5q-142 0 -253.5 47t-188.5 129.5t-117.5 195.5t-40.5 245q0 93 16 183.5t48.5 174t81 159t112.5 138.5q50 48 108 86.5t125 66.5t144 43t165 15
q133 0 243.5 -42t189.5 -121.5t123 -194t44 -258.5zM1169 831q0 81 -20.5 145t-58.5 108.5t-92.5 68t-123.5 23.5q-80 0 -152 -37t-128 -103q-34 -40 -60 -92t-44 -110t-27.5 -118.5t-9.5 -119.5q0 -81 20.5 -145t58.5 -107.5t91.5 -66.5t119.5 -23q82 0 156.5 36t130.5 107
q35 42 61 94.5t43 109.5t26 116t9 114zM1176 1567h-215l240 325h256zM793 1567h-215l240 325h252z" />
    <glyph glyph-name="ohungarumlaut" unicode="&#x151;" horiz-adv-x="1178" 
d="M1116 618q0 -71 -14 -146t-44 -146.5t-77.5 -135.5t-115 -111.5t-156 -75.5t-201.5 -28q-114 0 -198.5 33t-139.5 91t-82 137.5t-27 171.5q0 74 15 150.5t46.5 147.5t80.5 133.5t117 109t155.5 73.5t196.5 27q107 0 189.5 -30.5t139 -87t86 -136t29.5 -177.5zM797 614
q0 42 -10 77.5t-29.5 61t-47.5 40t-65 14.5q-63 0 -112.5 -36t-83.5 -93t-52 -128t-18 -142q0 -91 42.5 -141t110.5 -50q65 0 114.5 35t83 91.5t50.5 127.5t17 143zM968 1186h-215l240 325h256zM585 1186h-215l240 325h252z" />
    <glyph glyph-name="OE" unicode="&#x152;" horiz-adv-x="1876" 
d="M1913 1171h-502l-68 -323h467l-55 -264h-467l-69 -322h534l-55 -262h-723q-29 0 -63.5 -4t-71.5 -8.5t-75 -8.5t-75 -4q-115 0 -220 40t-184.5 119t-127 195.5t-47.5 270.5q0 93 15 182.5t45.5 173t78 158t112.5 137.5q51 49 108 87.5t123 65t141.5 40.5t162.5 14
q45 0 88.5 -3.5t82.5 -8t73 -8.5t61 -4h768zM1003.5 1166.5q-49.5 9.5 -124.5 9.5q-84 0 -156 -36.5t-125 -99.5q-33 -40 -60 -91.5t-45.5 -110t-29 -121.5t-10.5 -125q0 -77 20 -139.5t57.5 -106.5t91.5 -68t123 -24q47 0 85 7t69 15l182 867q-28 14 -77.5 23.5z" />
    <glyph glyph-name="oe" unicode="&#x153;" horiz-adv-x="1778" 
d="M1763 760q0 -79 -33 -145t-112 -114t-209 -75.5t-324 -30.5q-2 -6 -2 -11.5v-10.5q0 -29 10 -59.5t34 -55.5t64 -41t101 -16q36 0 79 6.5t87 19t87.5 30t80.5 38.5l-49 -236q-59 -34 -143.5 -59t-190.5 -25q-73 0 -130.5 15t-101.5 40t-75 57.5t-49 66.5h-4
q-65 -84 -165.5 -131.5t-217.5 -47.5q-115 0 -198 36.5t-136.5 97.5t-79 139t-25.5 160q0 134 40.5 251t114.5 203.5t179 136.5t234 50q67 0 121 -14t97 -39t75.5 -59.5t56.5 -74.5h4q35 40 77.5 74.5t93 59.5t108.5 39t122 14q105 0 177.5 -26t117.5 -67.5t64.5 -93
t19.5 -102.5zM1462 754q0 38 -27.5 63t-76.5 25q-42 0 -81.5 -17.5t-73.5 -50.5t-59.5 -79.5t-37.5 -104.5q98 -1 166 11.5t110 34.5t61 52t19 66zM795 614q0 43 -9.5 78.5t-28 61t-46.5 39.5t-66 14q-63 0 -112.5 -36t-83.5 -93t-52 -128t-18 -142q0 -91 42.5 -141
t110.5 -50q65 0 114 35t82 91.5t50 127.5t17 143z" />
    <glyph glyph-name="Racute" unicode="&#x154;" horiz-adv-x="1311" 
d="M1305 1069q0 -91 -33 -164.5t-90 -127.5t-133.5 -88t-163.5 -46v-4q62 -20 106 -76t66 -149l100 -414h-346l-78 369q-18 89 -63 134.5t-123 45.5h-55l-117 -549h-326l305 1434h490q125 0 213 -29.5t143 -80t80 -116.5t25 -139zM961 1016q0 83 -49 129.5t-148 46.5h-135
l-86 -399h131q74 0 128 18.5t89 49t52.5 71t17.5 84.5zM895 1567h-235l315 325h289z" />
    <glyph glyph-name="racute" unicode="&#x155;" horiz-adv-x="819" 
d="M831 733h-2q-21 11 -53.5 20t-60.5 9q-59 0 -106 -26.5t-83 -71.5t-60.5 -105.5t-39.5 -128.5l-90 -430h-320l140 653q10 47 19.5 97t18 98.5t15 93.5t10.5 82h313q-3 -29 -6.5 -60t-7 -59.5t-7 -51.5t-5.5 -36h4q62 115 130.5 173.5t158.5 58.5q26 0 51 -5t45 -8z
M711 1186h-235l315 325h289z" />
    <glyph glyph-name="uni0156" unicode="&#x156;" horiz-adv-x="1311" 
d="M1305 1069q0 -91 -33 -164.5t-90 -127.5t-133.5 -88t-163.5 -46v-4q62 -20 106 -76t66 -149l100 -414h-346l-78 369q-18 89 -63 134.5t-123 45.5h-55l-117 -549h-326l305 1434h490q125 0 213 -29.5t143 -80t80 -116.5t25 -139zM961 1016q0 83 -49 129.5t-148 46.5h-135
l-86 -399h131q74 0 128 18.5t89 49t52.5 71t17.5 84.5zM733 -111l-168 -352h-194l90 352h272z" />
    <glyph glyph-name="uni0157" unicode="&#x157;" horiz-adv-x="819" 
d="M831 733h-2q-21 11 -53.5 20t-60.5 9q-59 0 -106 -26.5t-83 -71.5t-60.5 -105.5t-39.5 -128.5l-90 -430h-320l140 653q10 47 19.5 97t18 98.5t15 93.5t10.5 82h313q-3 -29 -6.5 -60t-7 -59.5t-7 -51.5t-5.5 -36h4q62 115 130.5 173.5t158.5 58.5q26 0 51 -5t45 -8z
M519 -111l-168 -352h-194l90 352h272z" />
    <glyph glyph-name="Rcaron" unicode="&#x158;" horiz-adv-x="1311" 
d="M1305 1069q0 -91 -33 -164.5t-90 -127.5t-133.5 -88t-163.5 -46v-4q62 -20 106 -76t66 -149l100 -414h-346l-78 369q-18 89 -63 134.5t-123 45.5h-55l-117 -549h-326l305 1434h490q125 0 213 -29.5t143 -80t80 -116.5t25 -139zM961 1016q0 83 -49 129.5t-148 46.5h-135
l-86 -399h131q74 0 128 18.5t89 49t52.5 71t17.5 84.5zM954 1567h-250l-168 327h196l117 -190l197 190h211z" />
    <glyph glyph-name="rcaron" unicode="&#x159;" horiz-adv-x="819" 
d="M831 733h-2q-21 11 -53.5 20t-60.5 9q-59 0 -106 -26.5t-83 -71.5t-60.5 -105.5t-39.5 -128.5l-90 -430h-320l140 653q10 47 19.5 97t18 98.5t15 93.5t10.5 82h313q-3 -29 -6.5 -60t-7 -59.5t-7 -51.5t-5.5 -36h4q62 115 130.5 173.5t158.5 58.5q26 0 51 -5t45 -8z
M732 1186h-250l-168 327h196l117 -190l197 190h211z" />
    <glyph glyph-name="Sacute" unicode="&#x15a;" horiz-adv-x="1100" 
d="M1067 1102q-31 19 -68.5 37.5t-80 32.5t-89.5 23t-98 9q-57 0 -96 -15.5t-62 -38.5t-33 -49.5t-10 -49.5q0 -33 10.5 -60.5t33 -53t59 -52t88.5 -58.5q68 -42 120.5 -84.5t89.5 -91t56 -105.5t19 -128q0 -41 -9.5 -90t-32.5 -98.5t-63.5 -95.5t-101.5 -81t-146.5 -56.5
t-199.5 -21.5q-64 0 -124.5 8.5t-115 23t-101.5 32.5t-83 37l55 284q37 -27 80.5 -51t91 -42t98.5 -28t103 -10q57 0 97 12.5t65 34.5t36 51t11 62t-10.5 59.5t-34.5 51t-63.5 51t-96.5 59.5q-61 34 -111 73.5t-86 88t-56 108t-20 132.5q0 83 31 163t97 143t168.5 101.5
t244.5 38.5q59 0 114 -6.5t105 -17.5t94 -25t80 -29zM825 1567h-235l315 325h289z" />
    <glyph glyph-name="sacute" unicode="&#x15b;" horiz-adv-x="899" 
d="M817 768q-21 11 -49 22t-59.5 20t-64.5 15t-64 6q-73 0 -104.5 -28t-31.5 -68q0 -41 31 -67t82 -52q60 -29 105 -58t75 -64t45 -78.5t15 -100.5q0 -61 -25 -122t-81 -109.5t-147.5 -78.5t-224.5 -30q-38 0 -81 4t-85 11t-80.5 17t-68.5 22l47 241q26 -14 60 -28
t72.5 -25.5t79.5 -19t81 -7.5q75 0 111.5 26t36.5 71q0 38 -28 66.5t-97 60.5q-57 27 -100.5 56t-73.5 64t-45 78t-15 97q0 57 22.5 117.5t74.5 110t137.5 81t210.5 31.5q38 0 78 -3.5t78 -9.5t72 -14t60 -16zM669 1186h-235l315 325h289z" />
    <glyph glyph-name="Scircumflex" unicode="&#x15c;" horiz-adv-x="1100" 
d="M1067 1102q-31 19 -68.5 37.5t-80 32.5t-89.5 23t-98 9q-57 0 -96 -15.5t-62 -38.5t-33 -49.5t-10 -49.5q0 -33 10.5 -60.5t33 -53t59 -52t88.5 -58.5q68 -42 120.5 -84.5t89.5 -91t56 -105.5t19 -128q0 -41 -9.5 -90t-32.5 -98.5t-63.5 -95.5t-101.5 -81t-146.5 -56.5
t-199.5 -21.5q-64 0 -124.5 8.5t-115 23t-101.5 32.5t-83 37l55 284q37 -27 80.5 -51t91 -42t98.5 -28t103 -10q57 0 97 12.5t65 34.5t36 51t11 62t-10.5 59.5t-34.5 51t-63.5 51t-96.5 59.5q-61 34 -111 73.5t-86 88t-56 108t-20 132.5q0 83 31 163t97 143t168.5 101.5
t244.5 38.5q59 0 114 -6.5t105 -17.5t94 -25t80 -29zM919 1567l-116 190l-197 -190h-211l303 327h250l168 -327h-197z" />
    <glyph glyph-name="scircumflex" unicode="&#x15d;" horiz-adv-x="899" 
d="M817 768q-21 11 -49 22t-59.5 20t-64.5 15t-64 6q-73 0 -104.5 -28t-31.5 -68q0 -41 31 -67t82 -52q60 -29 105 -58t75 -64t45 -78.5t15 -100.5q0 -61 -25 -122t-81 -109.5t-147.5 -78.5t-224.5 -30q-38 0 -81 4t-85 11t-80.5 17t-68.5 22l47 241q26 -14 60 -28
t72.5 -25.5t79.5 -19t81 -7.5q75 0 111.5 26t36.5 71q0 38 -28 66.5t-97 60.5q-57 27 -100.5 56t-73.5 64t-45 78t-15 97q0 57 22.5 117.5t74.5 110t137.5 81t210.5 31.5q38 0 78 -3.5t78 -9.5t72 -14t60 -16zM754 1186l-116 190l-197 -190h-211l303 327h250l168 -327h-197z
" />
    <glyph glyph-name="Scedilla" unicode="&#x15e;" horiz-adv-x="1100" 
d="M712 -229q0 -45 -20 -86t-62 -72.5t-105.5 -50.5t-150.5 -19q-30 0 -57.5 2t-52.5 4l31 138q42 -9 75 -9q66 0 103 21.5t37 56.5q0 64 -111 64h-22t-25 -2l37 159q-54 4 -105.5 13.5t-97.5 23t-85.5 29.5t-71.5 33l55 284q37 -27 80.5 -51t91 -42t98.5 -28t103 -10
q57 0 97 12.5t65 34.5t36 51t11 62t-10.5 59.5t-34.5 51t-63.5 51t-96.5 59.5q-61 34 -111 73.5t-86 88t-56 108t-20 132.5q0 83 31 163t97 143t168.5 101.5t244.5 38.5q59 0 114 -6.5t105 -17.5t94 -25t80 -29l-55 -278q-31 19 -68.5 37.5t-80 32.5t-89.5 23t-98 9
q-57 0 -96 -15.5t-62 -38.5t-33 -49.5t-10 -49.5q0 -33 10.5 -60.5t33 -53t59 -52t88.5 -58.5q68 -42 120.5 -84.5t89.5 -91t56 -105.5t19 -128q0 -39 -8 -84t-28 -91t-53.5 -90t-85 -79.5t-122 -61t-165.5 -33.5l-14 -61q40 -2 73.5 -11.5t57.5 -27.5t37.5 -45t13.5 -63z
" />
    <glyph glyph-name="scedilla" unicode="&#x15f;" horiz-adv-x="899" 
d="M588 -229q0 -45 -20 -86t-62 -72.5t-105.5 -50.5t-150.5 -19q-30 0 -57.5 2t-52.5 4l31 138q42 -9 75 -9q66 0 103 21.5t37 56.5q0 64 -111 64h-22t-25 -2l37 159q-34 2 -70 6.5t-70 11t-65 15.5t-56 19l47 241q26 -14 60 -28t72.5 -25.5t79.5 -19t81 -7.5q75 0 111.5 26
t36.5 71q0 38 -28 66.5t-97 60.5q-57 27 -100.5 56t-73.5 64t-45 78t-15 97q0 57 22.5 117.5t74.5 110t137.5 81t210.5 31.5q38 0 78 -3.5t78 -9.5t72 -14t60 -16l-49 -238q-21 11 -49 22t-59.5 20t-64.5 15t-64 6q-73 0 -104.5 -28t-31.5 -68q0 -41 31 -67t82 -52
q60 -29 105 -58t75 -64t45 -78.5t15 -100.5q0 -55 -20 -110t-64.5 -101t-116.5 -79t-176 -44l-14 -63q40 -2 73.5 -11.5t57.5 -27.5t37.5 -45t13.5 -63z" />
    <glyph glyph-name="Scaron" unicode="&#x160;" horiz-adv-x="1100" 
d="M1067 1102q-31 19 -68.5 37.5t-80 32.5t-89.5 23t-98 9q-57 0 -96 -15.5t-62 -38.5t-33 -49.5t-10 -49.5q0 -33 10.5 -60.5t33 -53t59 -52t88.5 -58.5q68 -42 120.5 -84.5t89.5 -91t56 -105.5t19 -128q0 -41 -9.5 -90t-32.5 -98.5t-63.5 -95.5t-101.5 -81t-146.5 -56.5
t-199.5 -21.5q-64 0 -124.5 8.5t-115 23t-101.5 32.5t-83 37l55 284q37 -27 80.5 -51t91 -42t98.5 -28t103 -10q57 0 97 12.5t65 34.5t36 51t11 62t-10.5 59.5t-34.5 51t-63.5 51t-96.5 59.5q-61 34 -111 73.5t-86 88t-56 108t-20 132.5q0 83 31 163t97 143t168.5 101.5
t244.5 38.5q59 0 114 -6.5t105 -17.5t94 -25t80 -29zM871 1567h-250l-168 327h196l117 -190l197 190h211z" />
    <glyph glyph-name="scaron" unicode="&#x161;" horiz-adv-x="899" 
d="M817 768q-21 11 -49 22t-59.5 20t-64.5 15t-64 6q-73 0 -104.5 -28t-31.5 -68q0 -41 31 -67t82 -52q60 -29 105 -58t75 -64t45 -78.5t15 -100.5q0 -61 -25 -122t-81 -109.5t-147.5 -78.5t-224.5 -30q-38 0 -81 4t-85 11t-80.5 17t-68.5 22l47 241q26 -14 60 -28
t72.5 -25.5t79.5 -19t81 -7.5q75 0 111.5 26t36.5 71q0 38 -28 66.5t-97 60.5q-57 27 -100.5 56t-73.5 64t-45 78t-15 97q0 57 22.5 117.5t74.5 110t137.5 81t210.5 31.5q38 0 78 -3.5t78 -9.5t72 -14t60 -16zM723 1186h-250l-168 327h196l117 -190l197 190h211z" />
    <glyph glyph-name="uni0162" unicode="&#x162;" horiz-adv-x="1202" 
d="M698 -229q0 -45 -20 -86t-62 -72.5t-105.5 -50.5t-150.5 -19q-30 0 -57.5 2t-52.5 4l31 138q42 -9 75 -9q66 0 103 21.5t37 56.5q0 64 -111 64h-22t-25 -2l43 182h-55l247 1171h-409l57 263h1139l-57 -263h-404l-248 -1171h-116l-19 -82q40 -2 73.5 -11.5t57.5 -27.5
t37.5 -45t13.5 -63z" />
    <glyph glyph-name="uni0163" unicode="&#x163;" horiz-adv-x="768" 
d="M558 -229q0 -45 -20 -86t-62 -72.5t-105.5 -50.5t-150.5 -19q-30 0 -57.5 2t-52.5 4l31 138q42 -9 75 -9q66 0 103 21.5t37 56.5q0 64 -111 64h-22t-25 -2l43 182h2q-36 15 -60.5 38t-39.5 53t-21.5 65.5t-6.5 74.5q0 16 2 37t5.5 43t8 44.5t8.5 41.5l82 394h-158l56 233
h151l52 240l333 82l-67 -322h243l-55 -233h-239l-82 -383q-2 -13 -5 -28t-5.5 -30t-4.5 -28.5t-2 -22.5q0 -40 20 -59t66 -19q12 0 30.5 3t38 8t37.5 10.5t29 9.5l-49 -234q-17 -7 -42 -14t-54 -12.5t-61 -9.5t-64 -5l-13 -59q40 -2 73.5 -11.5t57.5 -27.5t37.5 -45
t13.5 -63z" />
    <glyph glyph-name="Tcaron" unicode="&#x164;" horiz-adv-x="1202" 
d="M1303 1171h-404l-248 -1171h-325l247 1171h-409l57 263h1139zM918 1567h-250l-168 327h196l117 -190l197 190h211z" />
    <glyph glyph-name="tcaron" unicode="&#x165;" horiz-adv-x="1034" 
d="M776 791h-239l-82 -383q-2 -13 -5 -28t-5.5 -30t-4.5 -28.5t-2 -22.5q0 -40 20 -59t66 -19q12 0 30.5 3t38 8t37.5 10.5t29 9.5l-49 -234q-18 -7 -44 -14t-57 -13t-64.5 -10t-65.5 -4q-76 0 -127 19.5t-81.5 54t-43 80.5t-12.5 100q0 16 2 37t5.5 43t8 44.5t8.5 41.5
l82 394h-158l56 233h151l52 240l333 82l-67 -322h243zM1282 1517l-243 -352h-194l165 352h272z" />
    <glyph glyph-name="Tbar" unicode="&#x166;" horiz-adv-x="1200" 
d="M1303 1171h-404l-78 -366h236l-57 -266h-235l-114 -539h-325l113 539h-237l57 266h236l78 366h-409l57 263h1139z" />
    <glyph glyph-name="tbar" unicode="&#x167;" horiz-adv-x="797" 
d="M776 791h-239l-31 -144h223l-34 -159h-223l-17 -80q-2 -13 -5 -28t-5.5 -30t-4.5 -28.5t-2 -22.5q0 -40 20 -59t66 -19q12 0 30.5 3t38 8t37.5 10.5t29 9.5l-49 -234q-18 -7 -44 -14t-57 -13t-64.5 -10t-65.5 -4q-76 0 -127 19.5t-81.5 54t-43 80.5t-12.5 100q0 16 2 37
t5.5 43t8 44.5t8.5 41.5l19 91h-143l34 159h142l30 144h-158l56 233h151l52 240l333 82l-67 -322h243z" />
    <glyph glyph-name="Utilde" unicode="&#x168;" horiz-adv-x="1481" 
d="M1343 584q-30 -141 -77 -254t-124.5 -192t-192.5 -121t-281 -42q-120 0 -216 33t-163 95.5t-103 152t-36 203.5q0 52 8 114.5t20 116.5l160 744h326l-162 -746q-11 -53 -20 -106t-9 -90q0 -58 17.5 -102.5t49 -74.5t74 -45.5t91.5 -15.5q57 0 106 17t88 56t69 103.5
t50 159.5l182 844h326zM1325 1694q-24 -53 -58.5 -88t-77 -52.5t-90.5 -17.5q-51 0 -86.5 13t-63 28t-52 28t-54.5 13q-25 0 -44 -8.5t-32 -22.5t-21 -32t-11 -37h-154q7 61 28.5 112.5t55 89t79 59t101.5 21.5q50 0 83 -13t60 -28t53 -28t60 -13q41 0 68.5 26.5t34.5 74.5
h155q-10 -72 -34 -125z" />
    <glyph glyph-name="utilde" unicode="&#x169;" horiz-adv-x="1225" 
d="M1051 340q-9 -45 -17 -93.5t-14 -93.5t-10 -84.5t-6 -68.5h-320q3 29 6.5 59t7.5 56.5t7 47.5t4 30h-4q-39 -49 -83.5 -89t-93 -68.5t-100 -44.5t-104.5 -16q-127 0 -192.5 70.5t-65.5 198.5q0 15 3 40t7.5 52t9 52.5t8.5 43.5l125 592h318l-123 -578q-4 -16 -7.5 -34
t-6 -35t-4 -31t-1.5 -22q0 -44 24 -70.5t70 -26.5q50 0 97 28t85 73t65.5 101t39.5 112l103 483h319zM1124 1362q-24 -53 -58.5 -88t-77 -52.5t-90.5 -17.5q-51 0 -86.5 13t-63 28t-52 28t-54.5 13q-25 0 -44 -8.5t-32 -22.5t-21 -32t-11 -37h-154q7 61 28.5 112.5t55 89
t79 59t101.5 21.5q50 0 83 -13t60 -28t53 -28t60 -13q41 0 68.5 26.5t34.5 74.5h155q-10 -72 -34 -125z" />
    <glyph glyph-name="Umacron" unicode="&#x16a;" horiz-adv-x="1481" 
d="M1343 584q-30 -141 -77 -254t-124.5 -192t-192.5 -121t-281 -42q-120 0 -216 33t-163 95.5t-103 152t-36 203.5q0 52 8 114.5t20 116.5l160 744h326l-162 -746q-11 -53 -20 -106t-9 -90q0 -58 17.5 -102.5t49 -74.5t74 -45.5t91.5 -15.5q57 0 106 17t88 56t69 103.5
t50 159.5l182 844h326zM1235 1567h-586l37 172h586z" />
    <glyph glyph-name="umacron" unicode="&#x16b;" horiz-adv-x="1225" 
d="M1051 340q-9 -45 -17 -93.5t-14 -93.5t-10 -84.5t-6 -68.5h-320q3 29 6.5 59t7.5 56.5t7 47.5t4 30h-4q-39 -49 -83.5 -89t-93 -68.5t-100 -44.5t-104.5 -16q-127 0 -192.5 70.5t-65.5 198.5q0 15 3 40t7.5 52t9 52.5t8.5 43.5l125 592h318l-123 -578q-4 -16 -7.5 -34
t-6 -35t-4 -31t-1.5 -22q0 -44 24 -70.5t70 -26.5q50 0 97 28t85 73t65.5 101t39.5 112l103 483h319zM1037 1186h-586l37 172h586z" />
    <glyph glyph-name="Ubreve" unicode="&#x16c;" horiz-adv-x="1481" 
d="M1343 584q-30 -141 -77 -254t-124.5 -192t-192.5 -121t-281 -42q-120 0 -216 33t-163 95.5t-103 152t-36 203.5q0 52 8 114.5t20 116.5l160 744h326l-162 -746q-11 -53 -20 -106t-9 -90q0 -58 17.5 -102.5t49 -74.5t74 -45.5t91.5 -15.5q57 0 106 17t88 56t69 103.5
t50 159.5l182 844h326zM1268 1749.5q-33 -56.5 -79.5 -97t-106 -63t-131.5 -22.5q-53 0 -100 15.5t-81.5 45.5t-54.5 74.5t-20 103.5q0 17 2.5 33t7.5 35h162q-2 -8 -3 -17.5t-1 -17.5q0 -51 32 -77.5t78 -26.5q130 0 178 139h170q-20 -68 -53 -124.5z" />
    <glyph glyph-name="ubreve" unicode="&#x16d;" horiz-adv-x="1225" 
d="M1051 340q-9 -45 -17 -93.5t-14 -93.5t-10 -84.5t-6 -68.5h-320q3 29 6.5 59t7.5 56.5t7 47.5t4 30h-4q-39 -49 -83.5 -89t-93 -68.5t-100 -44.5t-104.5 -16q-127 0 -192.5 70.5t-65.5 198.5q0 15 3 40t7.5 52t9 52.5t8.5 43.5l125 592h318l-123 -578q-4 -16 -7.5 -34
t-6 -35t-4 -31t-1.5 -22q0 -44 24 -70.5t70 -26.5q50 0 97 28t85 73t65.5 101t39.5 112l103 483h319zM1055 1368.5q-33 -56.5 -79.5 -97t-106 -63t-131.5 -22.5q-53 0 -100 15.5t-81.5 45.5t-54.5 74.5t-20 103.5q0 17 2.5 33t7.5 35h162q-2 -8 -3 -17.5t-1 -17.5
q0 -51 32 -77.5t78 -26.5q130 0 178 139h170q-20 -68 -53 -124.5z" />
    <glyph glyph-name="Uring" unicode="&#x16e;" horiz-adv-x="1481" 
d="M1343 584q-30 -141 -77 -254t-124.5 -192t-192.5 -121t-281 -42q-120 0 -216 33t-163 95.5t-103 152t-36 203.5q0 52 8 114.5t20 116.5l160 744h326l-162 -746q-11 -53 -20 -106t-9 -90q0 -58 17.5 -102.5t49 -74.5t74 -45.5t91.5 -15.5q57 0 106 17t88 56t69 103.5
t50 159.5l182 844h326zM1210 1759q0 -54 -21 -95t-55 -69t-78 -42.5t-90 -14.5q-49 0 -92 15t-74.5 43t-50 68t-18.5 89q0 56 21 97.5t55 69t77 41t87 13.5q54 0 98.5 -16t75.5 -44.5t48 -68t17 -86.5zM1069 1757q0 38 -27.5 66t-75.5 28q-23 0 -41 -8.5t-30 -22t-18.5 -30
t-6.5 -33.5q0 -40 25 -67t71 -27q44 0 73.5 26t29.5 68z" />
    <glyph glyph-name="uring" unicode="&#x16f;" horiz-adv-x="1225" 
d="M1051 340q-9 -45 -17 -93.5t-14 -93.5t-10 -84.5t-6 -68.5h-320q3 29 6.5 59t7.5 56.5t7 47.5t4 30h-4q-39 -49 -83.5 -89t-93 -68.5t-100 -44.5t-104.5 -16q-127 0 -192.5 70.5t-65.5 198.5q0 15 3 40t7.5 52t9 52.5t8.5 43.5l125 592h318l-123 -578q-4 -16 -7.5 -34
t-6 -35t-4 -31t-1.5 -22q0 -44 24 -70.5t70 -26.5q50 0 97 28t85 73t65.5 101t39.5 112l103 483h319zM999 1378q0 -54 -21 -95t-55 -69t-78 -42.5t-90 -14.5q-49 0 -92 15t-74.5 43t-50 68t-18.5 89q0 56 21 97.5t55 69t77 41t87 13.5q54 0 98.5 -16t75.5 -44.5t48 -68
t17 -86.5zM858 1376q0 38 -27.5 66t-75.5 28q-23 0 -41 -8.5t-30 -22t-18.5 -30t-6.5 -33.5q0 -40 25 -67t71 -27q44 0 73.5 26t29.5 68z" />
    <glyph glyph-name="Uhungarumlaut" unicode="&#x170;" horiz-adv-x="1481" 
d="M1343 584q-30 -141 -77 -254t-124.5 -192t-192.5 -121t-281 -42q-120 0 -216 33t-163 95.5t-103 152t-36 203.5q0 52 8 114.5t20 116.5l160 744h326l-162 -746q-11 -53 -20 -106t-9 -90q0 -58 17.5 -102.5t49 -74.5t74 -45.5t91.5 -15.5q57 0 106 17t88 56t69 103.5
t50 159.5l182 844h326zM1168 1567h-215l240 325h256zM785 1567h-215l240 325h252z" />
    <glyph glyph-name="uhungarumlaut" unicode="&#x171;" horiz-adv-x="1225" 
d="M1051 340q-9 -45 -17 -93.5t-14 -93.5t-10 -84.5t-6 -68.5h-320q3 29 6.5 59t7.5 56.5t7 47.5t4 30h-4q-39 -49 -83.5 -89t-93 -68.5t-100 -44.5t-104.5 -16q-127 0 -192.5 70.5t-65.5 198.5q0 15 3 40t7.5 52t9 52.5t8.5 43.5l125 592h318l-123 -578q-4 -16 -7.5 -34
t-6 -35t-4 -31t-1.5 -22q0 -44 24 -70.5t70 -26.5q50 0 97 28t85 73t65.5 101t39.5 112l103 483h319zM1014 1186h-215l240 325h256zM631 1186h-215l240 325h252z" />
    <glyph glyph-name="Uogonek" unicode="&#x172;" horiz-adv-x="1481" 
d="M1343 584q-28 -132 -70.5 -239t-110.5 -185t-167.5 -124.5t-240.5 -56.5q-38 -38 -63.5 -66.5t-41 -51.5t-22 -42t-6.5 -36q0 -72 76 -72q23 0 51 8t45 17l-29 -142q-20 -11 -55.5 -19.5t-79.5 -8.5q-52 0 -89 12.5t-61 35t-35 53.5t-11 67q0 60 39.5 118t123.5 126
q-104 9 -187 46t-140.5 98.5t-88 146.5t-30.5 190q0 52 8 114.5t20 116.5l160 744h326l-162 -746q-11 -53 -20 -106t-9 -90q0 -58 17.5 -102.5t49 -74.5t74 -45.5t91.5 -15.5q57 0 106 17t88 56t69 103.5t50 159.5l182 844h326z" />
    <glyph glyph-name="uogonek" unicode="&#x173;" horiz-adv-x="1225" 
d="M1051 340q-9 -45 -17 -93.5t-14 -93.5t-10 -84.5t-6 -68.5h-63q-45 -43 -75 -75.5t-48 -58t-25.5 -45.5t-7.5 -38q0 -72 76 -72q23 0 51 8t45 17l-29 -142q-20 -11 -55.5 -19.5t-79.5 -8.5q-52 0 -89 12.5t-61 35t-35 53.5t-11 67q0 65 46.5 128t145.5 138h-105
q3 29 6.5 59t7.5 56.5t7 47.5t4 30h-4q-39 -49 -83.5 -89t-93 -68.5t-100 -44.5t-104.5 -16q-127 0 -192.5 70.5t-65.5 198.5q0 15 3 40t7.5 52t9 52.5t8.5 43.5l125 592h318l-123 -578q-4 -16 -7.5 -34t-6 -35t-4 -31t-1.5 -22q0 -44 24 -70.5t70 -26.5q50 0 97 28t85 73
t65.5 101t39.5 112l103 483h319z" />
    <glyph glyph-name="Wcircumflex" unicode="&#x174;" horiz-adv-x="2064" 
d="M1550 0h-344l-61 930q-1 15 0.5 36t4 43t5.5 42.5t6 35.5h-4q-5 -16 -12.5 -37t-15.5 -43t-16 -42t-15 -35l-455 -930h-369l-73 1434h340l10 -951q1 -17 -0.5 -39t-4.5 -44t-6 -41.5l-5 -32.5h6q4 15 11 35.5t15.5 43t18 44t16.5 36.5l461 949h342l47 -961
q1 -14 0.5 -32.5t-1.5 -38.5t-3 -39.5t-4 -34.5h4q4 14 10.5 34t14 41t15 41t13.5 35l397 955h338zM1397 1567l-116 190l-197 -190h-211l303 327h250l168 -327h-197z" />
    <glyph glyph-name="wcircumflex" unicode="&#x175;" horiz-adv-x="1628" 
d="M1200 0h-328l-24 606q0 31 2.5 69t5.5 62h-4q-4 -15 -9.5 -32t-12 -35t-13 -34.5t-12.5 -29.5l-285 -606h-334l-69 1024h303v-666q0 -23 -2.5 -58t-7.5 -58h6q4 10 9.5 26t11.5 33.5t12 34.5t12 29l311 659h305l19 -664q0 -11 -0.5 -28t-2 -34.5t-3 -33t-3.5 -24.5h7
q3 10 8 26t11 34t12 34t10 26l268 664h307zM1096 1186l-116 190l-197 -190h-211l303 327h250l168 -327h-197z" />
    <glyph glyph-name="Ycircumflex" unicode="&#x176;" horiz-adv-x="1245" 
d="M776 520l-108 -520h-326l109 514l-258 920h350l114 -545q8 -34 9.5 -63t3.5 -52h2q11 28 24.5 57t28.5 54l350 549h363zM988 1567l-116 190l-197 -190h-211l303 327h250l168 -327h-197z" />
    <glyph glyph-name="ycircumflex" unicode="&#x177;" horiz-adv-x="1102" 
d="M551 -90q-51 -89 -105.5 -161.5t-118.5 -123.5t-141.5 -78.5t-175.5 -27.5q-34 0 -81.5 6.5t-88.5 21.5l54 244q21 -15 52 -23t62 -8q59 0 110 27.5t89 89.5l82 129l-199 1018h332l72 -623q3 -34 4 -73t-2 -64h4q9 25 23 62t34 75l313 623h332zM825 1186l-116 190
l-197 -190h-211l303 327h250l168 -327h-197z" />
    <glyph glyph-name="Ydieresis" unicode="&#x178;" horiz-adv-x="1245" 
d="M776 520l-108 -520h-326l109 514l-258 920h350l114 -545q8 -34 9.5 -63t3.5 -52h2q11 28 24.5 57t28.5 54l350 549h363zM1203 1707q0 -29 -10.5 -54.5t-30.5 -44t-48.5 -29.5t-63.5 -11t-63.5 11t-48.5 30t-31 44.5t-11 53.5q0 30 11.5 55t32.5 42.5t49 27.5t61 10
q34 0 62 -10t48.5 -28t31.5 -43t11 -54zM746 1707q0 -29 -11 -54.5t-31 -44t-48 -29.5t-63 -11q-34 0 -63 11t-49.5 30t-32 44.5t-11.5 53.5q0 30 12 55t33 42.5t49.5 27.5t61.5 10q34 0 62 -10t48.5 -28t31.5 -43t11 -54z" />
    <glyph glyph-name="Zacute" unicode="&#x179;" horiz-adv-x="1243" 
d="M1350 1253l-910 -991h701l-56 -262h-1155l39 186l922 985h-660l56 263h1102zM900 1567h-235l315 325h289z" />
    <glyph glyph-name="zacute" unicode="&#x17a;" horiz-adv-x="995" 
d="M1026 864l-606 -631h475l-49 -233h-930l27 133l645 658h-453l49 233h877zM724 1186h-235l315 325h289z" />
    <glyph glyph-name="Zdotaccent" unicode="&#x17b;" horiz-adv-x="1243" 
d="M1350 1253l-910 -991h701l-56 -262h-1155l39 186l922 985h-660l56 263h1102zM1008 1706q0 -28 -11 -53.5t-30.5 -44.5t-47.5 -30t-63 -11q-34 0 -62.5 11t-48.5 30t-31 44.5t-11 53.5q0 30 11.5 54.5t32 42t48.5 27t61 9.5q68 0 110 -37t42 -96z" />
    <glyph glyph-name="zdotaccent" unicode="&#x17c;" horiz-adv-x="995" 
d="M1026 864l-606 -631h475l-49 -233h-930l27 133l645 658h-453l49 233h877zM801 1325q0 -28 -11 -53.5t-30.5 -44.5t-47.5 -30t-63 -11q-34 0 -62.5 11t-48.5 30t-31 44.5t-11 53.5q0 30 11.5 54.5t32 42t48.5 27t61 9.5q68 0 110 -37t42 -96z" />
    <glyph glyph-name="Zcaron" unicode="&#x17d;" horiz-adv-x="1243" 
d="M1350 1253l-910 -991h701l-56 -262h-1155l39 186l922 985h-660l56 263h1102zM977 1567h-250l-168 327h196l117 -190l197 190h211z" />
    <glyph glyph-name="zcaron" unicode="&#x17e;" horiz-adv-x="995" 
d="M1026 864l-606 -631h475l-49 -233h-930l27 133l645 658h-453l49 233h877zM784 1186h-250l-168 327h196l117 -190l197 190h211z" />
    <glyph glyph-name="longs" unicode="&#x17f;" horiz-adv-x="701" 
d="M873 1270q-28 11 -61.5 19.5t-65.5 8.5q-71 0 -109 -39t-57 -122l-321 -1477h-316l324 1511q42 187 156.5 278t310.5 91q51 0 102.5 -8t85.5 -19z" />
    <glyph glyph-name="uni0180" unicode="&#x180;" horiz-adv-x="1214" 
d="M155 1179l33 159h112l40 178h319l-40 -178h328l-33 -159h-327l-24 -114q-4 -21 -10.5 -48l-13 -54t-12.5 -51.5t-11 -41.5h8q29 39 62 72t72.5 57t85.5 37t100 13q68 0 124.5 -24t97.5 -72t64 -120t23 -167q0 -60 -12 -134.5t-41.5 -151.5t-79.5 -149.5t-125.5 -129.5
t-179.5 -91.5t-242 -34.5q-58 0 -117.5 7.5t-116 22t-108.5 35t-94 46.5l232 1093h-114zM836 631q0 81 -32 128.5t-104 47.5q-48 0 -89.5 -28t-75 -74.5t-58.5 -106.5t-39 -125l-53 -250q22 -11 57.5 -18.5t75.5 -7.5q51 0 94 18.5t78.5 51t62.5 75t45.5 91t28 99.5t9.5 99z
" />
    <glyph glyph-name="uni0181" unicode="&#x181;" horiz-adv-x="1677" 
d="M1646 1110q0 -67 -22 -125t-65.5 -104.5t-107.5 -79.5t-149 -49v-4q68 -10 119 -36.5t85.5 -65.5t51.5 -88t17 -105q0 -97 -38 -179.5t-114 -143.5t-189.5 -95.5t-265.5 -34.5h-569l254 1196h-46q-59 0 -103.5 -24t-74 -63t-44.5 -89.5t-15 -103.5v-22t2 -22h-287
q-1 6 -1.5 15.5t-1 19.5t-0.5 20v16q0 118 43.5 209.5t118.5 154t175.5 95t214.5 32.5h578q117 0 199.5 -24.5t134.5 -68t76 -103t24 -128.5zM1233 451q0 75 -52 120t-155 45h-170l-82 -378h180q74 0 127 16.5t86.5 45.5t49.5 67.5t16 83.5zM1306 1047q0 35 -10.5 62.5
t-33.5 46.5t-60 29.5t-90 10.5h-133l-74 -340h152q58 0 104 13.5t78.5 38.5t49.5 60.5t17 78.5z" />
    <glyph glyph-name="uni0182" unicode="&#x182;" horiz-adv-x="1318" 
d="M1219 1168h-599l-66 -315h226q119 0 206 -30t144 -82.5t85 -125t28 -158.5q0 -87 -29 -169t-99.5 -146t-188.5 -103t-295 -39h-582l304 1434h924zM898 445q0 83 -53 127t-159 44h-184l-80 -378h194q75 0 128.5 15.5t87.5 43t50 65.5t16 83z" />
    <glyph glyph-name="uni0183" unicode="&#x183;" horiz-adv-x="1262" 
d="M1153 666q0 -60 -12 -134.5t-41.5 -151.5t-79.5 -149.5t-125.5 -129.5t-179.5 -91.5t-242 -34.5q-58 0 -117.5 7.5t-116 22t-108.5 35t-94 46.5l303 1430h861l-43 -205h-543l-52 -246q-4 -21 -10.5 -48l-13 -54t-12.5 -51.5t-11 -41.5h8q29 39 62 72t72.5 57t85.5 37
t100 13q68 0 124.5 -24t97.5 -72t64 -120t23 -167zM836 631q0 81 -32 128.5t-104 47.5q-48 0 -89.5 -28t-75 -74.5t-58.5 -106.5t-39 -125l-53 -250q22 -11 57.5 -18.5t75.5 -7.5q51 0 94 18.5t78.5 51t62.5 75t45.5 91t28 99.5t9.5 99z" />
    <glyph glyph-name="uni0184" unicode="&#x184;" horiz-adv-x="1318" 
d="M554 853h226q119 0 206 -30t144 -82.5t85 -125t28 -158.5q0 -87 -29 -169t-99.5 -146t-188.5 -103t-295 -39h-582l214 1001l-166 181l5 26l555 250h26zM898 445q0 83 -53 127t-159 44h-184l-80 -378h194q75 0 128.5 15.5t87.5 43t50 65.5t16 83z" />
    <glyph glyph-name="uni0185" unicode="&#x185;" horiz-adv-x="1214" 
d="M244 1058l-166 181l5 26l549 250h26l-95 -450q-4 -21 -10.5 -48l-13 -54t-12.5 -51.5t-11 -41.5h8q29 39 62 72t72.5 57t85.5 37t100 13q68 0 124.5 -24t97.5 -72t64 -120t23 -167q0 -60 -12 -134.5t-41.5 -151.5t-79.5 -149.5t-125.5 -129.5t-179.5 -91.5t-242 -34.5
q-58 0 -117.5 7.5t-116 22t-108.5 35t-94 46.5zM836 631q0 81 -32 128.5t-104 47.5q-48 0 -89.5 -28t-75 -74.5t-58.5 -106.5t-39 -125l-53 -250q22 -11 57.5 -18.5t75.5 -7.5q51 0 94 18.5t78.5 51t62.5 75t45.5 91t28 99.5t9.5 99z" />
    <glyph glyph-name="uni0186" unicode="&#x186;" horiz-adv-x="1315" 
d="M926 820q0 84 -24.5 149.5t-70.5 111.5t-112 70t-149 24q-47 0 -93 -5t-89 -13.5t-80.5 -20.5t-67.5 -26q14 69 28.5 147.5t28.5 147.5q65 22 156.5 37.5t195.5 15.5q159 0 276 -45t194.5 -126t115 -192.5t37.5 -244.5q0 -94 -17.5 -195t-58 -198.5t-106.5 -185
t-163.5 -153t-228.5 -104.5t-302 -39q-57 0 -112.5 5.5t-106 15t-93 21t-73.5 23.5q15 70 30 145.5t31 146.5q30 -15 67 -29.5t79.5 -25.5t89.5 -18t96 -7q122 0 219 36t164.5 107t103 177.5t35.5 247.5z" />
    <glyph glyph-name="uni0187" unicode="&#x187;" horiz-adv-x="1412" 
d="M1529 1413q-65 0 -114 -42.5t-65 -115.5l-37 -168q-30 16 -64.5 32t-75.5 28.5t-88.5 20.5t-103.5 8q-130 0 -229.5 -44.5t-167.5 -119.5t-103 -174t-35 -209q0 -91 27 -161t77 -117.5t120 -72t157 -24.5q55 0 103 7.5t91 20t81.5 28.5t73.5 34l-68 -305
q-74 -31 -163.5 -47.5t-201.5 -16.5q-150 0 -269 44.5t-201 126.5t-125.5 196.5t-43.5 255.5q0 113 24 220.5t72.5 203t122 175.5t173 138t226 90.5t279.5 32.5q48 0 94 -4t88 -11q48 102 136 158t212 56q37 0 78 -6t68 -17l-51 -245q-21 12 -46.5 18t-50.5 6z" />
    <glyph glyph-name="uni0188" unicode="&#x188;" horiz-adv-x="1078" 
d="M795 1040q18 44 46.5 82t67 66t87.5 43.5t108 15.5q35 0 72 -5t60 -15l-48 -226q-40 23 -85 23q-52 0 -86.5 -27t-56 -68.5t-32.5 -91t-15 -94.5l-11 -6q-34 26 -88.5 48t-117.5 22q-73 0 -132 -34t-100 -88t-63 -121t-22 -132q0 -103 48 -159t144 -56q30 0 62.5 6
t64.5 16.5t61.5 23.5t53.5 28l-49 -242q-68 -35 -145 -54.5t-154 -19.5q-100 0 -175.5 31t-126.5 87t-76.5 133.5t-25.5 170.5q0 86 19.5 167.5t56.5 153.5t91.5 133t125 105t156 68.5t184.5 24.5q11 0 25.5 -0.5t28.5 -2t27 -3t20 -3.5z" />
    <glyph glyph-name="uni0189" unicode="&#x189;" horiz-adv-x="1542" 
d="M1499 848q0 -172 -52 -326t-159.5 -270t-272 -184t-388.5 -68h-578l127 592h-168l53 262h170l123 580h500q159 0 279.5 -44t202 -122t122.5 -185.5t41 -234.5zM1157 823q0 79 -22.5 143.5t-69 110t-117.5 70t-168 24.5h-157l-68 -317h274l-55 -262h-274l-70 -330h186
q128 0 228.5 38.5t170 111.5t106 177t36.5 234z" />
    <glyph glyph-name="uni018A" unicode="&#x18a;" horiz-adv-x="1893" 
d="M1850 854q0 -113 -23 -220.5t-69.5 -202.5t-117.5 -174t-167.5 -136t-219.5 -89t-273 -32h-580l254 1196h-47q-59 0 -103.5 -24t-74 -63t-44.5 -89.5t-15 -103.5v-22t2 -22h-287q-1 6 -1.5 15.5t-1 19.5t-0.5 20v16q0 118 43.5 209.5t118.5 154t175.5 95t214.5 32.5h575
q158 0 277.5 -43t200.5 -119.5t122 -183t41 -234.5zM1508 829q0 80 -22.5 143.5t-69 107.5t-117.5 67.5t-168 23.5h-157l-193 -909h197q122 0 220 40.5t167 115t106 179t37 232.5z" />
    <glyph glyph-name="uni018B" unicode="&#x18b;" horiz-adv-x="1283" 
d="M35 408q0 110 43.5 193.5t126 139.5t201.5 84t270 28h180l69 318h-601l55 263h934l-315 -1434h-492q-122 0 -211 31.5t-146.5 86t-85.5 129t-28 161.5zM378 404q0 -84 56 -124.5t165 -40.5h124l81 376h-148q-70 0 -122 -16.5t-86.5 -45.5t-52 -67t-17.5 -82z" />
    <glyph glyph-name="uni018C" unicode="&#x18c;" horiz-adv-x="1214" 
d="M1044 338q-7 -31 -13.5 -75t-12 -91.5t-9 -93t-3.5 -78.5h-320q0 14 1.5 37.5t4 48.5t5 48.5t3.5 37.5h-4q-31 -44 -64.5 -80t-72 -62t-83.5 -40.5t-99 -14.5q-74 0 -132.5 26t-99.5 75.5t-62.5 123t-21.5 167.5q0 135 45 258.5t130.5 217.5t208.5 150t280 56
q40 0 81.5 -4t67.5 -9l59 275h-576l43 205h892zM778.5 824q-27.5 3 -53.5 3q-69 0 -121 -23t-90.5 -60.5t-64.5 -85t-41.5 -96t-22 -94t-6.5 -79.5q0 -37 8 -68.5t23.5 -54.5t40 -36t57.5 -13q55 0 98.5 32.5t77 85t56.5 118t38 131.5l51 231q-23 6 -50.5 9z" />
    <glyph glyph-name="uni018D" unicode="&#x18d;" horiz-adv-x="1254" 
d="M30 -170q38 -22 83.5 -40.5t92.5 -32t92.5 -21.5t84.5 -8q77 0 121.5 25.5t44.5 74.5q0 30 -17 57.5t-46.5 54.5t-70 56.5t-87.5 63.5q-58 42 -106.5 88.5t-82.5 102.5t-53 124t-19 153q0 119 40.5 215t119 164t193.5 105t263 37q123 0 218 -31.5t160 -88t98.5 -135.5
t33.5 -175q0 -79 -20.5 -144.5t-55.5 -119t-81.5 -95t-98.5 -73t-106 -53t-105 -35.5q31 -26 57.5 -57t46 -66t31 -73.5t11.5 -79.5q0 -102 -44.5 -167.5t-116.5 -103t-162 -51.5t-181 -14q-48 0 -101 4.5t-105 13.5t-100 21.5t-86 29.5zM561 243q70 20 127.5 51.5t99 74.5
t64 99t22.5 125q0 50 -16.5 89.5t-46 67.5t-71 42.5t-91.5 14.5q-59 0 -107.5 -20t-83 -56.5t-53.5 -88.5t-19 -116q0 -57 16 -101t41 -78t56 -59t62 -45z" />
    <glyph glyph-name="uni018E" unicode="&#x18e;" horiz-adv-x="1089" 
d="M813 0h-859l56 262h535l68 322h-469l56 264h469l69 323h-504l56 263h828z" />
    <glyph glyph-name="uni018F" unicode="&#x18f;" horiz-adv-x="1586" 
d="M133 850h1061q14 344 -374 344q-108 0 -224.5 -31.5t-248.5 -101.5l65 294q109 58 224 80.5t245 22.5q155 0 277.5 -40.5t208 -118t131 -190.5t45.5 -258q0 -189 -55.5 -349.5t-163 -277.5t-266.5 -183t-366 -66q-131 0 -242 37t-192 108t-127 175.5t-46 239.5q0 30 3 68
t8 77t12 75.5t15 62.5zM1082 594h-648q-2 -15 -3 -25.5t-1 -26.5q0 -73 22 -129.5t61.5 -95t94.5 -58.5t121 -20q83 0 153 24t125 70t95 111.5t64 149.5h-84z" />
    <glyph glyph-name="uni0190" unicode="&#x190;" horiz-adv-x="1143" 
d="M950 35q-91 -34 -188.5 -47t-203.5 -13q-67 0 -133 9t-125.5 28t-110 49.5t-87.5 73.5t-58 99.5t-21 127.5q0 81 27.5 144.5t77 111.5t118.5 81t152 53l1 6q-41 15 -75 40t-58 58t-37.5 73t-13.5 84q0 85 26.5 151t72.5 115.5t108 83.5t133 55t148.5 30.5t153.5 9.5
q45 0 94.5 -3.5t97.5 -10t91.5 -16.5t77.5 -24l-62 -280q-61 23 -140.5 39.5t-164.5 16.5q-68 0 -123.5 -12t-95 -34.5t-61 -55.5t-21.5 -75q0 -71 63.5 -105t194.5 -34h134l-57 -268h-129q-91 0 -162 -11t-120 -34.5t-74.5 -61t-25.5 -90.5q0 -71 60 -108t175 -37
q48 0 101 4.5t105.5 14t103 23.5t93.5 32z" />
    <glyph glyph-name="uni0191" unicode="&#x191;" horiz-adv-x="1067" 
d="M354 1434h830l-56 -267h-505l-74 -346h465l-58 -266h-464l-106 -502q-17 -106 -58.5 -191.5t-105 -146t-149 -93t-190.5 -32.5q-23 0 -48.5 1.5t-51 5t-49 8.5t-40.5 12l59 275q23 -10 52.5 -16.5t61.5 -6.5q39 0 70.5 9.5t55.5 31t41 57.5t28 90z" />
    <glyph glyph-name="florin" unicode="&#x192;" horiz-adv-x="1180" 
d="M1104 1188q-25 14 -55.5 24.5t-65.5 10.5q-57 0 -96.5 -36.5t-55.5 -101.5l-32 -137h178l-51 -215h-174l-134 -583q-26 -118 -64 -199.5t-87.5 -132t-111.5 -72.5t-136 -22q-40 0 -86.5 8t-77.5 20l33 211q22 -12 42.5 -19t43.5 -7q26 0 48.5 8.5t42 31t36.5 62.5t31 104
l133 590h-133l51 215h129l35 148q37 170 142.5 260t264.5 90q53 0 105.5 -10.5t89.5 -26.5z" />
    <glyph glyph-name="uni0193" unicode="&#x193;" horiz-adv-x="1470" 
d="M1239 1434q48 109 137 166t213 57q37 0 78 -6t68 -17l-51 -245q-21 12 -46.5 18t-50.5 6q-65 0 -114 -42.5t-65 -115.5l-38 -174q-31 21 -72 40.5t-89.5 34t-103 23.5t-112.5 9q-125 0 -225.5 -40.5t-171 -114t-108 -177t-37.5 -229.5q0 -91 25 -163t71.5 -121t112.5 -75
t147 -26q54 0 89.5 6.5t64.5 15.5l61 291h-291l55 258h613l-154 -727q-43 -21 -94 -40.5t-111 -35.5t-129 -25.5t-149 -9.5q-154 0 -275.5 46t-204.5 130t-127 201.5t-44 259.5q0 112 25 218.5t74.5 200.5t124 172.5t174 135t224.5 88t275 31.5q123 0 231 -24z" />
    <glyph glyph-name="uni0194" unicode="&#x194;" horiz-adv-x="1368" 
d="M1544 1434l-714 -1152l24 -60q10 -24 22.5 -58t24 -72.5t19 -79.5t7.5 -79q0 -89 -28 -164t-82 -130.5t-133 -86.5t-182 -31q-79 0 -145 20.5t-113 59t-73 94.5t-26 128q0 59 19.5 113.5t52 105.5t74 100.5t85.5 99.5l36 41l-216 1151h347l105 -736q8 -51 15 -202h4
q14 32 40 82t62 120l421 736h354zM578 59q-60 -69 -88.5 -121t-28.5 -98q0 -30 17.5 -48.5t45.5 -18.5q42 0 65.5 35t23.5 90q0 29 -9 71t-26 90z" />
    <glyph glyph-name="uni0195" unicode="&#x195;" horiz-adv-x="1927" 
d="M1154 803q0 -11 -2 -26t-4.5 -31.5t-5.5 -33t-6 -28.5l-43 -198q-5 -26 -8.5 -56t-3.5 -52q0 -72 40.5 -113.5t119.5 -41.5q52 0 91.5 23t68 62.5t48 92.5t31 112t16 121t4.5 120q0 68 -6 135.5t-19 134.5h326q12 -65 19 -133.5t7 -137.5q0 -105 -13 -204t-42 -185.5
t-76.5 -158t-116.5 -122.5t-162 -79.5t-213 -28.5q-117 0 -202 28t-139.5 76.5t-80.5 114t-26 140.5q0 34 5.5 77t16.5 91l20 82q4 16 8 33t7.5 33.5t5.5 31t2 24.5q0 44 -23 72.5t-72 28.5q-41 0 -85.5 -24.5t-84 -65.5t-70.5 -96t-44 -117l-106 -504h-320l322 1516h319
l-147 -689h4q37 48 81.5 88.5t94 70t102 46.5t103.5 17q125 0 192 -64.5t67 -181.5z" />
    <glyph glyph-name="uni0196" unicode="&#x196;" horiz-adv-x="772" 
d="M613 12q-108 -37 -221 -37q-282 0 -282 269q0 17 2 39.5t5 44t6 41t5 30.5l220 1035h323l-214 -1010q-4 -17 -7 -39t-3 -36q0 -48 27 -71.5t74 -23.5q28 0 62 7.5t61 21.5z" />
    <glyph glyph-name="uni0197" unicode="&#x197;" horiz-adv-x="733" 
d="M557 862h165l-59 -278h-165l-123 -584h-326l123 584h-160l59 278h160l121 572h326z" />
    <glyph glyph-name="uni0198" unicode="&#x198;" horiz-adv-x="1329" 
d="M1335 1180q-18 0 -39 -8.5t-48 -28.5t-60.5 -52.5t-77.5 -80.5l-255 -275q13 -33 43 -91.5t68.5 -129t82 -147t82 -147t68.5 -129t43 -91.5h-393q-9 26 -32 75t-53.5 109t-64.5 125.5t-64.5 125.5t-54 108.5t-32.5 74.5q-8 17 -15 38.5t-10 33.5h-4l-145 -690h-326
l305 1434h326l-141 -666h4q11 15 25 33.5t24 29.5l271 308q67 76 124 135.5t113 100t116.5 62t133.5 21.5q35 0 70 -5.5t64 -16.5l-60 -271q-13 4 -37.5 9.5t-50.5 5.5z" />
    <glyph glyph-name="uni0199" unicode="&#x199;" horiz-adv-x="1151" 
d="M457 580h4l407 444h375l-479 -483l264 -541h-352l-225 532h-5l-112 -532h-318l242 1137q21 101 54.5 176.5t86 126t127.5 75.5t180 25q23 0 48 -2t49 -5t45.5 -7.5t36.5 -9.5l-50 -237q-23 8 -52.5 13.5t-56.5 5.5q-33 0 -58 -12t-43.5 -33.5t-30.5 -51t-20 -64.5z" />
    <glyph glyph-name="uni019A" unicode="&#x19a;" horiz-adv-x="668" 
d="M525 893h150l-43 -205h-151l-145 -688h-320l146 688h-157l43 205h157l133 623h319z" />
    <glyph glyph-name="uni019B" unicode="&#x19b;" horiz-adv-x="1125" 
d="M1008 0h-320l-48 709l-380 -709h-347l657 1012l-247 -109l-42 146l276 120q-14 42 -47 61t-78 19q-71 0 -149 -37l57 271q84 26 204 26q232 0 299 -217l214 94l39 -143l-226 -98z" />
    <glyph glyph-name="uni019C" unicode="&#x19c;" horiz-adv-x="1983" 
d="M1414 171q-65 -91 -155 -143.5t-201 -52.5q-120 0 -183.5 54.5t-85.5 165.5q-84 -111 -185 -165.5t-218 -54.5q-133 0 -203 70.5t-70 213.5q0 82 23 192l209 983h323l-196 -922q-8 -36 -14 -74t-6 -67q0 -54 30 -85.5t93 -31.5q50 0 91 24.5t72.5 63t52.5 86.5t31 94
l194 912h324l-198 -930q-3 -15 -6 -32.5l-6 -35t-4.5 -33t-1.5 -27.5q0 -63 32 -92.5t91 -29.5q52 0 93 24.5t72 63.5t52 88t31 98l193 906h324l-305 -1434h-324l36 172h-4z" />
    <glyph glyph-name="uni019D" unicode="&#x19d;" horiz-adv-x="1636" 
d="M365 59q-24 -114 -62.5 -200t-96 -144.5t-136.5 -88t-184 -29.5q-23 0 -50.5 1.5t-54 5t-50 8.5t-39.5 11l58 274q26 -11 58.5 -16.5t64.5 -5.5q79 0 123.5 47t64.5 141l291 1371h320l430 -877q5 -11 12.5 -26.5t15 -32t14 -32.5t9.5 -28h4q1 15 3 33.5t5 37.5t6.5 37
t6.5 32l182 856h305l-303 -1434h-295l-449 911q-6 12 -13 28t-14 32.5t-13 31.5t-9 27h-6q-5 -37 -11 -83t-17 -91z" />
    <glyph glyph-name="uni019E" unicode="&#x19e;" horiz-adv-x="1259" 
d="M537 809q78 112 181.5 176t218.5 64q122 0 185 -67t63 -193q0 -21 -3 -48t-7.5 -54.5t-9.5 -53.5t-9 -45q-5 -24 -16 -77t-26 -124.5t-33 -156.5t-36.5 -172.5t-36 -172.5t-33 -157t-26.5 -125t-16 -77h-319q55 263 109.5 523.5t110.5 523.5q3 15 6.5 34t6.5 38.5t5 37
t2 28.5q0 45 -23 70t-64 25q-54 0 -101.5 -29t-85.5 -74t-64.5 -100t-38.5 -108q-26 -125 -52 -247.5t-52 -247.5h-320q35 159 68 316.5t68 316.5q6 32 11 60.5t5 42.5q0 26 -15 41t-45 15q-13 0 -28.5 -2.5t-29.5 -7.5q13 57 24.5 114t23.5 114q23 11 70.5 19.5t113.5 8.5
q58 0 99 -14.5t66.5 -42.5t37 -67t11.5 -89v-16h4z" />
    <glyph glyph-name="uni019F" unicode="&#x19f;" horiz-adv-x="1554" 
d="M1511 842q0 -86 -15 -173t-44.5 -168.5t-74 -156.5t-103.5 -137q-50 -53 -109 -96t-128.5 -73t-150.5 -46.5t-175 -16.5q-142 0 -253.5 47t-188.5 129.5t-117.5 195.5t-40.5 245q0 93 16 183.5t48.5 174t81 159t112.5 138.5q50 48 108 86.5t125 66.5t144 43t165 15
q133 0 243.5 -42t189.5 -121.5t123 -194t44 -258.5zM453 596q0 -81 20.5 -145t58.5 -107.5t91.5 -66.5t119.5 -23q82 0 156.5 36t130.5 107q34 42 59.5 92.5t42.5 107.5h-679v-1zM874 1176q-80 0 -152 -37t-128 -103q-34 -41 -60 -92t-44 -108h679q-1 80 -21.5 143t-59 107
t-92.5 67t-122 23z" />
    <glyph glyph-name="Ohorn" unicode="&#x1a0;" horiz-adv-x="1633" 
d="M1511 842q0 -86 -15 -173t-44.5 -168.5t-74 -156.5t-103.5 -137q-50 -53 -109 -96t-128.5 -73t-150.5 -46.5t-175 -16.5q-142 0 -253.5 47t-188.5 129.5t-117.5 195.5t-40.5 245q0 93 16 183.5t48.5 174t81 159t112.5 138.5q50 48 108 86.5t125 66.5t144 43t165 15
q94 0 176.5 -21t151.5 -62q51 -18 111 -18q118 0 171.5 45t53.5 139q0 12 -0.5 28t-1.5 30h192q2 -14 3 -37t1 -37q0 -81 -23 -140.5t-65 -98.5t-101.5 -57.5t-133.5 -18.5h-9.5t-25.5 2q48 -74 74 -166.5t26 -203.5zM1169 831q0 81 -20.5 145t-58.5 108.5t-92.5 68
t-123.5 23.5q-80 0 -152 -37t-128 -103q-34 -40 -60 -92t-44 -110t-27.5 -118.5t-9.5 -119.5q0 -81 20.5 -145t58.5 -107.5t91.5 -66.5t119.5 -23q82 0 156.5 36t130.5 107q35 42 61 94.5t43 109.5t26 116t9 114z" />
    <glyph glyph-name="ohorn" unicode="&#x1a1;" horiz-adv-x="1252" 
d="M1055 861q61 -102 61 -243q0 -71 -14 -146t-44 -146.5t-77.5 -135.5t-115 -111.5t-156.5 -75.5t-201 -28q-114 0 -198.5 33t-139.5 91t-82 137.5t-27 171.5q0 74 15 150.5t46.5 147.5t80.5 133.5t117 109t155.5 73.5t196.5 27q21 0 44.5 -2.5t46.5 -6t44 -8t39 -9.5
q28 -8 64 -11.5t62 -3.5q118 0 171.5 45t53.5 139q0 12 -0.5 28t-1.5 30h192q2 -14 3 -37t1 -37q0 -81 -23 -140.5t-65 -98.5t-101.5 -57.5t-133.5 -18.5h-13zM797 614q0 42 -10 77.5t-29.5 61t-47.5 40t-65 14.5q-63 0 -112.5 -36t-83.5 -93t-52 -128t-18 -142
q0 -91 42.5 -141t110.5 -50q65 0 114.5 35t83 91.5t50.5 127.5t17 143z" />
    <glyph glyph-name="uni01A2" unicode="&#x1a2;" horiz-adv-x="2169" 
d="M1152 1169q-38 9 -77 14t-82 5q-125 0 -225.5 -40.5t-171 -114t-108 -177t-37.5 -229.5q0 -91 25 -163t71.5 -121t112.5 -75t147 -26q54 0 89.5 6.5t64.5 15.5zM1364 1419q104 -17 190 -28t154 -11q256 0 490 78l-310 -1458h-324l238 1118q-85 -12 -169 -12
q-41 0 -83.5 2.5t-88.5 7.5l-218 -1030q-43 -21 -93.5 -40.5t-110 -35.5t-128.5 -25.5t-149 -9.5q-154 0 -275.5 46t-204.5 130t-127 201.5t-44 259.5q0 112 25 218.5t74.5 200.5t124 172.5t174 135t224.5 88t275 31.5q45 0 94 -4t96.5 -10t90 -12.5t75.5 -12.5z" />
    <glyph glyph-name="uni01A3" unicode="&#x1a3;" horiz-adv-x="1761" 
d="M1511 0h-307l159 750q-31 -4 -57 -5.5t-49 -1.5q-38 0 -78 3t-82 8l-148 -702q-84 -37 -176.5 -57t-208.5 -20q-108 0 -200 29.5t-159.5 86t-105.5 140t-38 191.5q0 150 48.5 266.5t135.5 196.5t208 122t266 42q90 0 170 -10t153.5 -22t142 -22t135.5 -10q216 0 414 64z
M678 227l122 576q-19 2 -42 3t-51 1q-76 0 -136 -33.5t-101.5 -88.5t-63.5 -125t-22 -143q0 -97 51.5 -148.5t148.5 -51.5q57 0 94 10z" />
    <glyph glyph-name="uni01A4" unicode="&#x1a4;" horiz-adv-x="1639" 
d="M1666 1026q0 -106 -37 -202.5t-115 -169.5t-198 -116.5t-287 -43.5h-201l-104 -494h-326l254 1196h-45q-59 0 -103.5 -24t-74 -63t-44.5 -89.5t-15 -103.5v-22t2 -22h-287q-1 6 -1.5 15.5t-1 19.5t-0.5 20v16q0 118 43.5 209.5t118.5 154t175.5 95t214.5 32.5h561
q122 0 211 -31.5t146.5 -86t85.5 -129t28 -161.5zM1324 1004q0 83 -56 132.5t-165 49.5h-127l-95 -447h148q77 0 132.5 21.5t91.5 58t53.5 84.5t17.5 101z" />
    <glyph glyph-name="uni01A5" unicode="&#x1a5;" horiz-adv-x="1214" 
d="M836 633q0 35 -6.5 66.5t-22.5 55.5t-41.5 38t-63.5 14q-56 0 -101 -32.5t-79 -84t-57.5 -115t-36.5 -126.5l-53 -234q12 -4 28.5 -7t34 -5.5t34.5 -4t30 -1.5q74 0 135.5 36.5t105.5 97t68.5 139.5t24.5 163zM555 1055q-12 -57 -26.5 -110t-28.5 -95h4q28 42 63 78
t77.5 63t93 42.5t108.5 15.5q68 0 124.5 -25t97 -73.5t63 -119t22.5 -161.5q0 -84 -18 -168.5t-53.5 -162t-89.5 -144t-126 -115.5t-162.5 -77t-199.5 -28q-40 0 -88 6t-82 15l-101 -467h-319l341 1608q21 101 54.5 176.5t86 126t127.5 75.5t180 25q23 0 48 -2t49 -5
t45.5 -7.5t36.5 -9.5l-50 -237q-23 8 -52.5 13.5t-56.5 5.5q-33 0 -58 -12t-43 -33.5t-30 -51t-20 -64.5z" />
    <glyph glyph-name="uni01A6" unicode="&#x1a6;" horiz-adv-x="1276" 
d="M1270 902q0 -91 -33 -164.5t-90 -127.5t-133.5 -88t-163.5 -46v-4q62 -20 106 -76t66 -149l100 -414h-346l-78 369q-18 89 -63 134.5t-123 45.5h-55l-82 -382h-326l305 1434h328l-35 -167h162q125 0 213 -29.5t143 -80t80 -116.5t25 -139zM926 849q0 83 -49 129.5
t-148 46.5h-135l-86 -399h131q74 0 128 18.5t89 49t52.5 71t17.5 84.5z" />
    <glyph glyph-name="uni01A7" unicode="&#x1a7;" horiz-adv-x="1148" 
d="M745.5 -5q-110.5 -20 -228.5 -20q-102 0 -191 20t-155.5 62.5t-104.5 108t-38 155.5q0 108 35.5 187.5t98.5 139.5t150.5 106t192.5 86q71 27 129.5 52t101 53.5t66 62t23.5 77.5q0 55 -56.5 87t-156.5 32q-40 0 -86 -6t-93 -18.5t-94 -31.5t-88 -44l63 299
q79 28 168.5 41.5t201.5 13.5q101 0 189.5 -23t153.5 -68t102.5 -111.5t37.5 -153.5q0 -90 -29 -162.5t-84.5 -131t-136 -105.5t-182.5 -86q-73 -28 -139.5 -55t-116.5 -58t-79.5 -68.5t-29.5 -87.5q0 -52 53 -85.5t162 -33.5q104 0 213.5 36.5t212.5 109.5l-68 -320
q-87 -40 -197.5 -60z" />
    <glyph glyph-name="uni01A8" unicode="&#x1a8;" horiz-adv-x="901" 
d="M404 -25q-82 0 -156.5 17t-130.5 51.5t-89 87t-33 124.5q0 79 26.5 136t73 99t111 72t139.5 54q39 13 79.5 25.5t74 28t54.5 37t21 52.5q0 20 -10.5 34t-29 23t-43 13.5t-52.5 4.5q-66 0 -138.5 -17.5t-139.5 -52.5l52 244q72 20 144.5 30.5t140.5 10.5q78 0 148 -17
t123 -50.5t84 -84.5t31 -119q0 -75 -22 -129.5t-63 -94.5t-99 -69.5t-130 -54.5q-43 -15 -90.5 -29t-88 -32t-67 -43t-26.5 -62q0 -42 44 -58t119 -16q69 0 151.5 23t170.5 70l-55 -256q-155 -52 -324 -52z" />
    <glyph glyph-name="uni01A9" unicode="&#x1a9;" horiz-adv-x="1185" 
d="M1236 1172h-580l291 -432l-522 -478h670l-55 -262h-1127l40 194l626 553l-356 520l34 167h1034z" />
    <glyph glyph-name="uni01AA" unicode="&#x1aa;" horiz-adv-x="934" 
d="M816 -444q-19 -8 -43 -14.5t-51 -11.5t-54.5 -8t-53.5 -3q-138 0 -214 57.5t-76 174.5q0 13 1 28.5t3 31t4.5 30t4.5 24.5l217 1022q-35 -17 -71.5 -25t-81.5 -8q-75 0 -132 24.5t-95 65t-57 94t-19 111.5q0 95 35 168t96 122.5t142 75t172 25.5q86 0 156.5 -21t121 -62
t78.5 -101t28 -138q0 -24 -4 -63.5t-12 -77.5l-246 -1157q-4 -17 -6.5 -35.5t-2.5 -35.5q0 -41 26 -65t68 -24q28 0 58.5 8t57.5 21zM605 1124l3 15q2 12 4.5 30.5t2.5 32.5q0 51 -29.5 76t-77.5 25q-55 0 -89 -33t-34 -88q0 -42 30 -64t73 -22q37 0 63.5 7t53.5 21z" />
    <glyph glyph-name="uni01AB" unicode="&#x1ab;" horiz-adv-x="768" 
d="M776 791h-239l-82 -383q-2 -13 -5 -28t-5.5 -30t-4.5 -28.5t-2 -22.5q0 -40 20 -59t66 -19q12 0 30.5 3t38 8t37.5 10.5t29 9.5l-59 -281q-39 -185 -144 -283t-271 -98q-21 0 -46 2t-50 5.5t-48 9.5t-40 14l47 225q56 -32 125 -32q151 0 186 163v1q-70 3 -117 23.5
t-75 54t-40 78.5t-12 97q0 16 2 37t5.5 43t8 44.5t8.5 41.5l82 394h-158l56 233h151l52 240l333 82l-67 -322h243z" />
    <glyph glyph-name="uni01AC" unicode="&#x1ac;" horiz-adv-x="1305" 
d="M674 1171h-45q-59 0 -104.5 -20t-76 -54.5t-46 -81t-15.5 -99.5v-22t2 -22h-287q-1 6 -1.5 15.5t-1 19.5t-0.5 20v16q0 118 41 209.5t113 154.5t169.5 95.5t211.5 32.5l829 -1l-56 -263h-410l-249 -1171h-323z" />
    <glyph glyph-name="uni01AD" unicode="&#x1ad;" horiz-adv-x="797" 
d="M295 1137q21 101 54.5 176.5t86 126t127.5 75.5t180 25q23 0 48 -2t49 -5t45.5 -7.5t36.5 -9.5l-50 -237q-23 8 -52.5 13.5t-56.5 5.5q-33 0 -58 -12t-43.5 -33.5t-30.5 -51t-20 -64.5l-23 -113h243l-55 -233h-239l-82 -383q-2 -13 -5 -28t-5.5 -30t-4.5 -28.5t-2 -22.5
q0 -40 20 -59t66 -19q12 0 30.5 3t38 8t37.5 10.5t29 9.5l-49 -234q-18 -7 -44 -14t-57 -13t-64.5 -10t-65.5 -4q-76 0 -127 19.5t-81.5 54t-43 80.5t-12.5 100q0 16 2 37t5.5 43t8 44.5t8.5 41.5l82 394h-158l56 233h151z" />
    <glyph glyph-name="uni01AE" unicode="&#x1ae;" horiz-adv-x="1202" 
d="M662 57q-4 -19 -7.5 -45.5t-3.5 -41.5q0 -54 33 -77.5t96 -23.5t124 27l-58 -273q-88 -33 -185 -33q-84 0 -148 21.5t-106.5 60.5t-64.5 95t-22 125q0 19 1.5 42t4.5 46.5t6.5 46.5t7.5 42l233 1102h-409l57 263h1139l-57 -263h-404z" />
    <glyph glyph-name="Uhorn" unicode="&#x1af;" horiz-adv-x="1654" 
d="M1433 1434q118 0 171.5 45t53.5 139q0 12 -0.5 28t-1.5 30h192q2 -14 3 -37t1 -37q0 -81 -23 -140.5t-65 -98.5t-101.5 -57.5t-133.5 -18.5h-9.5t-25.5 2l-151 -705q-30 -141 -77.5 -254t-125 -192t-192 -121t-280.5 -42q-120 0 -216 33t-163 95.5t-103 152t-36 203.5
q0 52 8 114.5t20 116.5l160 744h326l-162 -746q-11 -53 -20 -106t-9 -90q0 -58 17.5 -102.5t49 -74.5t74 -45.5t91.5 -15.5q57 0 106 17t88 56t69 103.5t50 159.5l182 844h233z" />
    <glyph glyph-name="uhorn" unicode="&#x1b0;" horiz-adv-x="1299" 
d="M879 1024h180q100 6 145.5 51t45.5 132q0 12 -0.5 28t-1.5 30h192q2 -14 3 -37t1 -37q0 -75 -19.5 -131.5t-55.5 -95t-87.5 -60t-115.5 -26.5l-115 -538q-9 -45 -17 -93.5t-14 -93.5t-10 -84.5t-6 -68.5h-320q3 29 6.5 59t7.5 56.5t7 47.5t4 30h-4q-39 -49 -83.5 -89
t-93 -68.5t-100 -44.5t-104.5 -16q-127 0 -192.5 70.5t-65.5 198.5q0 15 3 40t7.5 52t9 52.5t8.5 43.5l125 592h318l-123 -578q-4 -16 -7.5 -34t-6 -35t-4 -31t-1.5 -22q0 -44 24 -70.5t70 -26.5q50 0 97 28t85 73t65.5 101t39.5 112z" />
    <glyph glyph-name="uni01B1" unicode="&#x1b1;" horiz-adv-x="1632" 
d="M111 535q0 118 36 217.5t98.5 179.5t146 141t179.5 101h-332l55 260h600l-64 -306q-83 -42 -151 -97t-116 -124t-74 -152.5t-26 -182.5q0 -66 20.5 -124t60.5 -101t99 -68t135 -25q84 0 162 30t138 90t95.5 151t35.5 213q0 67 -12.5 123.5t-35 104.5t-53 88t-66.5 74
l65 306h599l-54 -260h-352q46 -32 92 -80.5t82.5 -110.5t59 -136t22.5 -158q0 -172 -63 -305t-171 -224t-252.5 -138t-307.5 -47q-146 0 -266 41t-205.5 114.5t-132.5 177t-47 227.5z" />
    <glyph glyph-name="uni01B2" unicode="&#x1b2;" horiz-adv-x="1620" 
d="M336 1434h323l-156 -728q-4 -19 -9.5 -46.5t-10 -59t-7.5 -64t-3 -61.5q0 -49 13.5 -90t41.5 -70t70 -45t99 -16q84 0 157 29t134 79.5t109 119t81 146.5t50.5 162.5t17.5 167.5q0 111 -49.5 170.5t-128.5 59.5q-45 0 -94 -9t-91 -26l58 272q53 17 100 25t102 8
q105 0 187.5 -32.5t138.5 -92.5t85.5 -146.5t29.5 -194.5q0 -131 -29.5 -257t-85 -239t-135 -208.5t-180 -165t-219.5 -108.5t-253 -39q-122 0 -221.5 29.5t-169.5 87.5t-108 144t-38 198q0 30 3 63t7.5 66.5t10 66t11.5 60.5z" />
    <glyph glyph-name="uni01B3" unicode="&#x1b3;" horiz-adv-x="1266" 
d="M542 1434l115 -539q4 -20 8 -52t4 -68h4q8 19 18 43t19.5 42.5t29.5 48.5l174 260q47 70 95 124t100 90.5t112 55.5t131 19q78 0 146 -26l-59 -271q-22 10 -48 14.5t-53 4.5q-59 0 -108 -43t-108 -129l-347 -492l-109 -516h-324l109 510l-259 924h350z" />
    <glyph glyph-name="uni01B4" unicode="&#x1b4;" horiz-adv-x="1219" 
d="M551 -90q-51 -89 -105.5 -161.5t-118.5 -123.5t-141.5 -78.5t-175.5 -27.5q-34 0 -81.5 6.5t-88.5 21.5l54 244q21 -15 52 -23t62 -8q59 0 110 27.5t89 89.5l82 129l-199 1018h332l72 -623q3 -34 4 -73t-2 -64h4q9 25 23 62t34 75l131 263q43 86 90.5 157t106 121.5
t130.5 78.5t163 28q41 0 87 -8t82 -19l-51 -236q-29 11 -52.5 16t-54.5 5q-112 0 -223 -189z" />
    <glyph glyph-name="uni01B5" unicode="&#x1b5;" horiz-adv-x="1243" 
d="M1350 1253l-361 -393h201l-56 -262h-386l-308 -336h701l-56 -262h-1155l39 186l385 412h-178l56 262h368l291 311h-660l56 263h1102z" />
    <glyph glyph-name="uni01B6" unicode="&#x1b6;" horiz-adv-x="995" 
d="M1026 864l-240 -250h115l-41 -194h-261l-179 -187h475l-49 -233h-930l27 133l281 287h-110l41 194h259l174 177h-453l49 233h877z" />
    <glyph glyph-name="uni01B7" unicode="&#x1b7;" horiz-adv-x="1370" 
d="M-137 -362l66 302q93 -64 213.5 -103.5t258.5 -39.5q92 0 180 20t157 64.5t111 114.5t42 170q0 84 -35 141.5t-94.5 93t-137 51t-162.5 15.5h-143l43 208l548 496h-706l56 263h1155l-39 -181l-614 -556q89 -13 174.5 -47t152.5 -92.5t108 -143t41 -198.5
q0 -117 -30 -214.5t-85.5 -175t-132.5 -135t-171 -96t-202 -57.5t-224 -19q-74 0 -147 7.5t-141.5 22.5t-130 37t-111.5 52z" />
    <glyph glyph-name="uni01B8" unicode="&#x1b8;" horiz-adv-x="1370" 
d="M1148 -377q-109 -51 -233.5 -77.5t-262.5 -26.5q-134 0 -255 34.5t-212.5 104.5t-145.5 175.5t-54 248.5q0 141 53 250.5t147 188t222 127t278 67.5l-361 545l37 174h1155l-56 -263h-729l352 -535l-37 -169h-144q-61 0 -127 -7.5t-129 -24.5t-120 -46t-100 -71t-68 -99.5
t-25 -132.5q0 -71 27.5 -125t76.5 -90.5t115.5 -55t144.5 -18.5q138 0 267.5 38.5t250.5 109.5z" />
    <glyph glyph-name="uni01B9" unicode="&#x1b9;" horiz-adv-x="1056" 
d="M869 -395q-85 -39 -185 -62.5t-225 -23.5q-112 0 -209.5 28t-170 83.5t-114.5 139.5t-42 195q0 81 23.5 147t63.5 118.5t94 91.5t116 66.5t127.5 44t129.5 22.5l-283 423l31 146h914l-49 -223h-543l269 -418l-28 -131h-125q-49 0 -98.5 -6t-95.5 -19.5t-86.5 -35t-70 -53
t-46.5 -74t-17 -96.5q0 -53 21.5 -92.5t58 -65t86 -38t105.5 -12.5q103 0 202.5 29.5t204.5 85.5z" />
    <glyph glyph-name="uni01BA" unicode="&#x1ba;" horiz-adv-x="936" 
d="M598 -180l-52 -246q-68 -25 -154 -40t-179 -15q-72 0 -136.5 17t-113.5 51.5t-78 87.5t-29 125q0 84 34 141.5t90 98t128.5 68t150.5 52.5q56 18 108 34t92 35.5t64 43.5t24 57q0 57 -66 85.5t-183 28.5h-84l26 127l313 240h-438l47 213h790l-31 -146l-349 -272
q57 -8 107.5 -27.5t88 -50.5t59.5 -73.5t22 -98.5q0 -97 -39 -160t-105.5 -105.5t-154.5 -71.5t-187 -58q-57 -17 -99.5 -32t-70.5 -31t-42 -35t-14 -44q0 -38 39.5 -56t109.5 -18q75 0 152.5 19.5t159.5 55.5z" />
    <glyph glyph-name="uni01BB" unicode="&#x1bb;" horiz-adv-x="1205" 
d="M1167 1096q0 -91 -30 -168t-87 -148h119l-51 -241h-333q-4 -3 -7.5 -6t-7.5 -5l-354 -262v-4h571l-57 -262h-944l55 256l358 283h-161l51 241h409q77 70 114.5 130.5t37.5 129.5q0 33 -11 63t-35.5 53t-62.5 36.5t-92 13.5q-50 0 -100 -10.5t-97.5 -28t-91 -40.5
t-81.5 -48l63 289q27 14 67.5 29.5t91 29t110 22.5t124.5 9q108 0 189 -26.5t135 -74.5t81 -114.5t27 -146.5z" />
    <glyph glyph-name="uni01BC" unicode="&#x1bc;" horiz-adv-x="1141" 
d="M1139 1176h-526l-61 -287q18 2 32.5 3t34.5 1q113 0 195 -31t135.5 -84.5t79.5 -126t26 -155.5q0 -54 -14 -114t-44.5 -117.5t-78.5 -110t-117 -92.5t-160 -63.5t-206 -23.5q-57 0 -112 6t-104 15.5t-88 22.5t-65 28l55 256q25 -16 61 -31.5t78 -27.5t86 -19.5t85 -7.5
q87 0 146 24t95 60t52 78.5t16 79.5q0 45 -13.5 81t-45 60.5t-81.5 37.5t-124 13q-31 0 -66 -1.5t-68.5 -3.5t-64 -5t-51.5 -6l116 541h-154l54 258h953z" />
    <glyph glyph-name="uni01BD" unicode="&#x1bd;" horiz-adv-x="910" 
d="M0 16l47 217q49 -20 108.5 -34.5t122.5 -14.5q112 0 175.5 34t63.5 94q0 51 -52.5 81.5t-158.5 30.5q-51 0 -104 -4t-99 -12l125 391h-115l49 225h766l-49 -225h-389l-48 -161q23 2 40.5 2.5t33.5 0.5q53 0 107.5 -15.5t98.5 -48.5t71.5 -85t27.5 -124q0 -70 -21.5 -127
t-59 -100.5t-89 -75t-111 -51.5t-124.5 -29.5t-131 -9.5q-170 0 -285 41z" />
    <glyph glyph-name="uni01BE" unicode="&#x1be;" horiz-adv-x="901" 
d="M10 28l46 241q66 -32 137.5 -55.5t140.5 -23.5q86 0 129.5 27.5t43.5 71.5q0 39 -28.5 65t-87.5 57q-43 23 -76 46t-55.5 50t-33.5 60t-11 76q0 26 4 53.5t9 49.5l10 45h-135l50 233h135l47 221l334 90l-66 -311h230l-50 -233h-230l-5 -20q-1 -3 -2.5 -11.5t-3.5 -18.5
t-3.5 -19.5t-1.5 -15.5q0 -32 25 -56t73 -50q89 -51 137 -114t48 -150q0 -98 -41.5 -166.5t-111 -112t-159 -63t-185.5 -19.5q-40 0 -82 3.5t-83 10t-78.5 16.5t-69.5 23z" />
    <glyph glyph-name="uni01BF" unicode="&#x1bf;" horiz-adv-x="1262" 
d="M317 -55l-88 -416h-315l317 1495h316l-25 -113h4q78 66 159 102t178 36q71 0 132.5 -22.5t107 -65.5t72 -106.5t26.5 -146.5q0 -108 -38 -200t-103.5 -168.5t-152.5 -138t-185.5 -110t-202 -85t-202.5 -61.5zM472 674l-96 -453q53 18 109.5 41t111 52.5t103.5 65t86 78.5
t59 94t22 110q0 27 -8 51t-24 42t-39.5 29t-55.5 11q-58 0 -128.5 -32.5t-139.5 -88.5z" />
    <glyph glyph-name="uni01C0" unicode="&#x1c0;" horiz-adv-x="668" 
d="M243 -481h-251l434 2048h252z" />
    <glyph glyph-name="uni01C1" unicode="&#x1c1;" horiz-adv-x="1127" 
d="M702 -481h-252l435 2048h252zM243 -481h-251l434 2048h252z" />
    <glyph glyph-name="uni01C2" unicode="&#x1c2;" horiz-adv-x="1059" 
d="M926 233h-342l-152 -714h-252l152 714h-341l48 234h342l57 268h-342l50 234h342l127 598h252l-127 -598h342l-50 -234h-342l-57 -268h342z" />
    <glyph glyph-name="uni01C3" unicode="&#x1c3;" horiz-adv-x="709" 
d="M463 446h-256l172 988h332zM465 150q0 -39 -15 -70.5t-40.5 -54.5t-60.5 -35.5t-75 -12.5q-38 0 -70.5 12t-56.5 33t-37.5 49.5t-13.5 61.5q0 39 15 71.5t41 55t61 35t76 12.5q38 0 70 -12t55.5 -33t37 -49.5t13.5 -62.5z" />
    <glyph glyph-name="uni01C4" unicode="&#x1c4;" horiz-adv-x="2711" 
d="M1499 854q0 -113 -23 -220.5t-69.5 -202.5t-117.5 -174t-167.5 -136t-219.5 -89t-273 -32h-580l305 1434h504q158 0 277.5 -43t200.5 -119.5t122 -183t41 -234.5zM1157 829q0 80 -22.5 143.5t-69 107.5t-117.5 67.5t-168 23.5h-157l-193 -909h197q122 0 220 40.5t167 115
t106 179t37 232.5zM2818 1253l-910 -991h701l-56 -262h-1155l39 186l922 985h-660l56 263h1102zM2435 1528h-250l-168 327h196l117 -190l197 190h211z" />
    <glyph glyph-name="uni01C5" unicode="&#x1c5;" horiz-adv-x="2502" 
d="M1499 854q0 -113 -23 -220.5t-69.5 -202.5t-117.5 -174t-167.5 -136t-219.5 -89t-273 -32h-580l305 1434h504q158 0 277.5 -43t200.5 -119.5t122 -183t41 -234.5zM1157 829q0 80 -22.5 143.5t-69 107.5t-117.5 67.5t-168 23.5h-157l-193 -909h197q122 0 220 40.5t167 115
t106 179t37 232.5zM2533 864l-606 -631h475l-49 -233h-930l27 133l645 658h-453l49 233h877zM2265 1186h-250l-168 327h196l117 -190l197 190h211z" />
    <glyph glyph-name="uni01C6" unicode="&#x1c6;" horiz-adv-x="2215" 
d="M1044 338q-7 -31 -13.5 -75t-12 -91.5t-9 -93t-3.5 -78.5h-320q0 14 1.5 37.5t4 48.5t5 48.5t3.5 37.5h-4q-31 -44 -64.5 -80t-72 -62t-83.5 -40.5t-99 -14.5q-74 0 -132.5 26t-99.5 75.5t-62.5 123t-21.5 167.5q0 135 45 258.5t130.5 217.5t208.5 150t280 56
q40 0 81.5 -4t67.5 -9l103 480h315zM778.5 824q-27.5 3 -53.5 3q-69 0 -121 -23t-90.5 -60.5t-64.5 -85t-41.5 -96t-22 -94t-6.5 -79.5q0 -37 8 -68.5t23.5 -54.5t40 -36t57.5 -13q55 0 98.5 32.5t77 85t56.5 118t38 131.5l51 231q-23 6 -50.5 9zM2246 864l-606 -631h475
l-49 -233h-930l27 133l645 658h-453l49 233h877zM1990 1186h-250l-168 327h196l117 -190l197 190h211z" />
    <glyph glyph-name="uni01C7" unicode="&#x1c7;" horiz-adv-x="1985" 
d="M905 0h-856l305 1434h326l-248 -1168h529zM1840 573q-29 -138 -80 -248.5t-128 -188.5t-181.5 -119.5t-241.5 -41.5q-24 0 -55 4t-61.5 10t-57.5 14t-43 15l59 299q15 -12 36 -23.5t44.5 -20t47.5 -14t46 -5.5q113 0 184.5 79.5t106.5 248.5l183 852h325z" />
    <glyph glyph-name="uni01C8" unicode="&#x1c8;" horiz-adv-x="1574" 
d="M905 0h-856l305 1434h326l-248 -1168h529zM1675 1354q0 -39 -15 -70t-40.5 -53.5t-60 -34.5t-74.5 -12q-38 0 -70.5 11.5t-56 32t-37 48.5t-13.5 61q0 39 14.5 70t40 53.5t60.5 34.5t76 12q38 0 70 -11.5t55.5 -32t37 -48.5t13.5 -61zM1382 53q-23 -108 -61.5 -205
t-101 -170t-152.5 -116t-215 -43q-44 0 -88 9t-72 23l51 242q9 -6 21.5 -12t27 -10.5t29.5 -7.5t27 -3q75 0 127 61t81 199l213 1004h320z" />
    <glyph glyph-name="uni01C9" unicode="&#x1c9;" horiz-adv-x="1185" 
d="M535 9q-18 -5 -41.5 -10t-50 -9.5t-55 -7t-56.5 -2.5q-67 0 -114.5 17.5t-78.5 49t-45.5 75t-14.5 95.5q0 22 2.5 49t6.5 56.5t9.5 60t11.5 58.5q3 13 13.5 63.5t26.5 124.5t35 164.5t39.5 185t39.5 185t35 164.5t26.5 124.5t13.5 63.5h320l-227 -1068q-8 -35 -17 -78.5
t-9 -75.5q0 -38 24 -53t55 -15q26 0 52.5 5.5t48.5 14.5q-13 -60 -25 -118.5t-25 -118.5zM1286 1354q0 -39 -15 -70t-40.5 -53.5t-60 -34.5t-74.5 -12q-38 0 -70.5 11.5t-56 32t-37 48.5t-13.5 61q0 39 14.5 70t40 53.5t60.5 34.5t76 12q38 0 70 -11.5t55.5 -32t37 -48.5
t13.5 -61zM993 53q-23 -108 -61.5 -205t-101 -170t-152.5 -116t-215 -43q-44 0 -88 9t-72 23l51 242q9 -6 21.5 -12t27 -10.5t29.5 -7.5t27 -3q75 0 127 61t81 199l213 1004h320z" />
    <glyph glyph-name="uni01CA" unicode="&#x1ca;" horiz-adv-x="2530" 
d="M1362 0h-295l-449 911q-6 12 -13 28t-14 32.5t-13 31.5t-9 27h-6q-5 -37 -11 -83t-17 -91l-183 -856h-303l303 1434h320l430 -877q5 -11 12.5 -26.5t15 -32t14 -32.5t9.5 -28h4q1 15 3 33.5t5 37.5t6.5 37t6.5 32l182 856h305zM2385 573q-29 -138 -80 -248.5t-128 -188.5
t-181.5 -119.5t-241.5 -41.5q-24 0 -55 4t-61.5 10t-57.5 14t-43 15l59 299q15 -12 36 -23.5t44.5 -20t47.5 -14t46 -5.5q113 0 184.5 79.5t106.5 248.5l183 852h325z" />
    <glyph glyph-name="uni01CB" unicode="&#x1cb;" horiz-adv-x="2160" 
d="M1362 0h-295l-449 911q-6 12 -13 28t-14 32.5t-13 31.5t-9 27h-6q-5 -37 -11 -83t-17 -91l-183 -856h-303l303 1434h320l430 -877q5 -11 12.5 -26.5t15 -32t14 -32.5t9.5 -28h4q1 15 3 33.5t5 37.5t6.5 37t6.5 32l182 856h305zM2261 1354q0 -39 -15 -70t-40.5 -53.5
t-60 -34.5t-74.5 -12q-38 0 -70.5 11.5t-56 32t-37 48.5t-13.5 61q0 39 14.5 70t40 53.5t60.5 34.5t76 12q38 0 70 -11.5t55.5 -32t37 -48.5t13.5 -61zM1968 53q-23 -108 -61.5 -205t-101 -170t-152.5 -116t-215 -43q-44 0 -88 9t-72 23l51 242q9 -6 21.5 -12t27 -10.5
t29.5 -7.5t27 -3q75 0 127 61t81 199l213 1004h320z" />
    <glyph glyph-name="uni01CC" unicode="&#x1cc;" horiz-adv-x="1752" 
d="M1151 780q0 -15 -3 -40t-7.5 -52t-9.5 -52.5t-9 -43.5l-125 -592h-317l123 584q6 32 12 66t6 52q0 48 -24.5 76.5t-73.5 28.5q-41 0 -85.5 -25.5t-83.5 -67.5t-68.5 -96.5t-41.5 -111.5l-106 -506h-322l152 702q9 46 18 92.5t16 89t12.5 79t8.5 61.5h312
q-3 -28 -6.5 -58.5t-7 -58.5t-6.5 -49.5t-5 -30.5h4q35 46 79 86.5t93.5 70.5t102.5 47.5t106 17.5q127 0 191.5 -70.5t64.5 -198.5zM1853 1354q0 -39 -15 -70t-40.5 -53.5t-60 -34.5t-74.5 -12q-38 0 -70.5 11.5t-56 32t-37 48.5t-13.5 61q0 39 14.5 70t40 53.5t60.5 34.5
t76 12q38 0 70 -11.5t55.5 -32t37 -48.5t13.5 -61zM1560 53q-23 -108 -61.5 -205t-101 -170t-152.5 -116t-215 -43q-44 0 -88 9t-72 23l51 242q9 -6 21.5 -12t27 -10.5t29.5 -7.5t27 -3q75 0 127 61t81 199l213 1004h320z" />
    <glyph glyph-name="uni01CD" unicode="&#x1cd;" horiz-adv-x="1440" 
d="M985 0l-41 319h-514l-168 -319h-364l827 1434h385l205 -1434h-330zM868 1051q-1 16 -1.5 35.5t0 37.5t1.5 32.5t2 21.5h-6q-2 -9 -7 -23t-11.5 -30.5t-15 -34.5t-17.5 -35l-262 -488h369zM1060 1567h-250l-168 327h196l117 -190l197 190h211z" />
    <glyph glyph-name="uni01CE" unicode="&#x1ce;" horiz-adv-x="1214" 
d="M1044 338q-7 -31 -13.5 -75t-12 -91.5t-9 -93t-3.5 -78.5h-320q0 15 1.5 38.5t3.5 48t4.5 48t4.5 39.5h-4q-29 -39 -60 -75t-69 -63.5t-84.5 -44t-107.5 -16.5q-75 0 -133.5 27t-98.5 78t-61 124.5t-21 166.5q0 47 10.5 115.5t38 144t76.5 150t125.5 134.5t185 97
t255.5 37q57 0 114.5 -4.5t113 -12t107.5 -17.5t97 -20zM778 824.5q-28 2.5 -53 2.5q-69 0 -121 -23t-90.5 -60t-64.5 -84t-41.5 -95.5t-22 -94.5t-6.5 -81q0 -37 7.5 -68.5t23.5 -54.5t39.5 -36t54.5 -13q57 0 101.5 33t78 84.5t56 116t36.5 127.5l53 239q-23 5 -51 7.5z
M886 1186h-250l-168 327h196l117 -190l197 190h211z" />
    <glyph glyph-name="uni01CF" unicode="&#x1cf;" horiz-adv-x="649" 
d="M375 0h-326l303 1434h326zM657 1567h-250l-168 327h196l117 -190l197 190h211z" />
    <glyph glyph-name="uni01D0" unicode="&#x1d0;" horiz-adv-x="650" 
d="M535 9q-18 -5 -41.5 -10t-50 -9.5t-55 -7t-56.5 -2.5q-67 0 -114.5 17.5t-78.5 49t-45.5 75t-14.5 95.5q0 22 2.5 49t6.5 56.5t9.5 60t11.5 58.5q4 17 13.5 62.5t22 104.5t26.5 124.5t26.5 124.5t22 104.5t13.5 62.5h320l-122 -576q-8 -35 -17 -78.5t-9 -75.5
q0 -38 24 -53t55 -15q26 0 52.5 5.5t48.5 14.5q-13 -60 -25 -118.5t-25 -118.5zM539 1186h-250l-168 327h196l117 -190l197 190h211z" />
    <glyph glyph-name="uni01D1" unicode="&#x1d1;" horiz-adv-x="1554" 
d="M1511 842q0 -86 -15 -173t-44.5 -168.5t-74 -156.5t-103.5 -137q-50 -53 -109 -96t-128.5 -73t-150.5 -46.5t-175 -16.5q-142 0 -253.5 47t-188.5 129.5t-117.5 195.5t-40.5 245q0 93 16 183.5t48.5 174t81 159t112.5 138.5q50 48 108 86.5t125 66.5t144 43t165 15
q133 0 243.5 -42t189.5 -121.5t123 -194t44 -258.5zM1169 831q0 81 -20.5 145t-58.5 108.5t-92.5 68t-123.5 23.5q-80 0 -152 -37t-128 -103q-34 -40 -60 -92t-44 -110t-27.5 -118.5t-9.5 -119.5q0 -81 20.5 -145t58.5 -107.5t91.5 -66.5t119.5 -23q82 0 156.5 36t130.5 107
q35 42 61 94.5t43 109.5t26 116t9 114zM1048 1567h-250l-168 327h196l117 -190l197 190h211z" />
    <glyph glyph-name="uni01D2" unicode="&#x1d2;" horiz-adv-x="1178" 
d="M1116 618q0 -71 -14 -146t-44 -146.5t-77.5 -135.5t-115 -111.5t-156 -75.5t-201.5 -28q-114 0 -198.5 33t-139.5 91t-82 137.5t-27 171.5q0 74 15 150.5t46.5 147.5t80.5 133.5t117 109t155.5 73.5t196.5 27q107 0 189.5 -30.5t139 -87t86 -136t29.5 -177.5zM797 614
q0 42 -10 77.5t-29.5 61t-47.5 40t-65 14.5q-63 0 -112.5 -36t-83.5 -93t-52 -128t-18 -142q0 -91 42.5 -141t110.5 -50q65 0 114.5 35t83 91.5t50.5 127.5t17 143zM809 1186h-250l-168 327h196l117 -190l197 190h211z" />
    <glyph glyph-name="uni01D3" unicode="&#x1d3;" horiz-adv-x="1481" 
d="M1343 584q-30 -141 -77 -254t-124.5 -192t-192.5 -121t-281 -42q-120 0 -216 33t-163 95.5t-103 152t-36 203.5q0 52 8 114.5t20 116.5l160 744h326l-162 -746q-11 -53 -20 -106t-9 -90q0 -58 17.5 -102.5t49 -74.5t74 -45.5t91.5 -15.5q57 0 106 17t88 56t69 103.5
t50 159.5l182 844h326zM1055 1567h-250l-168 327h196l117 -190l197 190h211z" />
    <glyph glyph-name="uni01D4" unicode="&#x1d4;" horiz-adv-x="1225" 
d="M1051 340q-9 -45 -17 -93.5t-14 -93.5t-10 -84.5t-6 -68.5h-320q3 29 6.5 59t7.5 56.5t7 47.5t4 30h-4q-39 -49 -83.5 -89t-93 -68.5t-100 -44.5t-104.5 -16q-127 0 -192.5 70.5t-65.5 198.5q0 15 3 40t7.5 52t9 52.5t8.5 43.5l125 592h318l-123 -578q-4 -16 -7.5 -34
t-6 -35t-4 -31t-1.5 -22q0 -44 24 -70.5t70 -26.5q50 0 97 28t85 73t65.5 101t39.5 112l103 483h319zM864 1186h-250l-168 327h196l117 -190l197 190h211z" />
    <glyph glyph-name="uni01D5" unicode="&#x1d5;" horiz-adv-x="1481" 
d="M1343 584q-30 -141 -77 -254t-124.5 -192t-192.5 -121t-281 -42q-120 0 -216 33t-163 95.5t-103 152t-36 203.5q0 52 8 114.5t20 116.5l160 744h326l-162 -746q-11 -53 -20 -106t-9 -90q0 -58 17.5 -102.5t49 -74.5t74 -45.5t91.5 -15.5q57 0 106 17t88 56t69 103.5
t50 159.5l182 844h326zM1276 1857h-586l37 172h586zM1164 1571q-52 0 -86 30.5t-34 76.5q0 47 33.5 77t86.5 30t87 -30t34 -77t-33 -77t-88 -30zM766 1571q-53 0 -87 31t-34 76q0 47 34.5 77t86.5 30q53 0 87 -30t34 -77t-33 -77t-88 -30z" />
    <glyph glyph-name="uni01D6" unicode="&#x1d6;" horiz-adv-x="1225" 
d="M1051 340q-9 -45 -17 -93.5t-14 -93.5t-10 -84.5t-6 -68.5h-320q3 29 6.5 59t7.5 56.5t7 47.5t4 30h-4q-39 -49 -83.5 -89t-93 -68.5t-100 -44.5t-104.5 -16q-127 0 -192.5 70.5t-65.5 198.5q0 15 3 40t7.5 52t9 52.5t8.5 43.5l125 592h318l-123 -578q-4 -16 -7.5 -34
t-6 -35t-4 -31t-1.5 -22q0 -44 24 -70.5t70 -26.5q50 0 97 28t85 73t65.5 101t39.5 112l103 483h319zM1061 1468h-586l37 172h586zM946 1182q-52 0 -86 30.5t-34 76.5q0 47 33.5 77t86.5 30t87 -30t34 -77t-33 -77t-88 -30zM548 1182q-53 0 -87 31t-34 76q0 47 34.5 77
t86.5 30q53 0 87 -30t34 -77t-33 -77t-88 -30z" />
    <glyph glyph-name="uni01D7" unicode="&#x1d7;" horiz-adv-x="1481" 
d="M1343 584q-30 -141 -77 -254t-124.5 -192t-192.5 -121t-281 -42q-120 0 -216 33t-163 95.5t-103 152t-36 203.5q0 52 8 114.5t20 116.5l160 744h326l-162 -746q-11 -53 -20 -106t-9 -90q0 -58 17.5 -102.5t49 -74.5t74 -45.5t91.5 -15.5q57 0 106 17t88 56t69 103.5
t50 159.5l182 844h326zM1199 1570q-58 0 -95.5 34.5t-37.5 85.5q0 53 37.5 86t95.5 33q59 0 97 -33.5t38 -85.5t-37 -86t-98 -34zM694 1570q-58 0 -96 34.5t-38 85.5q0 53 38 86t96 33q59 0 97 -33.5t38 -85.5t-37 -86t-98 -34zM1322 2029l-318 -236h-166l213 236h271z" />
    <glyph glyph-name="uni01D8" unicode="&#x1d8;" horiz-adv-x="1225" 
d="M1051 340q-9 -45 -17 -93.5t-14 -93.5t-10 -84.5t-6 -68.5h-320q3 29 6.5 59t7.5 56.5t7 47.5t4 30h-4q-39 -49 -83.5 -89t-93 -68.5t-100 -44.5t-104.5 -16q-127 0 -192.5 70.5t-65.5 198.5q0 15 3 40t7.5 52t9 52.5t8.5 43.5l125 592h318l-123 -578q-4 -16 -7.5 -34
t-6 -35t-4 -31t-1.5 -22q0 -44 24 -70.5t70 -26.5q50 0 97 28t85 73t65.5 101t39.5 112l103 483h319zM983 1184q-58 0 -95.5 34.5t-37.5 85.5q0 53 37.5 86t95.5 33q59 0 97 -33.5t38 -85.5t-37 -86t-98 -34zM478 1184q-58 0 -96 34.5t-38 85.5q0 53 38 86t96 33
q59 0 97 -33.5t38 -85.5t-37 -86t-98 -34zM1106 1643l-318 -236h-166l213 236h271z" />
    <glyph glyph-name="uni01D9" unicode="&#x1d9;" horiz-adv-x="1481" 
d="M1343 584q-30 -141 -77 -254t-124.5 -192t-192.5 -121t-281 -42q-120 0 -216 33t-163 95.5t-103 152t-36 203.5q0 52 8 114.5t20 116.5l160 744h326l-162 -746q-11 -53 -20 -106t-9 -90q0 -58 17.5 -102.5t49 -74.5t74 -45.5t91.5 -15.5q57 0 106 17t88 56t69 103.5
t50 159.5l182 844h326zM1208 1570q-58 0 -95.5 34.5t-37.5 85.5q0 53 37.5 86t95.5 33q59 0 97 -33.5t38 -85.5t-37 -86t-98 -34zM703 1570q-58 0 -96 34.5t-38 85.5q0 53 38 86t96 33q59 0 97 -33.5t38 -85.5t-37 -86t-98 -34zM664 2107h191l122 -137l171 137h209
l-278 -249h-240z" />
    <glyph glyph-name="uni01DA" unicode="&#x1da;" horiz-adv-x="1225" 
d="M1051 340q-9 -45 -17 -93.5t-14 -93.5t-10 -84.5t-6 -68.5h-320q3 29 6.5 59t7.5 56.5t7 47.5t4 30h-4q-39 -49 -83.5 -89t-93 -68.5t-100 -44.5t-104.5 -16q-127 0 -192.5 70.5t-65.5 198.5q0 15 3 40t7.5 52t9 52.5t8.5 43.5l125 592h318l-123 -578q-4 -16 -7.5 -34
t-6 -35t-4 -31t-1.5 -22q0 -44 24 -70.5t70 -26.5q50 0 97 28t85 73t65.5 101t39.5 112l103 483h319zM1000 1181q-58 0 -95.5 34.5t-37.5 85.5q0 53 37.5 86t95.5 33q59 0 97 -33.5t38 -85.5t-37 -86t-98 -34zM495 1181q-58 0 -96 34.5t-38 85.5q0 53 38 86t96 33
q59 0 97 -33.5t38 -85.5t-37 -86t-98 -34zM456 1718h191l122 -137l171 137h209l-278 -249h-240z" />
    <glyph glyph-name="uni01DB" unicode="&#x1db;" horiz-adv-x="1481" 
d="M1343 584q-30 -141 -77 -254t-124.5 -192t-192.5 -121t-281 -42q-120 0 -216 33t-163 95.5t-103 152t-36 203.5q0 52 8 114.5t20 116.5l160 744h326l-162 -746q-11 -53 -20 -106t-9 -90q0 -58 17.5 -102.5t49 -74.5t74 -45.5t91.5 -15.5q57 0 106 17t88 56t69 103.5
t50 159.5l182 844h326zM1204 1570q-58 0 -95.5 34.5t-37.5 85.5q0 53 37.5 86t95.5 33q59 0 97 -33.5t38 -85.5t-37 -86t-98 -34zM699 1570q-58 0 -96 34.5t-38 85.5q0 53 38 86t96 33q59 0 97 -33.5t38 -85.5t-37 -86t-98 -34zM1074 1795h-177l-231 246h280z" />
    <glyph glyph-name="uni01DC" unicode="&#x1dc;" horiz-adv-x="1225" 
d="M1051 340q-9 -45 -17 -93.5t-14 -93.5t-10 -84.5t-6 -68.5h-320q3 29 6.5 59t7.5 56.5t7 47.5t4 30h-4q-39 -49 -83.5 -89t-93 -68.5t-100 -44.5t-104.5 -16q-127 0 -192.5 70.5t-65.5 198.5q0 15 3 40t7.5 52t9 52.5t8.5 43.5l125 592h318l-123 -578q-4 -16 -7.5 -34
t-6 -35t-4 -31t-1.5 -22q0 -44 24 -70.5t70 -26.5q50 0 97 28t85 73t65.5 101t39.5 112l103 483h319zM1003 1184q-58 0 -95.5 34.5t-37.5 85.5q0 53 37.5 86t95.5 33q59 0 97 -33.5t38 -85.5t-37 -86t-98 -34zM498 1184q-58 0 -96 34.5t-38 85.5q0 53 38 86t96 33
q59 0 97 -33.5t38 -85.5t-37 -86t-98 -34zM873 1409h-177l-231 246h280z" />
    <glyph glyph-name="uni01DD" unicode="&#x1dd;" horiz-adv-x="1065" 
d="M14 264q0 79 33.5 145t112 114t209 75.5t323.5 30.5q2 6 2 10.5v9.5q0 31 -10 62t-34.5 56t-64.5 40.5t-100 15.5q-36 0 -78.5 -6.5t-86.5 -19t-87 -30t-81 -38.5l49 236q31 16 71 31t86.5 27t99 19t107.5 7q116 0 199.5 -34t136.5 -91.5t78 -134.5t25 -164
q0 -131 -43.5 -249t-124 -207t-194 -141.5t-253.5 -52.5q-100 0 -171.5 24t-116.5 64.5t-66 92.5t-21 108zM315 268q0 -37 27.5 -61.5t77.5 -24.5q44 0 84.5 19t74 52.5t57.5 80t36 100.5q-357 -1 -357 -166z" />
    <glyph glyph-name="uni01DE" unicode="&#x1de;" horiz-adv-x="1440" 
d="M985 0l-41 319h-514l-168 -319h-364l827 1434h385l205 -1434h-330zM868 1051q-1 16 -1.5 35.5t0 37.5t1.5 32.5t2 21.5h-6q-2 -9 -7 -23t-11.5 -30.5t-15 -34.5t-17.5 -35l-262 -488h369zM1259 1857h-586l37 172h586zM1147 1571q-52 0 -86 30.5t-34 76.5q0 47 33.5 77
t86.5 30t87 -30t34 -77t-33 -77t-88 -30zM749 1571q-53 0 -87 31t-34 76q0 47 34.5 77t86.5 30q53 0 87 -30t34 -77t-33 -77t-88 -30z" />
    <glyph glyph-name="uni01DF" unicode="&#x1df;" horiz-adv-x="1214" 
d="M1044 338q-7 -31 -13.5 -75t-12 -91.5t-9 -93t-3.5 -78.5h-320q0 15 1.5 38.5t3.5 48t4.5 48t4.5 39.5h-4q-29 -39 -60 -75t-69 -63.5t-84.5 -44t-107.5 -16.5q-75 0 -133.5 27t-98.5 78t-61 124.5t-21 166.5q0 47 10.5 115.5t38 144t76.5 150t125.5 134.5t185 97
t255.5 37q57 0 114.5 -4.5t113 -12t107.5 -17.5t97 -20zM778 824.5q-28 2.5 -53 2.5q-69 0 -121 -23t-90.5 -60t-64.5 -84t-41.5 -95.5t-22 -94.5t-6.5 -81q0 -37 7.5 -68.5t23.5 -54.5t39.5 -36t54.5 -13q57 0 101.5 33t78 84.5t56 116t36.5 127.5l53 239q-23 5 -51 7.5z
M1108 1471h-586l37 172h586zM993 1185q-52 0 -86 30.5t-34 76.5q0 47 33.5 77t86.5 30t87 -30t34 -77t-33 -77t-88 -30zM595 1185q-53 0 -87 31t-34 76q0 47 34.5 77t86.5 30q53 0 87 -30t34 -77t-33 -77t-88 -30z" />
    <glyph glyph-name="uni01E0" unicode="&#x1e0;" horiz-adv-x="1440" 
d="M985 0l-41 319h-514l-168 -319h-364l827 1434h385l205 -1434h-330zM868 1051q-1 16 -1.5 35.5t0 37.5t1.5 32.5t2 21.5h-6q-2 -9 -7 -23t-11.5 -30.5t-15 -34.5t-17.5 -35l-262 -488h369zM1250 1862h-586l37 172h586zM946 1576q-53 0 -87 31t-34 76q0 47 34.5 77t86.5 30
q53 0 87 -30t34 -77t-33 -77t-88 -30z" />
    <glyph glyph-name="uni01E1" unicode="&#x1e1;" horiz-adv-x="1214" 
d="M1044 338q-7 -31 -13.5 -75t-12 -91.5t-9 -93t-3.5 -78.5h-320q0 15 1.5 38.5t3.5 48t4.5 48t4.5 39.5h-4q-29 -39 -60 -75t-69 -63.5t-84.5 -44t-107.5 -16.5q-75 0 -133.5 27t-98.5 78t-61 124.5t-21 166.5q0 47 10.5 115.5t38 144t76.5 150t125.5 134.5t185 97
t255.5 37q57 0 114.5 -4.5t113 -12t107.5 -17.5t97 -20zM778 824.5q-28 2.5 -53 2.5q-69 0 -121 -23t-90.5 -60t-64.5 -84t-41.5 -95.5t-22 -94.5t-6.5 -81q0 -37 7.5 -68.5t23.5 -54.5t39.5 -36t54.5 -13q57 0 101.5 33t78 84.5t56 116t36.5 127.5l53 239q-23 5 -51 7.5z
M1111 1468h-586l37 172h586zM807 1182q-53 0 -87 31t-34 76q0 47 34.5 77t86.5 30q53 0 87 -30t34 -77t-33 -77t-88 -30z" />
    <glyph glyph-name="uni01E2" unicode="&#x1e2;" horiz-adv-x="1933" 
d="M1950 1171h-504l-68 -323h467l-55 -264h-467l-70 -322h535l-55 -262h-859l68 319h-477l-229 -319h-379l1083 1434h1065zM1071 1174l-418 -588h344l125 588h-51zM1784 1585h-586l37 172h586z" />
    <glyph glyph-name="uni01E3" unicode="&#x1e3;" horiz-adv-x="1761" 
d="M1747 760q0 -79 -33.5 -145t-112.5 -114t-209.5 -75.5t-324.5 -30.5v-18q0 -31 10 -62.5t34 -57t64 -41t101 -15.5q36 0 78.5 6.5t86.5 19t87.5 30t81.5 38.5l-49 -236q-31 -16 -71.5 -31t-87.5 -27t-99 -19t-107 -7q-145 0 -247 60.5t-144 179.5h-4q-33 -45 -74 -88.5
t-91 -77t-111 -54t-134 -20.5q-74 0 -135 26.5t-104.5 76t-67 121t-23.5 161.5q0 52 12.5 123.5t43.5 148t82 151.5t128.5 134t183 95.5t245.5 36.5q108 0 196.5 -21t147.5 -43q60 32 130.5 48t147.5 16q91 0 160 -22t115.5 -61t70 -91.5t23.5 -114.5zM1444 756
q0 37 -27.5 61.5t-75.5 24.5q-43 0 -82.5 -18t-73 -51t-58 -79.5t-37.5 -103.5q180 -2 267 41.5t87 124.5zM870 807q-20 8 -51.5 14t-60.5 6q-72 0 -128.5 -23t-98.5 -61t-71 -86t-47 -97.5t-26 -96.5t-8 -82q0 -75 28 -119.5t80 -44.5q40 0 77.5 24t72 67t66.5 102t61 129
q4 11 15.5 46t26.5 77t32 82.5t32 62.5zM1313 1186h-586l37 172h586z" />
    <glyph glyph-name="uni01E4" unicode="&#x1e4;" horiz-adv-x="1493" 
d="M1370 1081q-31 21 -72 40.5t-89.5 34t-103 23.5t-112.5 9q-125 0 -225.5 -40.5t-171 -114t-108 -177t-37.5 -229.5q0 -91 25 -163t71.5 -121t112.5 -75t147 -26q54 0 89.5 6.5t64.5 15.5l16 78h-288l40 190h287l20 98h-291l41 190h613l-61 -288h137l-40 -190h-137
l-53 -256q-43 -21 -94 -40.5t-111 -35.5t-129 -25.5t-149 -9.5q-154 0 -275.5 46t-204.5 130t-127 201.5t-44 259.5q0 112 25 218.5t74.5 200.5t124 172.5t174 135t224.5 88t275 31.5q68 0 129.5 -7.5t115.5 -19.5t99.5 -26.5t81.5 -28.5z" />
    <glyph glyph-name="uni01E5" unicode="&#x1e5;" horiz-adv-x="1214" 
d="M999 123q-6 -28 -12 -54.5t-14 -52.5h130l-41 -190h-164q-38 -71 -91 -128t-125.5 -96.5t-167 -61t-215.5 -21.5q-97 0 -179 20.5t-153 54.5l56 254q63 -42 138 -69t158 -27q69 0 123 19t96 55h-105l41 190h181q10 29 17.5 61.5t14.5 67.5l18 90h-4q-26 -39 -57 -73.5
t-68.5 -60.5t-83 -41.5t-102.5 -15.5q-78 0 -136.5 26.5t-98 74.5t-59.5 114.5t-20 146.5q0 81 18.5 160t55 150.5t91.5 132.5t128 105.5t163.5 69.5t198.5 25q62 0 123.5 -4.5t120 -12t111.5 -17t98 -18.5zM775.5 824.5q-30.5 2.5 -64.5 2.5q-64 0 -121.5 -30t-101 -82.5
t-69 -123t-25.5 -152.5q0 -33 7.5 -61t23.5 -48.5t39.5 -32t54.5 -11.5q56 0 98 31t73.5 78t52.5 103t33 106l53 214q-23 4 -53.5 6.5z" />
    <glyph glyph-name="Gcaron" unicode="&#x1e6;" horiz-adv-x="1452" 
d="M1370 1081q-31 21 -72 40.5t-89.5 34t-103 23.5t-112.5 9q-125 0 -225.5 -40.5t-171 -114t-108 -177t-37.5 -229.5q0 -91 25 -163t71.5 -121t112.5 -75t147 -26q54 0 89.5 6.5t64.5 15.5l61 291h-291l55 258h613l-154 -727q-43 -21 -94 -40.5t-111 -35.5t-129 -25.5
t-149 -9.5q-154 0 -275.5 46t-204.5 130t-127 201.5t-44 259.5q0 112 25 218.5t74.5 200.5t124 172.5t174 135t224.5 88t275 31.5q68 0 129.5 -7.5t115.5 -19.5t99.5 -26.5t81.5 -28.5zM1062 1567h-250l-168 327h196l117 -190l197 190h211z" />
    <glyph glyph-name="gcaron" unicode="&#x1e7;" horiz-adv-x="1214" 
d="M999 123q-28 -134 -75 -245t-127 -190.5t-201 -124t-297 -44.5q-97 0 -179 20.5t-153 54.5l56 254q63 -42 138 -69t158 -27q78 0 136.5 21t101 62t70.5 101.5t45 139.5l18 90h-4q-26 -39 -57 -73.5t-68.5 -60.5t-83 -41.5t-102.5 -15.5q-78 0 -136.5 28.5t-98 79.5
t-59.5 122t-20 157t18.5 170.5t55.5 161t93 141.5t130.5 112.5t167.5 74.5t205 27q62 0 123.5 -4.5t120 -12t111.5 -17t98 -18.5zM775.5 824.5q-30.5 2.5 -64.5 2.5q-69 0 -129.5 -34t-105.5 -93t-71 -139t-26 -172q0 -37 7.5 -68.5t23.5 -54.5t39.5 -36t54.5 -13
q40 0 73.5 16t61 43.5t49 63.5t38.5 76t29.5 81t20.5 78l53 242q-23 5 -53.5 7.5zM876 1184h-250l-168 327h196l117 -190l197 190h211z" />
    <glyph glyph-name="uni01E8" unicode="&#x1e8;" horiz-adv-x="1333" 
d="M1434 1348.5q-51 -55.5 -115.5 -123t-136 -141t-136 -141t-115.5 -123t-75 -85.5q13 -33 43 -91.5t68.5 -129t82 -147t82 -147t68.5 -129t43 -91.5h-393q-9 26 -32 75t-53.5 109t-64.5 125.5t-64.5 125.5t-54 108.5t-32.5 74.5q-8 17 -15 38.5t-10 33.5h-4l-145 -690
h-326l305 1434h326l-141 -666h4q11 15 25.5 33t23.5 30q20 25 61.5 72.5t93 106t108.5 122.5t108.5 122.5t92 106t58.5 73.5h395q-24 -30 -75 -85.5zM1023 1567h-250l-168 327h196l117 -190l197 190h211z" />
    <glyph glyph-name="uni01E9" unicode="&#x1e9;" horiz-adv-x="1151" 
d="M764 541l264 -541h-352l-225 532h-5l-112 -532h-318l322 1516h319l-200 -936h4l407 444h375zM947 1649h-250l-168 327h196l117 -190l197 190h211z" />
    <glyph glyph-name="uni01EA" unicode="&#x1ea;" horiz-adv-x="1554" 
d="M1511 842q0 -86 -15 -173t-44.5 -168.5t-74 -156.5t-103.5 -137q-88 -93 -204.5 -153.5t-269.5 -74.5q-38 -38 -64 -66.5t-41.5 -51.5t-22 -42t-6.5 -36q0 -72 76 -72q23 0 51 8t45 17l-29 -142q-20 -11 -55.5 -19.5t-79.5 -8.5q-52 0 -89 12.5t-61 35t-35 53.5t-11 67
q0 60 40 118.5t124 126.5q-126 11 -225 62t-167 132t-103.5 188t-35.5 231q0 93 16 183.5t48.5 174t81 159t112.5 138.5q50 48 108 86.5t125 66.5t144 43t165 15q133 0 243.5 -42t189.5 -121.5t123 -194t44 -258.5zM1169 831q0 81 -20.5 145t-58.5 108.5t-92.5 68
t-123.5 23.5q-80 0 -152 -37t-128 -103q-34 -40 -60 -92t-44 -110t-27.5 -118.5t-9.5 -119.5q0 -81 20.5 -145t58.5 -107.5t91.5 -66.5t119.5 -23q82 0 156.5 36t130.5 107q35 42 61 94.5t43 109.5t26 116t9 114z" />
    <glyph glyph-name="uni01EB" unicode="&#x1eb;" horiz-adv-x="1178" 
d="M1116 618q0 -65 -11.5 -134t-36.5 -135.5t-64.5 -127.5t-95.5 -109.5t-129.5 -82.5t-166.5 -47q-39 -38 -65.5 -67.5t-42 -52.5t-22.5 -42t-7 -37q0 -72 76 -72q23 0 51 8t45 17l-29 -142q-20 -11 -55.5 -19.5t-79.5 -8.5q-52 0 -89 12.5t-61 35t-35 53.5t-11 67
q0 60 39.5 118t123.5 126q-99 8 -172.5 44t-121.5 93t-71.5 132t-23.5 161q0 74 15 150.5t46.5 147.5t80.5 133.5t117 109t155.5 73.5t196.5 27q107 0 189.5 -30.5t139 -87t86 -136t29.5 -177.5zM797 614q0 42 -10 77.5t-29.5 61t-47.5 40t-65 14.5q-63 0 -112.5 -36
t-83.5 -93t-52 -128t-18 -142q0 -91 42.5 -141t110.5 -50q65 0 114.5 35t83 91.5t50.5 127.5t17 143z" />
    <glyph glyph-name="uni01EC" unicode="&#x1ec;" horiz-adv-x="1554" 
d="M1511 842q0 -86 -15 -173t-44.5 -168.5t-74 -156.5t-103.5 -137q-88 -93 -204.5 -153.5t-269.5 -74.5q-38 -38 -64 -66.5t-41.5 -51.5t-22 -42t-6.5 -36q0 -72 76 -72q23 0 51 8t45 17l-29 -142q-20 -11 -55.5 -19.5t-79.5 -8.5q-52 0 -89 12.5t-61 35t-35 53.5t-11 67
q0 60 40 118.5t124 126.5q-126 11 -225 62t-167 132t-103.5 188t-35.5 231q0 93 16 183.5t48.5 174t81 159t112.5 138.5q50 48 108 86.5t125 66.5t144 43t165 15q133 0 243.5 -42t189.5 -121.5t123 -194t44 -258.5zM1169 831q0 81 -20.5 145t-58.5 108.5t-92.5 68
t-123.5 23.5q-80 0 -152 -37t-128 -103q-34 -40 -60 -92t-44 -110t-27.5 -118.5t-9.5 -119.5q0 -81 20.5 -145t58.5 -107.5t91.5 -66.5t119.5 -23q82 0 156.5 36t130.5 107q35 42 61 94.5t43 109.5t26 116t9 114zM1227 1567h-586l37 172h586z" />
    <glyph glyph-name="uni01ED" unicode="&#x1ed;" horiz-adv-x="1178" 
d="M1116 618q0 -65 -11.5 -134t-36.5 -135.5t-64.5 -127.5t-95.5 -109.5t-129.5 -82.5t-166.5 -47q-39 -38 -65.5 -67.5t-42 -52.5t-22.5 -42t-7 -37q0 -72 76 -72q23 0 51 8t45 17l-29 -142q-20 -11 -55.5 -19.5t-79.5 -8.5q-52 0 -89 12.5t-61 35t-35 53.5t-11 67
q0 60 39.5 118t123.5 126q-99 8 -172.5 44t-121.5 93t-71.5 132t-23.5 161q0 74 15 150.5t46.5 147.5t80.5 133.5t117 109t155.5 73.5t196.5 27q107 0 189.5 -30.5t139 -87t86 -136t29.5 -177.5zM797 614q0 42 -10 77.5t-29.5 61t-47.5 40t-65 14.5q-63 0 -112.5 -36
t-83.5 -93t-52 -128t-18 -142q0 -91 42.5 -141t110.5 -50q65 0 114.5 35t83 91.5t50.5 127.5t17 143zM1003 1185h-586l37 172h586z" />
    <glyph glyph-name="uni01EE" unicode="&#x1ee;" horiz-adv-x="1370" 
d="M-137 -362l66 302q93 -64 213.5 -103.5t258.5 -39.5q92 0 180 20t157 64.5t111 114.5t42 170q0 84 -35 141.5t-94.5 93t-137 51t-162.5 15.5h-143l43 208l548 496h-706l56 263h1155l-39 -181l-614 -556q89 -13 174.5 -47t152.5 -92.5t108 -143t41 -198.5
q0 -117 -30 -214.5t-85.5 -175t-132.5 -135t-171 -96t-202 -57.5t-224 -19q-74 0 -147 7.5t-141.5 22.5t-130 37t-111.5 52zM948 1567h-250l-168 327h196l117 -190l197 190h211z" />
    <glyph glyph-name="uni01EF" unicode="&#x1ef;" horiz-adv-x="1016" 
d="M-190 -389l58 264q29 -21 72 -41.5t92.5 -37t103 -26.5t102.5 -10q95 0 163.5 20t112.5 55.5t65 84.5t21 108q0 106 -79.5 165t-237.5 59h-118l28 131l429 408h-529l49 233h914l-31 -151l-443 -423q70 -13 132 -44.5t108.5 -80.5t74 -114t27.5 -145q0 -140 -52.5 -242.5
t-145.5 -170.5t-219.5 -101t-274.5 -33q-131 0 -235.5 25t-186.5 67zM725 1183h-250l-168 327h196l117 -190l197 190h211z" />
    <glyph glyph-name="uni01F0" unicode="&#x1f0;" horiz-adv-x="578" 
d="M346 53q-23 -108 -61.5 -205t-101 -170t-152.5 -116t-215 -43q-44 0 -88 9t-72 23l51 242q9 -6 21.5 -12t27 -10.5t29.5 -7.5t27 -3q75 0 127 61t81 199l213 1004h320zM518 1187h-250l-168 327h196l117 -190l197 190h211z" />
    <glyph glyph-name="uni01F1" unicode="&#x1f1;" horiz-adv-x="2711" 
d="M1499 854q0 -113 -23 -220.5t-69.5 -202.5t-117.5 -174t-167.5 -136t-219.5 -89t-273 -32h-580l305 1434h504q158 0 277.5 -43t200.5 -119.5t122 -183t41 -234.5zM1157 829q0 80 -22.5 143.5t-69 107.5t-117.5 67.5t-168 23.5h-157l-193 -909h197q122 0 220 40.5t167 115
t106 179t37 232.5zM2818 1253l-910 -991h701l-56 -262h-1155l39 186l922 985h-660l56 263h1102z" />
    <glyph glyph-name="uni01F2" unicode="&#x1f2;" horiz-adv-x="2502" 
d="M1499 854q0 -113 -23 -220.5t-69.5 -202.5t-117.5 -174t-167.5 -136t-219.5 -89t-273 -32h-580l305 1434h504q158 0 277.5 -43t200.5 -119.5t122 -183t41 -234.5zM1157 829q0 80 -22.5 143.5t-69 107.5t-117.5 67.5t-168 23.5h-157l-193 -909h197q122 0 220 40.5t167 115
t106 179t37 232.5zM2533 864l-606 -631h475l-49 -233h-930l27 133l645 658h-453l49 233h877z" />
    <glyph glyph-name="uni01F3" unicode="&#x1f3;" horiz-adv-x="2215" 
d="M1044 338q-7 -31 -13.5 -75t-12 -91.5t-9 -93t-3.5 -78.5h-320q0 14 1.5 37.5t4 48.5t5 48.5t3.5 37.5h-4q-31 -44 -64.5 -80t-72 -62t-83.5 -40.5t-99 -14.5q-74 0 -132.5 26t-99.5 75.5t-62.5 123t-21.5 167.5q0 135 45 258.5t130.5 217.5t208.5 150t280 56
q40 0 81.5 -4t67.5 -9l103 480h315zM778.5 824q-27.5 3 -53.5 3q-69 0 -121 -23t-90.5 -60.5t-64.5 -85t-41.5 -96t-22 -94t-6.5 -79.5q0 -37 8 -68.5t23.5 -54.5t40 -36t57.5 -13q55 0 98.5 32.5t77 85t56.5 118t38 131.5l51 231q-23 6 -50.5 9zM2246 864l-606 -631h475
l-49 -233h-930l27 133l645 658h-453l49 233h877z" />
    <glyph glyph-name="uni01F4" unicode="&#x1f4;" horiz-adv-x="1452" 
d="M1370 1081q-31 21 -72 40.5t-89.5 34t-103 23.5t-112.5 9q-125 0 -225.5 -40.5t-171 -114t-108 -177t-37.5 -229.5q0 -91 25 -163t71.5 -121t112.5 -75t147 -26q54 0 89.5 6.5t64.5 15.5l61 291h-291l55 258h613l-154 -727q-43 -21 -94 -40.5t-111 -35.5t-129 -25.5
t-149 -9.5q-154 0 -275.5 46t-204.5 130t-127 201.5t-44 259.5q0 112 25 218.5t74.5 200.5t124 172.5t174 135t224.5 88t275 31.5q68 0 129.5 -7.5t115.5 -19.5t99.5 -26.5t81.5 -28.5zM1063 1567h-235l315 325h289z" />
    <glyph glyph-name="uni01F5" unicode="&#x1f5;" horiz-adv-x="1214" 
d="M999 123q-28 -134 -75 -245t-127 -190.5t-201 -124t-297 -44.5q-97 0 -179 20.5t-153 54.5l56 254q63 -42 138 -69t158 -27q78 0 136.5 21t101 62t70.5 101.5t45 139.5l18 90h-4q-26 -39 -57 -73.5t-68.5 -60.5t-83 -41.5t-102.5 -15.5q-78 0 -136.5 28.5t-98 79.5
t-59.5 122t-20 157t18.5 170.5t55.5 161t93 141.5t130.5 112.5t167.5 74.5t205 27q62 0 123.5 -4.5t120 -12t111.5 -17t98 -18.5zM775.5 824.5q-30.5 2.5 -64.5 2.5q-69 0 -129.5 -34t-105.5 -93t-71 -139t-26 -172q0 -37 7.5 -68.5t23.5 -54.5t39.5 -36t54.5 -13
q40 0 73.5 16t61 43.5t49 63.5t38.5 76t29.5 81t20.5 78l53 242q-23 5 -53.5 7.5zM800 1188h-235l315 325h289z" />
    <glyph glyph-name="uni01F6" unicode="&#x1f6;" horiz-adv-x="2262" 
d="M1398 518q-5 -25 -11 -62.5t-6 -67.5q0 -59 43.5 -96.5t121.5 -37.5q202 0 253 240l112 530h324l-119 -569q-27 -126 -74.5 -217t-119.5 -149.5t-170.5 -86t-226.5 -27.5q-105 0 -191 24t-147.5 72t-95 120t-33.5 168q0 34 5.5 77.5t12.5 81.5l11 62h-589l-123 -580h-326
l305 1434h326l-123 -572h590l123 572h325z" />
    <glyph glyph-name="uni01F7" unicode="&#x1f7;" horiz-adv-x="1505" 
d="M367 -24l-95 -447h-324l405 1905h324l-31 -146h4q200 170 464 170q86 0 156.5 -25.5t121 -73t78.5 -114.5t28 -150q0 -116 -32 -218.5t-87.5 -193t-130.5 -169t-162 -146.5t-181 -125.5t-188 -106t-183.5 -88.5t-166.5 -72zM581 981l-145 -681q75 32 157 74t161 93
t150 110.5t125 126.5t86 142t32 157q0 37 -12 69.5t-34.5 56.5t-53.5 37.5t-70 13.5q-173 0 -396 -199z" />
    <glyph glyph-name="uni01F8" unicode="&#x1f8;" horiz-adv-x="1636" 
d="M1362 0h-295l-449 911q-6 12 -13 28t-14 32.5t-13 31.5t-9 27h-6q-5 -37 -11 -83t-17 -91l-183 -856h-303l303 1434h320l430 -877q5 -11 12.5 -26.5t15 -32t14 -32.5t9.5 -28h4q1 15 3 33.5t5 37.5t6.5 37t6.5 32l182 856h305zM1028 1567l-260 325h264l209 -325h-213z
" />
    <glyph glyph-name="uni01F9" unicode="&#x1f9;" horiz-adv-x="1225" 
d="M1151 780q0 -15 -3 -40t-7.5 -52t-9.5 -52.5t-9 -43.5l-125 -592h-317l123 584q6 32 12 66t6 52q0 48 -24.5 76.5t-73.5 28.5q-41 0 -85.5 -25.5t-83.5 -67.5t-68.5 -96.5t-41.5 -111.5l-106 -506h-322l152 702q9 46 18 92.5t16 89t12.5 79t8.5 61.5h312
q-3 -28 -6.5 -58.5t-7 -58.5t-6.5 -49.5t-5 -30.5h4q35 46 79 86.5t93.5 70.5t102.5 47.5t106 17.5q127 0 191.5 -70.5t64.5 -198.5zM719 1188l-260 325h264l209 -325h-213z" />
    <glyph glyph-name="Aringacute" unicode="&#x1fa;" horiz-adv-x="1440" 
d="M985 0l-41 319h-512l-170 -319h-364l815 1411q-23 25 -35 59t-12 72q0 60 22.5 104t58.5 72.5t81.5 42t91.5 13.5q57 0 103.5 -17t79.5 -47t50.5 -72t17.5 -92q0 -43 -15.5 -79.5t-41.5 -61.5l201 -1405h-330zM1024 1546q0 40 -29 68t-80 28q-24 0 -43 -8.5t-32 -22
t-20 -30.5t-7 -35q0 -42 27 -71t75 -29q23 0 42.5 7.5t34.5 21t23.5 32t8.5 39.5zM866 1049q-2 16 -2.5 34.5t0.5 35t2 30t2 20.5h-8q-3 -15 -15.5 -48.5t-31.5 -67.5l-263 -486h370zM982 1857h-235l315 325h289z" />
    <glyph glyph-name="aringacute" unicode="&#x1fb;" horiz-adv-x="1214" 
d="M1044 338q-7 -31 -13.5 -75t-12 -91.5t-9 -93t-3.5 -78.5h-320q0 15 1.5 38.5t3.5 48t4.5 48t4.5 39.5h-4q-29 -39 -60 -75t-69 -63.5t-84.5 -44t-107.5 -16.5q-75 0 -133.5 27t-98.5 78t-61 124.5t-21 166.5q0 47 10.5 115.5t38 144t76.5 150t125.5 134.5t185 97
t255.5 37q57 0 114.5 -4.5t113 -12t107.5 -17.5t97 -20zM778 824.5q-28 2.5 -53 2.5q-69 0 -121 -23t-90.5 -60t-64.5 -84t-41.5 -95.5t-22 -94.5t-6.5 -81q0 -37 7.5 -68.5t23.5 -54.5t39.5 -36t54.5 -13q57 0 101.5 33t78 84.5t56 116t36.5 127.5l53 239q-23 5 -51 7.5z
M1022 1378q0 -54 -21 -95t-55 -69t-78 -42.5t-90 -14.5q-49 0 -92 15t-74.5 43t-50 68t-18.5 89q0 56 21 97.5t55 69t77 41t87 13.5q54 0 98.5 -16t75.5 -44.5t48 -68t17 -86.5zM881 1376q0 38 -27.5 66t-75.5 28q-23 0 -41 -8.5t-30 -22t-18.5 -30t-6.5 -33.5q0 -40 25 -67
t71 -27q44 0 73.5 26t29.5 68zM882 1659h-235l315 325h289z" />
    <glyph glyph-name="AEacute" unicode="&#x1fc;" horiz-adv-x="1933" 
d="M1950 1171h-504l-68 -323h467l-55 -264h-467l-70 -322h535l-55 -262h-859l68 319h-477l-229 -319h-379l1083 1434h1065zM1071 1174l-418 -588h344l125 588h-51zM1510 1567h-235l315 325h289z" />
    <glyph glyph-name="aeacute" unicode="&#x1fd;" horiz-adv-x="1761" 
d="M1747 760q0 -79 -33.5 -145t-112.5 -114t-209.5 -75.5t-324.5 -30.5v-18q0 -31 10 -62.5t34 -57t64 -41t101 -15.5q36 0 78.5 6.5t86.5 19t87.5 30t81.5 38.5l-49 -236q-31 -16 -71.5 -31t-87.5 -27t-99 -19t-107 -7q-145 0 -247 60.5t-144 179.5h-4q-33 -45 -74 -88.5
t-91 -77t-111 -54t-134 -20.5q-74 0 -135 26.5t-104.5 76t-67 121t-23.5 161.5q0 52 12.5 123.5t43.5 148t82 151.5t128.5 134t183 95.5t245.5 36.5q108 0 196.5 -21t147.5 -43q60 32 130.5 48t147.5 16q91 0 160 -22t115.5 -61t70 -91.5t23.5 -114.5zM1444 756
q0 37 -27.5 61.5t-75.5 24.5q-43 0 -82.5 -18t-73 -51t-58 -79.5t-37.5 -103.5q180 -2 267 41.5t87 124.5zM870 807q-20 8 -51.5 14t-60.5 6q-72 0 -128.5 -23t-98.5 -61t-71 -86t-47 -97.5t-26 -96.5t-8 -82q0 -75 28 -119.5t80 -44.5q40 0 77.5 24t72 67t66.5 102t61 129
q4 11 15.5 46t26.5 77t32 82.5t32 62.5zM1126 1186h-235l315 325h289z" />
    </font>
</defs>
</svg>
